<?xml version="1.0" standalone="no"?>
 <!DOCTYPE svg PUBLIC "-//W3C//DTD SVG 1.1//EN" 
 "http://www.w3.org/Graphics/SVG/1.1/DTD/svg11.dtd"> 
<svg
  xmlns:svg="http://www.w3.org/2000/svg"
  xmlns="http://www.w3.org/2000/svg"
  xmlns:xlink="http://www.w3.org/1999/xlink"
  version="1.1"
  width="419.9890mm" height="297.0022mm" viewBox="0.0000 0.0000 419.9890 297.0022">
<title>SVG Image created as keyboard_8x8.svg date 2025/04/08 16:27:16 </title>
  <desc>Image generated by Eeschema-SVG </desc>
<g style="fill:#000000; fill-opacity:1.0000;stroke:#000000; stroke-opacity:1.0000;
stroke-linecap:round; stroke-linejoin:round;"
 transform="translate(0 0) scale(1 1)">
</g>
<g style="fill:none; 
stroke:#840000; stroke-width:0.1524; stroke-opacity:1; 
stroke-linecap:round; stroke-linejoin:round;">
<rect x="16.510000" y="16.510000" width="267.970000" height="127.000000" rx="0.000000" />
<rect x="16.510000" y="151.130000" width="129.540000" height="128.270000" rx="0.000000" />
<rect x="16.510000" y="16.510000" width="267.970000" height="127.000000" rx="0.000000" />
</g>
<g style="fill:none; 
stroke:#006464; stroke-width:0.1524; stroke-opacity:1; 
stroke-linecap:round; stroke-linejoin:round;">
<text x="16.5100" y="15.7984"
textLength="9.9399" font-size="1.6933" lengthAdjust="spacingAndGlyphs"
text-anchor="start" opacity="0" stroke-opacity="0">12x5 View</text>
<g class="stroked-text"><desc>12x5 View</desc>
<path d="M17.5778 15.6349
L16.8521 15.6349
" />
<path d="M17.2149 15.6349
L17.2149 14.3649
" />
<path d="M17.2149 14.3649
L17.0940 14.5464
" />
<path d="M17.0940 14.5464
L16.9730 14.6673
" />
<path d="M16.9730 14.6673
L16.8521 14.7278
" />
<path d="M18.0616 14.4859
L18.1220 14.4254
" />
<path d="M18.1220 14.4254
L18.2430 14.3649
" />
<path d="M18.2430 14.3649
L18.5454 14.3649
" />
<path d="M18.5454 14.3649
L18.6663 14.4254
" />
<path d="M18.6663 14.4254
L18.7268 14.4859
" />
<path d="M18.7268 14.4859
L18.7873 14.6068
" />
<path d="M18.7873 14.6068
L18.7873 14.7278
" />
<path d="M18.7873 14.7278
L18.7268 14.9092
" />
<path d="M18.7268 14.9092
L18.0011 15.6349
" />
<path d="M18.0011 15.6349
L18.7873 15.6349
" />
<path d="M19.2106 15.6349
L19.8758 14.7883
" />
<path d="M19.2106 14.7883
L19.8758 15.6349
" />
<path d="M20.9644 14.3649
L20.3596 14.3649
" />
<path d="M20.3596 14.3649
L20.2992 14.9697
" />
<path d="M20.2992 14.9697
L20.3596 14.9092
" />
<path d="M20.3596 14.9092
L20.4806 14.8487
" />
<path d="M20.4806 14.8487
L20.7830 14.8487
" />
<path d="M20.7830 14.8487
L20.9039 14.9092
" />
<path d="M20.9039 14.9092
L20.9644 14.9697
" />
<path d="M20.9644 14.9697
L21.0249 15.0906
" />
<path d="M21.0249 15.0906
L21.0249 15.3930
" />
<path d="M21.0249 15.3930
L20.9644 15.5140
" />
<path d="M20.9644 15.5140
L20.9039 15.5745
" />
<path d="M20.9039 15.5745
L20.7830 15.6349
" />
<path d="M20.7830 15.6349
L20.4806 15.6349
" />
<path d="M20.4806 15.6349
L20.3596 15.5745
" />
<path d="M20.3596 15.5745
L20.2992 15.5140
" />
<path d="M22.3553 14.3649
L22.7786 15.6349
" />
<path d="M22.7786 15.6349
L23.2020 14.3649
" />
<path d="M23.6253 15.6349
L23.6253 14.7883
" />
<path d="M23.6253 14.3649
L23.5649 14.4254
" />
<path d="M23.5649 14.4254
L23.6253 14.4859
" />
<path d="M23.6253 14.4859
L23.6858 14.4254
" />
<path d="M23.6858 14.4254
L23.6253 14.3649
" />
<path d="M23.6253 14.3649
L23.6253 14.4859
" />
<path d="M24.7139 15.5745
L24.5930 15.6349
" />
<path d="M24.5930 15.6349
L24.3511 15.6349
" />
<path d="M24.3511 15.6349
L24.2301 15.5745
" />
<path d="M24.2301 15.5745
L24.1697 15.4535
" />
<path d="M24.1697 15.4535
L24.1697 14.9697
" />
<path d="M24.1697 14.9697
L24.2301 14.8487
" />
<path d="M24.2301 14.8487
L24.3511 14.7883
" />
<path d="M24.3511 14.7883
L24.5930 14.7883
" />
<path d="M24.5930 14.7883
L24.7139 14.8487
" />
<path d="M24.7139 14.8487
L24.7744 14.9697
" />
<path d="M24.7744 14.9697
L24.7744 15.0906
" />
<path d="M24.7744 15.0906
L24.1697 15.2116
" />
<path d="M25.1978 14.7883
L25.4397 15.6349
" />
<path d="M25.4397 15.6349
L25.6816 15.0302
" />
<path d="M25.6816 15.0302
L25.9235 15.6349
" />
<path d="M25.9235 15.6349
L26.1654 14.7883
" />
</g></g>
<g style="fill:none; 
stroke:#725600; stroke-width:0.1524; stroke-opacity:1; 
stroke-linecap:round; stroke-linejoin:round;">
<text x="16.5100" y="145.3646"
textLength="19.7370" font-size="1.6933" lengthAdjust="spacingAndGlyphs"
text-anchor="start" opacity="0" stroke-opacity="0">File: 12x5.kicad_sch</text>
<g class="stroked-text"><desc>File: 12x5.kicad_sch</desc>
<path d="M17.3359 144.7518
L16.9125 144.7518
" />
<path d="M16.9125 145.4170
L16.9125 144.1470
" />
<path d="M16.9125 144.1470
L17.5173 144.1470
" />
<path d="M18.0011 145.4170
L18.0011 144.5704
" />
<path d="M18.0011 144.1470
L17.9407 144.2075
" />
<path d="M17.9407 144.2075
L18.0011 144.2680
" />
<path d="M18.0011 144.2680
L18.0616 144.2075
" />
<path d="M18.0616 144.2075
L18.0011 144.1470
" />
<path d="M18.0011 144.1470
L18.0011 144.2680
" />
<path d="M18.7874 145.4170
L18.6664 145.3566
" />
<path d="M18.6664 145.3566
L18.6059 145.2356
" />
<path d="M18.6059 145.2356
L18.6059 144.1470
" />
<path d="M19.7549 145.3566
L19.6340 145.4170
" />
<path d="M19.6340 145.4170
L19.3921 145.4170
" />
<path d="M19.3921 145.4170
L19.2711 145.3566
" />
<path d="M19.2711 145.3566
L19.2107 145.2356
" />
<path d="M19.2107 145.2356
L19.2107 144.7518
" />
<path d="M19.2107 144.7518
L19.2711 144.6308
" />
<path d="M19.2711 144.6308
L19.3921 144.5704
" />
<path d="M19.3921 144.5704
L19.6340 144.5704
" />
<path d="M19.6340 144.5704
L19.7549 144.6308
" />
<path d="M19.7549 144.6308
L19.8154 144.7518
" />
<path d="M19.8154 144.7518
L19.8154 144.8727
" />
<path d="M19.8154 144.8727
L19.2107 144.9937
" />
<path d="M20.3597 145.2961
L20.4202 145.3566
" />
<path d="M20.4202 145.3566
L20.3597 145.4170
" />
<path d="M20.3597 145.4170
L20.2993 145.3566
" />
<path d="M20.2993 145.3566
L20.3597 145.2961
" />
<path d="M20.3597 145.2961
L20.3597 145.4170
" />
<path d="M20.3597 144.6308
L20.4202 144.6913
" />
<path d="M20.4202 144.6913
L20.3597 144.7518
" />
<path d="M20.3597 144.7518
L20.2993 144.6913
" />
<path d="M20.2993 144.6913
L20.3597 144.6308
" />
<path d="M20.3597 144.6308
L20.3597 144.7518
" />
<path d="M22.5974 145.4170
L21.8717 145.4170
" />
<path d="M22.2345 145.4170
L22.2345 144.1470
" />
<path d="M22.2345 144.1470
L22.1136 144.3285
" />
<path d="M22.1136 144.3285
L21.9926 144.4494
" />
<path d="M21.9926 144.4494
L21.8717 144.5099
" />
<path d="M23.0812 144.2680
L23.1416 144.2075
" />
<path d="M23.1416 144.2075
L23.2626 144.1470
" />
<path d="M23.2626 144.1470
L23.5650 144.1470
" />
<path d="M23.5650 144.1470
L23.6859 144.2075
" />
<path d="M23.6859 144.2075
L23.7464 144.2680
" />
<path d="M23.7464 144.2680
L23.8069 144.3889
" />
<path d="M23.8069 144.3889
L23.8069 144.5099
" />
<path d="M23.8069 144.5099
L23.7464 144.6913
" />
<path d="M23.7464 144.6913
L23.0207 145.4170
" />
<path d="M23.0207 145.4170
L23.8069 145.4170
" />
<path d="M24.2302 145.4170
L24.8954 144.5704
" />
<path d="M24.2302 144.5704
L24.8954 145.4170
" />
<path d="M25.9840 144.1470
L25.3792 144.1470
" />
<path d="M25.3792 144.1470
L25.3188 144.7518
" />
<path d="M25.3188 144.7518
L25.3792 144.6913
" />
<path d="M25.3792 144.6913
L25.5002 144.6308
" />
<path d="M25.5002 144.6308
L25.8026 144.6308
" />
<path d="M25.8026 144.6308
L25.9235 144.6913
" />
<path d="M25.9235 144.6913
L25.9840 144.7518
" />
<path d="M25.9840 144.7518
L26.0445 144.8727
" />
<path d="M26.0445 144.8727
L26.0445 145.1751
" />
<path d="M26.0445 145.1751
L25.9840 145.2961
" />
<path d="M25.9840 145.2961
L25.9235 145.3566
" />
<path d="M25.9235 145.3566
L25.8026 145.4170
" />
<path d="M25.8026 145.4170
L25.5002 145.4170
" />
<path d="M25.5002 145.4170
L25.3792 145.3566
" />
<path d="M25.3792 145.3566
L25.3188 145.2961
" />
<path d="M26.5887 145.2961
L26.6492 145.3566
" />
<path d="M26.6492 145.3566
L26.5887 145.4170
" />
<path d="M26.5887 145.4170
L26.5283 145.3566
" />
<path d="M26.5283 145.3566
L26.5887 145.2961
" />
<path d="M26.5887 145.2961
L26.5887 145.4170
" />
<path d="M27.1935 145.4170
L27.1935 144.1470
" />
<path d="M27.3145 144.9332
L27.6773 145.4170
" />
<path d="M27.6773 144.5704
L27.1935 145.0542
" />
<path d="M28.2216 145.4170
L28.2216 144.5704
" />
<path d="M28.2216 144.1470
L28.1612 144.2075
" />
<path d="M28.1612 144.2075
L28.2216 144.2680
" />
<path d="M28.2216 144.2680
L28.2821 144.2075
" />
<path d="M28.2821 144.2075
L28.2216 144.1470
" />
<path d="M28.2216 144.1470
L28.2216 144.2680
" />
<path d="M29.3707 145.3566
L29.2498 145.4170
" />
<path d="M29.2498 145.4170
L29.0079 145.4170
" />
<path d="M29.0079 145.4170
L28.8869 145.3566
" />
<path d="M28.8869 145.3566
L28.8264 145.2961
" />
<path d="M28.8264 145.2961
L28.7660 145.1751
" />
<path d="M28.7660 145.1751
L28.7660 144.8123
" />
<path d="M28.7660 144.8123
L28.8264 144.6913
" />
<path d="M28.8264 144.6913
L28.8869 144.6308
" />
<path d="M28.8869 144.6308
L29.0079 144.5704
" />
<path d="M29.0079 144.5704
L29.2498 144.5704
" />
<path d="M29.2498 144.5704
L29.3707 144.6308
" />
<path d="M30.4593 145.4170
L30.4593 144.7518
" />
<path d="M30.4593 144.7518
L30.3988 144.6308
" />
<path d="M30.3988 144.6308
L30.2779 144.5704
" />
<path d="M30.2779 144.5704
L30.0360 144.5704
" />
<path d="M30.0360 144.5704
L29.9150 144.6308
" />
<path d="M30.4593 145.3566
L30.3384 145.4170
" />
<path d="M30.3384 145.4170
L30.0360 145.4170
" />
<path d="M30.0360 145.4170
L29.9150 145.3566
" />
<path d="M29.9150 145.3566
L29.8546 145.2356
" />
<path d="M29.8546 145.2356
L29.8546 145.1146
" />
<path d="M29.8546 145.1146
L29.9150 144.9937
" />
<path d="M29.9150 144.9937
L30.0360 144.9332
" />
<path d="M30.0360 144.9332
L30.3384 144.9332
" />
<path d="M30.3384 144.9332
L30.4593 144.8727
" />
<path d="M31.6083 145.4170
L31.6083 144.1470
" />
<path d="M31.6083 145.3566
L31.4874 145.4170
" />
<path d="M31.4874 145.4170
L31.2455 145.4170
" />
<path d="M31.2455 145.4170
L31.1245 145.3566
" />
<path d="M31.1245 145.3566
L31.0640 145.2961
" />
<path d="M31.0640 145.2961
L31.0036 145.1751
" />
<path d="M31.0036 145.1751
L31.0036 144.8123
" />
<path d="M31.0036 144.8123
L31.0640 144.6913
" />
<path d="M31.0640 144.6913
L31.1245 144.6308
" />
<path d="M31.1245 144.6308
L31.2455 144.5704
" />
<path d="M31.2455 144.5704
L31.4874 144.5704
" />
<path d="M31.4874 144.5704
L31.6083 144.6308
" />
<path d="M31.9107 145.5380
L32.8783 145.5380
" />
<path d="M33.1202 145.3566
L33.2411 145.4170
" />
<path d="M33.2411 145.4170
L33.4830 145.4170
" />
<path d="M33.4830 145.4170
L33.6040 145.3566
" />
<path d="M33.6040 145.3566
L33.6644 145.2356
" />
<path d="M33.6644 145.2356
L33.6644 145.1751
" />
<path d="M33.6644 145.1751
L33.6040 145.0542
" />
<path d="M33.6040 145.0542
L33.4830 144.9937
" />
<path d="M33.4830 144.9937
L33.3016 144.9937
" />
<path d="M33.3016 144.9937
L33.1806 144.9332
" />
<path d="M33.1806 144.9332
L33.1202 144.8123
" />
<path d="M33.1202 144.8123
L33.1202 144.7518
" />
<path d="M33.1202 144.7518
L33.1806 144.6308
" />
<path d="M33.1806 144.6308
L33.3016 144.5704
" />
<path d="M33.3016 144.5704
L33.4830 144.5704
" />
<path d="M33.4830 144.5704
L33.6040 144.6308
" />
<path d="M34.7530 145.3566
L34.6321 145.4170
" />
<path d="M34.6321 145.4170
L34.3902 145.4170
" />
<path d="M34.3902 145.4170
L34.2692 145.3566
" />
<path d="M34.2692 145.3566
L34.2087 145.2961
" />
<path d="M34.2087 145.2961
L34.1483 145.1751
" />
<path d="M34.1483 145.1751
L34.1483 144.8123
" />
<path d="M34.1483 144.8123
L34.2087 144.6913
" />
<path d="M34.2087 144.6913
L34.2692 144.6308
" />
<path d="M34.2692 144.6308
L34.3902 144.5704
" />
<path d="M34.3902 144.5704
L34.6321 144.5704
" />
<path d="M34.6321 144.5704
L34.7530 144.6308
" />
<path d="M35.2973 145.4170
L35.2973 144.1470
" />
<path d="M35.8416 145.4170
L35.8416 144.7518
" />
<path d="M35.8416 144.7518
L35.7811 144.6308
" />
<path d="M35.7811 144.6308
L35.6602 144.5704
" />
<path d="M35.6602 144.5704
L35.4788 144.5704
" />
<path d="M35.4788 144.5704
L35.3578 144.6308
" />
<path d="M35.3578 144.6308
L35.2973 144.6913
" />
</g></g>
<g style="fill:none; 
stroke:#840000; stroke-width:0.1524; stroke-opacity:1; 
stroke-linecap:round; stroke-linejoin:round;">
<rect x="16.510000" y="151.130000" width="129.540000" height="128.270000" rx="0.000000" />
</g>
<g style="fill:none; 
stroke:#006464; stroke-width:0.1524; stroke-opacity:1; 
stroke-linecap:round; stroke-linejoin:round;">
<text x="16.5100" y="150.4184"
textLength="8.7304" font-size="1.6933" lengthAdjust="spacingAndGlyphs"
text-anchor="start" opacity="0" stroke-opacity="0">8x8 View</text>
<g class="stroked-text"><desc>8x8 View</desc>
<path d="M17.0940 149.5292
L16.9730 149.4687
" />
<path d="M16.9730 149.4687
L16.9125 149.4083
" />
<path d="M16.9125 149.4083
L16.8521 149.2873
" />
<path d="M16.8521 149.2873
L16.8521 149.2268
" />
<path d="M16.8521 149.2268
L16.9125 149.1059
" />
<path d="M16.9125 149.1059
L16.9730 149.0454
" />
<path d="M16.9730 149.0454
L17.0940 148.9849
" />
<path d="M17.0940 148.9849
L17.3359 148.9849
" />
<path d="M17.3359 148.9849
L17.4568 149.0454
" />
<path d="M17.4568 149.0454
L17.5173 149.1059
" />
<path d="M17.5173 149.1059
L17.5778 149.2268
" />
<path d="M17.5778 149.2268
L17.5778 149.2873
" />
<path d="M17.5778 149.2873
L17.5173 149.4083
" />
<path d="M17.5173 149.4083
L17.4568 149.4687
" />
<path d="M17.4568 149.4687
L17.3359 149.5292
" />
<path d="M17.3359 149.5292
L17.0940 149.5292
" />
<path d="M17.0940 149.5292
L16.9730 149.5897
" />
<path d="M16.9730 149.5897
L16.9125 149.6502
" />
<path d="M16.9125 149.6502
L16.8521 149.7711
" />
<path d="M16.8521 149.7711
L16.8521 150.0130
" />
<path d="M16.8521 150.0130
L16.9125 150.1340
" />
<path d="M16.9125 150.1340
L16.9730 150.1945
" />
<path d="M16.9730 150.1945
L17.0940 150.2549
" />
<path d="M17.0940 150.2549
L17.3359 150.2549
" />
<path d="M17.3359 150.2549
L17.4568 150.1945
" />
<path d="M17.4568 150.1945
L17.5173 150.1340
" />
<path d="M17.5173 150.1340
L17.5778 150.0130
" />
<path d="M17.5778 150.0130
L17.5778 149.7711
" />
<path d="M17.5778 149.7711
L17.5173 149.6502
" />
<path d="M17.5173 149.6502
L17.4568 149.5897
" />
<path d="M17.4568 149.5897
L17.3359 149.5292
" />
<path d="M18.0011 150.2549
L18.6663 149.4083
" />
<path d="M18.0011 149.4083
L18.6663 150.2549
" />
<path d="M19.3316 149.5292
L19.2106 149.4687
" />
<path d="M19.2106 149.4687
L19.1501 149.4083
" />
<path d="M19.1501 149.4083
L19.0897 149.2873
" />
<path d="M19.0897 149.2873
L19.0897 149.2268
" />
<path d="M19.0897 149.2268
L19.1501 149.1059
" />
<path d="M19.1501 149.1059
L19.2106 149.0454
" />
<path d="M19.2106 149.0454
L19.3316 148.9849
" />
<path d="M19.3316 148.9849
L19.5735 148.9849
" />
<path d="M19.5735 148.9849
L19.6944 149.0454
" />
<path d="M19.6944 149.0454
L19.7549 149.1059
" />
<path d="M19.7549 149.1059
L19.8154 149.2268
" />
<path d="M19.8154 149.2268
L19.8154 149.2873
" />
<path d="M19.8154 149.2873
L19.7549 149.4083
" />
<path d="M19.7549 149.4083
L19.6944 149.4687
" />
<path d="M19.6944 149.4687
L19.5735 149.5292
" />
<path d="M19.5735 149.5292
L19.3316 149.5292
" />
<path d="M19.3316 149.5292
L19.2106 149.5897
" />
<path d="M19.2106 149.5897
L19.1501 149.6502
" />
<path d="M19.1501 149.6502
L19.0897 149.7711
" />
<path d="M19.0897 149.7711
L19.0897 150.0130
" />
<path d="M19.0897 150.0130
L19.1501 150.1340
" />
<path d="M19.1501 150.1340
L19.2106 150.1945
" />
<path d="M19.2106 150.1945
L19.3316 150.2549
" />
<path d="M19.3316 150.2549
L19.5735 150.2549
" />
<path d="M19.5735 150.2549
L19.6944 150.1945
" />
<path d="M19.6944 150.1945
L19.7549 150.1340
" />
<path d="M19.7549 150.1340
L19.8154 150.0130
" />
<path d="M19.8154 150.0130
L19.8154 149.7711
" />
<path d="M19.8154 149.7711
L19.7549 149.6502
" />
<path d="M19.7549 149.6502
L19.6944 149.5897
" />
<path d="M19.6944 149.5897
L19.5735 149.5292
" />
<path d="M21.1458 148.9849
L21.5691 150.2549
" />
<path d="M21.5691 150.2549
L21.9925 148.9849
" />
<path d="M22.4158 150.2549
L22.4158 149.4083
" />
<path d="M22.4158 148.9849
L22.3554 149.0454
" />
<path d="M22.3554 149.0454
L22.4158 149.1059
" />
<path d="M22.4158 149.1059
L22.4763 149.0454
" />
<path d="M22.4763 149.0454
L22.4158 148.9849
" />
<path d="M22.4158 148.9849
L22.4158 149.1059
" />
<path d="M23.5044 150.1945
L23.3835 150.2549
" />
<path d="M23.3835 150.2549
L23.1416 150.2549
" />
<path d="M23.1416 150.2549
L23.0206 150.1945
" />
<path d="M23.0206 150.1945
L22.9602 150.0735
" />
<path d="M22.9602 150.0735
L22.9602 149.5897
" />
<path d="M22.9602 149.5897
L23.0206 149.4687
" />
<path d="M23.0206 149.4687
L23.1416 149.4083
" />
<path d="M23.1416 149.4083
L23.3835 149.4083
" />
<path d="M23.3835 149.4083
L23.5044 149.4687
" />
<path d="M23.5044 149.4687
L23.5649 149.5897
" />
<path d="M23.5649 149.5897
L23.5649 149.7106
" />
<path d="M23.5649 149.7106
L22.9602 149.8316
" />
<path d="M23.9883 149.4083
L24.2302 150.2549
" />
<path d="M24.2302 150.2549
L24.4721 149.6502
" />
<path d="M24.4721 149.6502
L24.7140 150.2549
" />
<path d="M24.7140 150.2549
L24.9559 149.4083
" />
</g></g>
<g style="fill:none; 
stroke:#725600; stroke-width:0.1524; stroke-opacity:1; 
stroke-linecap:round; stroke-linejoin:round;">
<text x="16.5100" y="281.2546"
textLength="18.5275" font-size="1.6933" lengthAdjust="spacingAndGlyphs"
text-anchor="start" opacity="0" stroke-opacity="0">File: 8x8.kicad_sch</text>
<g class="stroked-text"><desc>File: 8x8.kicad_sch</desc>
<path d="M17.3359 280.6418
L16.9125 280.6418
" />
<path d="M16.9125 281.3070
L16.9125 280.0370
" />
<path d="M16.9125 280.0370
L17.5173 280.0370
" />
<path d="M18.0011 281.3070
L18.0011 280.4604
" />
<path d="M18.0011 280.0370
L17.9407 280.0975
" />
<path d="M17.9407 280.0975
L18.0011 280.1580
" />
<path d="M18.0011 280.1580
L18.0616 280.0975
" />
<path d="M18.0616 280.0975
L18.0011 280.0370
" />
<path d="M18.0011 280.0370
L18.0011 280.1580
" />
<path d="M18.7874 281.3070
L18.6664 281.2466
" />
<path d="M18.6664 281.2466
L18.6059 281.1256
" />
<path d="M18.6059 281.1256
L18.6059 280.0370
" />
<path d="M19.7549 281.2466
L19.6340 281.3070
" />
<path d="M19.6340 281.3070
L19.3921 281.3070
" />
<path d="M19.3921 281.3070
L19.2711 281.2466
" />
<path d="M19.2711 281.2466
L19.2107 281.1256
" />
<path d="M19.2107 281.1256
L19.2107 280.6418
" />
<path d="M19.2107 280.6418
L19.2711 280.5208
" />
<path d="M19.2711 280.5208
L19.3921 280.4604
" />
<path d="M19.3921 280.4604
L19.6340 280.4604
" />
<path d="M19.6340 280.4604
L19.7549 280.5208
" />
<path d="M19.7549 280.5208
L19.8154 280.6418
" />
<path d="M19.8154 280.6418
L19.8154 280.7627
" />
<path d="M19.8154 280.7627
L19.2107 280.8837
" />
<path d="M20.3597 281.1861
L20.4202 281.2466
" />
<path d="M20.4202 281.2466
L20.3597 281.3070
" />
<path d="M20.3597 281.3070
L20.2993 281.2466
" />
<path d="M20.2993 281.2466
L20.3597 281.1861
" />
<path d="M20.3597 281.1861
L20.3597 281.3070
" />
<path d="M20.3597 280.5208
L20.4202 280.5813
" />
<path d="M20.4202 280.5813
L20.3597 280.6418
" />
<path d="M20.3597 280.6418
L20.2993 280.5813
" />
<path d="M20.2993 280.5813
L20.3597 280.5208
" />
<path d="M20.3597 280.5208
L20.3597 280.6418
" />
<path d="M22.1136 280.5813
L21.9926 280.5208
" />
<path d="M21.9926 280.5208
L21.9321 280.4604
" />
<path d="M21.9321 280.4604
L21.8717 280.3394
" />
<path d="M21.8717 280.3394
L21.8717 280.2789
" />
<path d="M21.8717 280.2789
L21.9321 280.1580
" />
<path d="M21.9321 280.1580
L21.9926 280.0975
" />
<path d="M21.9926 280.0975
L22.1136 280.0370
" />
<path d="M22.1136 280.0370
L22.3555 280.0370
" />
<path d="M22.3555 280.0370
L22.4764 280.0975
" />
<path d="M22.4764 280.0975
L22.5369 280.1580
" />
<path d="M22.5369 280.1580
L22.5974 280.2789
" />
<path d="M22.5974 280.2789
L22.5974 280.3394
" />
<path d="M22.5974 280.3394
L22.5369 280.4604
" />
<path d="M22.5369 280.4604
L22.4764 280.5208
" />
<path d="M22.4764 280.5208
L22.3555 280.5813
" />
<path d="M22.3555 280.5813
L22.1136 280.5813
" />
<path d="M22.1136 280.5813
L21.9926 280.6418
" />
<path d="M21.9926 280.6418
L21.9321 280.7023
" />
<path d="M21.9321 280.7023
L21.8717 280.8232
" />
<path d="M21.8717 280.8232
L21.8717 281.0651
" />
<path d="M21.8717 281.0651
L21.9321 281.1861
" />
<path d="M21.9321 281.1861
L21.9926 281.2466
" />
<path d="M21.9926 281.2466
L22.1136 281.3070
" />
<path d="M22.1136 281.3070
L22.3555 281.3070
" />
<path d="M22.3555 281.3070
L22.4764 281.2466
" />
<path d="M22.4764 281.2466
L22.5369 281.1861
" />
<path d="M22.5369 281.1861
L22.5974 281.0651
" />
<path d="M22.5974 281.0651
L22.5974 280.8232
" />
<path d="M22.5974 280.8232
L22.5369 280.7023
" />
<path d="M22.5369 280.7023
L22.4764 280.6418
" />
<path d="M22.4764 280.6418
L22.3555 280.5813
" />
<path d="M23.0207 281.3070
L23.6859 280.4604
" />
<path d="M23.0207 280.4604
L23.6859 281.3070
" />
<path d="M24.3512 280.5813
L24.2302 280.5208
" />
<path d="M24.2302 280.5208
L24.1697 280.4604
" />
<path d="M24.1697 280.4604
L24.1093 280.3394
" />
<path d="M24.1093 280.3394
L24.1093 280.2789
" />
<path d="M24.1093 280.2789
L24.1697 280.1580
" />
<path d="M24.1697 280.1580
L24.2302 280.0975
" />
<path d="M24.2302 280.0975
L24.3512 280.0370
" />
<path d="M24.3512 280.0370
L24.5931 280.0370
" />
<path d="M24.5931 280.0370
L24.7140 280.0975
" />
<path d="M24.7140 280.0975
L24.7745 280.1580
" />
<path d="M24.7745 280.1580
L24.8350 280.2789
" />
<path d="M24.8350 280.2789
L24.8350 280.3394
" />
<path d="M24.8350 280.3394
L24.7745 280.4604
" />
<path d="M24.7745 280.4604
L24.7140 280.5208
" />
<path d="M24.7140 280.5208
L24.5931 280.5813
" />
<path d="M24.5931 280.5813
L24.3512 280.5813
" />
<path d="M24.3512 280.5813
L24.2302 280.6418
" />
<path d="M24.2302 280.6418
L24.1697 280.7023
" />
<path d="M24.1697 280.7023
L24.1093 280.8232
" />
<path d="M24.1093 280.8232
L24.1093 281.0651
" />
<path d="M24.1093 281.0651
L24.1697 281.1861
" />
<path d="M24.1697 281.1861
L24.2302 281.2466
" />
<path d="M24.2302 281.2466
L24.3512 281.3070
" />
<path d="M24.3512 281.3070
L24.5931 281.3070
" />
<path d="M24.5931 281.3070
L24.7140 281.2466
" />
<path d="M24.7140 281.2466
L24.7745 281.1861
" />
<path d="M24.7745 281.1861
L24.8350 281.0651
" />
<path d="M24.8350 281.0651
L24.8350 280.8232
" />
<path d="M24.8350 280.8232
L24.7745 280.7023
" />
<path d="M24.7745 280.7023
L24.7140 280.6418
" />
<path d="M24.7140 280.6418
L24.5931 280.5813
" />
<path d="M25.3792 281.1861
L25.4397 281.2466
" />
<path d="M25.4397 281.2466
L25.3792 281.3070
" />
<path d="M25.3792 281.3070
L25.3188 281.2466
" />
<path d="M25.3188 281.2466
L25.3792 281.1861
" />
<path d="M25.3792 281.1861
L25.3792 281.3070
" />
<path d="M25.9840 281.3070
L25.9840 280.0370
" />
<path d="M26.1050 280.8232
L26.4678 281.3070
" />
<path d="M26.4678 280.4604
L25.9840 280.9442
" />
<path d="M27.0121 281.3070
L27.0121 280.4604
" />
<path d="M27.0121 280.0370
L26.9517 280.0975
" />
<path d="M26.9517 280.0975
L27.0121 280.1580
" />
<path d="M27.0121 280.1580
L27.0726 280.0975
" />
<path d="M27.0726 280.0975
L27.0121 280.0370
" />
<path d="M27.0121 280.0370
L27.0121 280.1580
" />
<path d="M28.1612 281.2466
L28.0403 281.3070
" />
<path d="M28.0403 281.3070
L27.7984 281.3070
" />
<path d="M27.7984 281.3070
L27.6774 281.2466
" />
<path d="M27.6774 281.2466
L27.6169 281.1861
" />
<path d="M27.6169 281.1861
L27.5565 281.0651
" />
<path d="M27.5565 281.0651
L27.5565 280.7023
" />
<path d="M27.5565 280.7023
L27.6169 280.5813
" />
<path d="M27.6169 280.5813
L27.6774 280.5208
" />
<path d="M27.6774 280.5208
L27.7984 280.4604
" />
<path d="M27.7984 280.4604
L28.0403 280.4604
" />
<path d="M28.0403 280.4604
L28.1612 280.5208
" />
<path d="M29.2498 281.3070
L29.2498 280.6418
" />
<path d="M29.2498 280.6418
L29.1893 280.5208
" />
<path d="M29.1893 280.5208
L29.0684 280.4604
" />
<path d="M29.0684 280.4604
L28.8265 280.4604
" />
<path d="M28.8265 280.4604
L28.7055 280.5208
" />
<path d="M29.2498 281.2466
L29.1289 281.3070
" />
<path d="M29.1289 281.3070
L28.8265 281.3070
" />
<path d="M28.8265 281.3070
L28.7055 281.2466
" />
<path d="M28.7055 281.2466
L28.6451 281.1256
" />
<path d="M28.6451 281.1256
L28.6451 281.0046
" />
<path d="M28.6451 281.0046
L28.7055 280.8837
" />
<path d="M28.7055 280.8837
L28.8265 280.8232
" />
<path d="M28.8265 280.8232
L29.1289 280.8232
" />
<path d="M29.1289 280.8232
L29.2498 280.7627
" />
<path d="M30.3988 281.3070
L30.3988 280.0370
" />
<path d="M30.3988 281.2466
L30.2779 281.3070
" />
<path d="M30.2779 281.3070
L30.0360 281.3070
" />
<path d="M30.0360 281.3070
L29.9150 281.2466
" />
<path d="M29.9150 281.2466
L29.8545 281.1861
" />
<path d="M29.8545 281.1861
L29.7941 281.0651
" />
<path d="M29.7941 281.0651
L29.7941 280.7023
" />
<path d="M29.7941 280.7023
L29.8545 280.5813
" />
<path d="M29.8545 280.5813
L29.9150 280.5208
" />
<path d="M29.9150 280.5208
L30.0360 280.4604
" />
<path d="M30.0360 280.4604
L30.2779 280.4604
" />
<path d="M30.2779 280.4604
L30.3988 280.5208
" />
<path d="M30.7012 281.4280
L31.6688 281.4280
" />
<path d="M31.9107 281.2466
L32.0316 281.3070
" />
<path d="M32.0316 281.3070
L32.2735 281.3070
" />
<path d="M32.2735 281.3070
L32.3945 281.2466
" />
<path d="M32.3945 281.2466
L32.4549 281.1256
" />
<path d="M32.4549 281.1256
L32.4549 281.0651
" />
<path d="M32.4549 281.0651
L32.3945 280.9442
" />
<path d="M32.3945 280.9442
L32.2735 280.8837
" />
<path d="M32.2735 280.8837
L32.0921 280.8837
" />
<path d="M32.0921 280.8837
L31.9711 280.8232
" />
<path d="M31.9711 280.8232
L31.9107 280.7023
" />
<path d="M31.9107 280.7023
L31.9107 280.6418
" />
<path d="M31.9107 280.6418
L31.9711 280.5208
" />
<path d="M31.9711 280.5208
L32.0921 280.4604
" />
<path d="M32.0921 280.4604
L32.2735 280.4604
" />
<path d="M32.2735 280.4604
L32.3945 280.5208
" />
<path d="M33.5435 281.2466
L33.4226 281.3070
" />
<path d="M33.4226 281.3070
L33.1807 281.3070
" />
<path d="M33.1807 281.3070
L33.0597 281.2466
" />
<path d="M33.0597 281.2466
L32.9992 281.1861
" />
<path d="M32.9992 281.1861
L32.9388 281.0651
" />
<path d="M32.9388 281.0651
L32.9388 280.7023
" />
<path d="M32.9388 280.7023
L32.9992 280.5813
" />
<path d="M32.9992 280.5813
L33.0597 280.5208
" />
<path d="M33.0597 280.5208
L33.1807 280.4604
" />
<path d="M33.1807 280.4604
L33.4226 280.4604
" />
<path d="M33.4226 280.4604
L33.5435 280.5208
" />
<path d="M34.0878 281.3070
L34.0878 280.0370
" />
<path d="M34.6321 281.3070
L34.6321 280.6418
" />
<path d="M34.6321 280.6418
L34.5716 280.5208
" />
<path d="M34.5716 280.5208
L34.4507 280.4604
" />
<path d="M34.4507 280.4604
L34.2693 280.4604
" />
<path d="M34.2693 280.4604
L34.1483 280.5208
" />
<path d="M34.1483 280.5208
L34.0878 280.5813
" />
</g></g> 
</svg>
