#define tamsyn8x16b_width 1792
#define tamsyn8x16b_height 16
static char tamsyn8x16b_bits[] = {
  0x00, 0x00, 0x00, 0x00, 0x00, 0x00, 0x00, 0x00, 0x00, 0x00, 0x00, 0x00, 
  0x00, 0x00, 0x00, 0x00, 0x00, 0x00, 0x00, 0x00, 0x00, 0x00, 0x00, 0x00, 
  0x00, 0x00, 0x00, 0x00, 0x00, 0x00, 0x00, 0x00, 0x00, 0x00, 0x00, 0x00, 
  0x00, 0x00, 0x00, 0x00, 0x00, 0x00, 0x00, 0x00, 0x00, 0x00, 0x00, 0x00, 
  0x00, 0x00, 0x00, 0x00, 0x00, 0x00, 0x00, 0x00, 0x00, 0x00, 0x00, 0x00, 
  0x00, 0x00, 0x00, 0x00, 0x00, 0x00, 0x00, 0x00, 0x00, 0x00, 0x00, 0x00, 
  0x00, 0x00, 0x00, 0x00, 0x00, 0x00, 0x00, 0x00, 0x00, 0x00, 0x00, 0x00, 
  0x00, 0x00, 0x00, 0x00, 0x00, 0x00, 0x00, 0x00, 0x00, 0x00, 0x00, 0x00, 
  0x00, 0x00, 0x00, 0x00, 0x00, 0x00, 0x00, 0x00, 0x00, 0x00, 0x00, 0x00, 
  0x00, 0x00, 0x00, 0x00, 0x00, 0x00, 0x00, 0x00, 0x00, 0x00, 0x00, 0x00, 
  0x00, 0x00, 0x00, 0x00, 0x00, 0x00, 0x00, 0x00, 0x00, 0x00, 0x00, 0x00, 
  0x00, 0x00, 0x00, 0x00, 0x00, 0x00, 0x00, 0x00, 0x00, 0x00, 0x00, 0x00, 
  0x00, 0x00, 0x00, 0x00, 0x00, 0x00, 0x00, 0x00, 0x00, 0x00, 0x00, 0x00, 
  0x00, 0x00, 0x00, 0x00, 0x00, 0x00, 0x00, 0x00, 0x00, 0x00, 0x00, 0x00, 
  0x00, 0x00, 0x00, 0x00, 0x00, 0x00, 0x00, 0x00, 0x00, 0x00, 0x00, 0x00, 
  0x00, 0x00, 0x00, 0x00, 0x00, 0x00, 0x00, 0x00, 0x00, 0x00, 0x00, 0x00, 
  0x00, 0x00, 0x00, 0x00, 0x00, 0x00, 0x00, 0x00, 0x00, 0x00, 0x00, 0x00, 
  0x00, 0x00, 0x00, 0x00, 0x00, 0x00, 0x00, 0x00, 0x00, 0x00, 0x00, 0x00, 
  0x00, 0x00, 0x00, 0x00, 0x00, 0x00, 0x00, 0x00, 0x00, 0x00, 0x00, 0x00, 
  0x00, 0x00, 0x00, 0x00, 0x00, 0x00, 0x00, 0x00, 0x00, 0x00, 0x00, 0x00, 
  0x00, 0x00, 0x00, 0x00, 0x00, 0x00, 0x00, 0x00, 0x00, 0x00, 0x00, 0x00, 
  0x00, 0x00, 0x00, 0x00, 0x00, 0x00, 0x00, 0x00, 0x00, 0x00, 0x00, 0x00, 
  0x00, 0x00, 0x00, 0x00, 0x00, 0x00, 0x00, 0x00, 0x00, 0x00, 0x00, 0x00, 
  0x00, 0x00, 0x00, 0x00, 0x00, 0x00, 0x00, 0x00, 0x00, 0x00, 0x00, 0x00, 
  0x00, 0x00, 0x00, 0x00, 0x00, 0x00, 0x00, 0x00, 0x00, 0x00, 0x00, 0x00, 
  0x00, 0x00, 0x00, 0x00, 0x00, 0x00, 0x00, 0x00, 0x00, 0x00, 0x00, 0x00, 
  0x00, 0x00, 0x00, 0x00, 0x00, 0x00, 0x00, 0x00, 0x00, 0x00, 0x00, 0x00, 
  0x00, 0x00, 0x00, 0x00, 0x00, 0x00, 0x00, 0x00, 0x00, 0x00, 0x00, 0x00, 
  0x00, 0x00, 0x00, 0x00, 0x00, 0x00, 0x00, 0x00, 0x00, 0x00, 0x00, 0x00, 
  0x00, 0x00, 0x00, 0x00, 0x00, 0x00, 0x00, 0x00, 0x00, 0x00, 0x00, 0x00, 
  0x00, 0x00, 0x00, 0x00, 0x00, 0x00, 0x00, 0x00, 0x00, 0x00, 0x00, 0x00, 
  0x00, 0x00, 0x00, 0x00, 0x00, 0x00, 0x00, 0x00, 0x00, 0x00, 0x00, 0x00, 
  0x06, 0x18, 0x0C, 0x26, 0x33, 0x1E, 0x00, 0x00, 0x06, 0x18, 0x0C, 0x33, 
  0x06, 0x18, 0x0C, 0x33, 0x00, 0x46, 0x06, 0x30, 0x0C, 0x26, 0x33, 0x00, 
  0x00, 0x06, 0x18, 0x0C, 0x33, 0x18, 0x00, 0x00, 0x00, 0x00, 0x00, 0x00, 
  0x00, 0x1C, 0x00, 0x00, 0x00, 0x00, 0x00, 0x00, 0x00, 0x00, 0x00, 0x00, 
  0x00, 0x00, 0x00, 0x00, 0x00, 0x00, 0x00, 0x00, 0x00, 0x00, 0x00, 0x00, 
  0x00, 0x00, 0x00, 0x00, 0x00, 0x00, 0x1B, 0x00, 0x00, 0x00, 0x00, 0x0C, 
  0x00, 0x00, 0x00, 0x00, 0x00, 0x00, 0x00, 0x00, 0x00, 0x00, 0x00, 0x00, 
  0x00, 0x00, 0x00, 0x00, 0x00, 0x00, 0x00, 0x00, 0x00, 0x00, 0x00, 0x00, 
  0x00, 0x00, 0x00, 0x00, 0x00, 0x00, 0x00, 0x00, 0x00, 0x00, 0x00, 0x00, 
  0x00, 0x00, 0x00, 0x00, 0x00, 0x00, 0x00, 0x00, 0x00, 0x00, 0x00, 0x00, 
  0x00, 0x00, 0x00, 0x00, 0x00, 0x00, 0x00, 0x00, 0x06, 0x00, 0x00, 0x00, 
  0x00, 0x00, 0x00, 0x00, 0x00, 0x00, 0x00, 0x00, 0x00, 0x00, 0x00, 0x00, 
  0x00, 0x00, 0x00, 0x00, 0x00, 0x00, 0x00, 0x00, 0x00, 0x00, 0x00, 0x38, 
  0x0C, 0x07, 0x00, 0x00, 0x00, 0x00, 0x00, 0x00, 0x00, 0x00, 0x00, 0x00, 
  0x00, 0x00, 0x00, 0x00, 0x00, 0x00, 0x00, 0x00, 0x00, 0x00, 0x00, 0x00, 
  0x00, 0x00, 0x00, 0x00, 0x00, 0x00, 0x00, 0x00, 0x00, 0x00, 0x00, 0x00, 
  0x00, 0x00, 0x00, 0x00, 0x00, 0x00, 0x00, 0x00, 0x00, 0x00, 0x00, 0x00, 
  0x00, 0x00, 0x00, 0x00, 0x00, 0x00, 0x00, 0x00, 0x00, 0x00, 0x00, 0x00, 
  0x00, 0x00, 0x00, 0x00, 0x00, 0x00, 0x00, 0x00, 0x0C, 0x0C, 0x1E, 0x3F, 
  0x33, 0x33, 0x00, 0x00, 0x0C, 0x0C, 0x1E, 0x33, 0x0C, 0x0C, 0x1E, 0x33, 
  0x00, 0x7F, 0x0C, 0x18, 0x1E, 0x3F, 0x33, 0x00, 0x00, 0x0C, 0x0C, 0x1E, 
  0x33, 0x0C, 0x00, 0x00, 0x00, 0x00, 0x0C, 0x26, 0x00, 0x36, 0x00, 0x00, 
  0x00, 0x00, 0x0C, 0x00, 0x00, 0x00, 0x0C, 0x00, 0x26, 0x26, 0x00, 0x00, 
  0x0C, 0x26, 0x00, 0x00, 0x00, 0x00, 0x00, 0x0C, 0x00, 0x00, 0x00, 0x00, 
  0x00, 0x0C, 0x1B, 0x00, 0x0C, 0x00, 0x0E, 0x0C, 0x18, 0x06, 0x00, 0x00, 
  0x00, 0x00, 0x00, 0x60, 0x00, 0x00, 0x00, 0x00, 0x00, 0x00, 0x00, 0x00, 
  0x00, 0x00, 0x00, 0x00, 0x00, 0x00, 0x00, 0x1E, 0x3E, 0x00, 0x00, 0x00, 
  0x00, 0x00, 0x00, 0x00, 0x00, 0x00, 0x00, 0x00, 0x00, 0x00, 0x00, 0x00, 
  0x00, 0x00, 0x00, 0x00, 0x00, 0x00, 0x00, 0x00, 0x00, 0x00, 0x00, 0x3E, 
  0x03, 0x1F, 0x0C, 0x00, 0x0C, 0x00, 0x03, 0x00, 0x30, 0x00, 0x3C, 0x00, 
  0x03, 0x0C, 0x18, 0x03, 0x0F, 0x00, 0x00, 0x00, 0x00, 0x00, 0x00, 0x00, 
  0x00, 0x00, 0x00, 0x00, 0x00, 0x00, 0x00, 0x0C, 0x0C, 0x0C, 0x66, 0x00, 
  0x00, 0x00, 0x00, 0x00, 0x00, 0x00, 0x00, 0x00, 0x00, 0x00, 0x00, 0x00, 
  0x00, 0x00, 0x00, 0x00, 0x00, 0x00, 0x00, 0x00, 0x00, 0x00, 0x00, 0x00, 
  0x00, 0x00, 0x00, 0x00, 0x00, 0x00, 0x00, 0x00, 0x00, 0x00, 0x0C, 0x00, 
  0x00, 0x00, 0x00, 0x00, 0x33, 0x00, 0x00, 0x00, 0x00, 0x00, 0x00, 0x00, 
  0x00, 0x00, 0x00, 0x00, 0x18, 0x00, 0x00, 0x00, 0x00, 0x00, 0x00, 0x00, 
  0x00, 0x00, 0x00, 0x00, 0x00, 0x00, 0x33, 0x19, 0x00, 0x33, 0x00, 0x00, 
  0x00, 0x00, 0x33, 0x00, 0x00, 0x00, 0x33, 0x00, 0x00, 0x31, 0x00, 0x00, 
  0x33, 0x19, 0x00, 0x00, 0x30, 0x00, 0x00, 0x33, 0x00, 0x00, 0x00, 0x00, 
  0x06, 0x18, 0x1E, 0x3F, 0x33, 0x36, 0x00, 0x00, 0x06, 0x18, 0x1E, 0x33, 
  0x06, 0x18, 0x1E, 0x33, 0x1C, 0x3F, 0x18, 0x18, 0x1E, 0x3F, 0x33, 0x00, 
  0x00, 0x06, 0x18, 0x1E, 0x33, 0x18, 0x03, 0x33, 0x00, 0x1E, 0x1B, 0x36, 
  0x0C, 0x0E, 0x1B, 0x0C, 0x0C, 0x0C, 0x00, 0x00, 0x00, 0x00, 0x00, 0x60, 
  0x1E, 0x0C, 0x1E, 0x3F, 0x30, 0x3F, 0x0C, 0x3F, 0x1E, 0x1E, 0x00, 0x00, 
  0x30, 0x00, 0x03, 0x31, 0x63, 0x0C, 0x1F, 0x3C, 0x0F, 0x3F, 0x3F, 0x3C, 
  0x33, 0x3F, 0x30, 0x63, 0x03, 0x63, 0x63, 0x1E, 0x1F, 0x1E, 0x1F, 0xBE, 
  0x7F, 0x33, 0x33, 0x63, 0x33, 0x33, 0x3F, 0x06, 0x03, 0x18, 0x1E, 0x00, 
  0x18, 0x00, 0x03, 0x00, 0x30, 0x00, 0x06, 0x00, 0x03, 0x0C, 0x18, 0x03, 
  0x0C, 0x00, 0x00, 0x00, 0x00, 0x00, 0x00, 0x00, 0x06, 0x00, 0x00, 0x00, 
  0x00, 0x00, 0x00, 0x0C, 0x0C, 0x0C, 0x6F, 0x00, 0x00, 0x00, 0x00, 0x00, 
  0x00, 0x00, 0x00, 0x00, 0x00, 0x00, 0x00, 0x00, 0x00, 0x00, 0x00, 0x00, 
  0x00, 0x00, 0x00, 0x00, 0x00, 0x00, 0x00, 0x00, 0x00, 0x00, 0x00, 0x00, 
  0x00, 0x00, 0x00, 0x00, 0x00, 0x00, 0x0C, 0x1C, 0x00, 0x33, 0x0C, 0x00, 
  0x33, 0x1C, 0x00, 0x00, 0x00, 0x00, 0x00, 0x00, 0x1E, 0x00, 0x00, 0x00, 
  0x0C, 0x00, 0x00, 0x00, 0x00, 0x00, 0x00, 0x00, 0x00, 0x00, 0x00, 0x00, 
  0x0C, 0x0C, 0x00, 0x00, 0x0C, 0x1E, 0x7C, 0x3C, 0x3F, 0x3F, 0x00, 0x3F, 
  0x3F, 0x3F, 0x00, 0x3F, 0x1E, 0x00, 0x1E, 0x1E, 0x00, 0x00, 0x1E, 0x00, 
  0x1E, 0x33, 0x33, 0x00, 0x33, 0x33, 0x03, 0x1E, 0x0C, 0x0C, 0x33, 0x19, 
  0x33, 0x1C, 0x00, 0x00, 0x0C, 0x0C, 0x33, 0x33, 0x0C, 0x0C, 0x33, 0x33, 
  0x0F, 0x19, 0x0C, 0x0C, 0x33, 0x19, 0x33, 0x00, 0x00, 0x0C, 0x0C, 0x33, 
  0x33, 0x0C, 0x03, 0x33, 0x00, 0x1E, 0x1B, 0x36, 0x3E, 0x5B, 0x1B, 0x0C, 
  0x0C, 0x0C, 0x00, 0x0C, 0x00, 0x00, 0x00, 0x30, 0x33, 0x0E, 0x33, 0x30, 
  0x38, 0x03, 0x06, 0x30, 0x33, 0x33, 0x00, 0x00, 0x18, 0x00, 0x06, 0x30, 
  0x63, 0x1E, 0x33, 0x06, 0x1B, 0x03, 0x03, 0x06, 0x33, 0x0C, 0x30, 0x33, 
  0x03, 0x77, 0x67, 0x33, 0x33, 0x33, 0x33, 0x03, 0x0C, 0x33, 0x33, 0x63, 
  0x33, 0x33, 0x18, 0x06, 0x06, 0x18, 0x33, 0x00, 0x30, 0x00, 0x03, 0x00, 
  0x30, 0x00, 0x06, 0x00, 0x03, 0x00, 0x00, 0x03, 0x0C, 0x00, 0x00, 0x00, 
  0x00, 0x00, 0x00, 0x00, 0x06, 0x00, 0x00, 0x00, 0x00, 0x00, 0x00, 0x0C, 
  0x0C, 0x0C, 0x7B, 0x3F, 0x3F, 0x3F, 0x3F, 0x3F, 0x3F, 0x3F, 0x3F, 0x3F, 
  0x3F, 0x3F, 0x3F, 0x3F, 0x3F, 0x3F, 0x3F, 0x3F, 0x3F, 0x3F, 0x3F, 0x3F, 
  0x3F, 0x3F, 0x3F, 0x3F, 0x3F, 0x3F, 0x3F, 0x3F, 0x3F, 0x3F, 0x3F, 0x3F, 
  0x00, 0x00, 0x1E, 0x36, 0x63, 0x33, 0x0C, 0x3F, 0x00, 0x22, 0x3F, 0x00, 
  0x3F, 0x00, 0x3F, 0x3F, 0x33, 0x3F, 0x3F, 0x3F, 0x00, 0x3F, 0x3F, 0x3F, 
  0x00, 0x3F, 0x3F, 0x00, 0x3F, 0x3F, 0x3F, 0x00, 0x1E, 0x1E, 0x0C, 0x0C, 
  0x1E, 0x0C, 0x1E, 0x06, 0x03, 0x03, 0x3F, 0x03, 0x0C, 0x0C, 0x3F, 0x0C, 
  0x36, 0x63, 0x33, 0x33, 0x1E, 0x1E, 0x33, 0x00, 0x33, 0x33, 0x33, 0x33, 
  0x33, 0x33, 0x03, 0x33, 0x00, 0x00, 0x00, 0x00, 0x00, 0x00, 0x00, 0x00, 
  0x00, 0x00, 0x00, 0x00, 0x00, 0x00, 0x00, 0x00, 0x18, 0x00, 0x00, 0x00, 
  0x00, 0x00, 0x00, 0x0C, 0x30, 0x00, 0x00, 0x00, 0x00, 0x00, 0x03, 0x00, 
  0x00, 0x1E, 0x00, 0x7F, 0x03, 0x3B, 0x1B, 0x00, 0x06, 0x18, 0x36, 0x0C, 
  0x00, 0x00, 0x00, 0x30, 0x3B, 0x0F, 0x30, 0x18, 0x3C, 0x03, 0x03, 0x18, 
  0x33, 0x33, 0x1C, 0x1C, 0x0C, 0x00, 0x0C, 0x30, 0x7B, 0x33, 0x33, 0x03, 
  0x33, 0x03, 0x03, 0x03, 0x33, 0x0C, 0x30, 0x1B, 0x03, 0x7F, 0x6F, 0x33, 
  0x33, 0x33, 0x33, 0x03, 0x0C, 0x33, 0x33, 0x63, 0x33, 0x33, 0x18, 0x06, 
  0x06, 0x18, 0x00, 0x00, 0x00, 0x1E, 0x1F, 0x3E, 0x3E, 0x1E, 0x3F, 0x3E, 
  0x1F, 0x0F, 0x1E, 0x33, 0x0C, 0x7F, 0x1F, 0x1E, 0x1F, 0x3E, 0x3B, 0x3E, 
  0x3F, 0x33, 0x33, 0x63, 0x33, 0x33, 0x3F, 0x0C, 0x0C, 0x0C, 0x33, 0x21, 
  0x21, 0x21, 0x21, 0x21, 0x21, 0x21, 0x21, 0x21, 0x21, 0x21, 0x21, 0x21, 
  0x21, 0x21, 0x21, 0x21, 0x21, 0x21, 0x21, 0x21, 0x21, 0x21, 0x21, 0x21, 
  0x21, 0x21, 0x21, 0x21, 0x21, 0x21, 0x21, 0x21, 0x00, 0x0C, 0x33, 0x06, 
  0x3E, 0x1E, 0x0C, 0x21, 0x00, 0x41, 0x21, 0x00, 0x21, 0x00, 0x21, 0x21, 
  0x33, 0x21, 0x21, 0x21, 0x00, 0x21, 0x21, 0x21, 0x00, 0x21, 0x21, 0x00, 
  0x21, 0x21, 0x21, 0x0C, 0x33, 0x33, 0x1E, 0x1E, 0x33, 0x1E, 0x1B, 0x03, 
  0x03, 0x03, 0x03, 0x03, 0x0C, 0x0C, 0x0C, 0x0C, 0x66, 0x67, 0x33, 0x33, 
  0x33, 0x33, 0x33, 0x00, 0x33, 0x33, 0x33, 0x33, 0x33, 0x33, 0x1F, 0x33, 
  0x1E, 0x1E, 0x1E, 0x1E, 0x1E, 0x1E, 0x37, 0x3E, 0x1E, 0x1E, 0x1E, 0x1E, 
  0x0F, 0x0F, 0x0F, 0x0F, 0x3E, 0x1F, 0x1E, 0x1E, 0x1E, 0x1E, 0x1E, 0x0C, 
  0x1E, 0x33, 0x33, 0x33, 0x33, 0x33, 0x1F, 0x33, 0x00, 0x0C, 0x00, 0x36, 
  0x03, 0x1E, 0x0E, 0x00, 0x06, 0x18, 0x1C, 0x0C, 0x00, 0x00, 0x00, 0x18, 
  0x3B, 0x0C, 0x30, 0x1C, 0x36, 0x1F, 0x1F, 0x18, 0x33, 0x33, 0x1C, 0x1C, 
  0x06, 0x3F, 0x18, 0x18, 0x6B, 0x33, 0x33, 0x03, 0x33, 0x03, 0x03, 0x03, 
  0x33, 0x0C, 0x30, 0x0F, 0x03, 0x6B, 0x7B, 0x33, 0x33, 0x33, 0x33, 0x07, 
  0x0C, 0x33, 0x33, 0x63, 0x1E, 0x1E, 0x0C, 0x06, 0x0C, 0x18, 0x00, 0x00, 
  0x00, 0x30, 0x33, 0x03, 0x33, 0x33, 0x06, 0x33, 0x33, 0x0C, 0x18, 0x1B, 
  0x0C, 0x6B, 0x33, 0x33, 0x33, 0x33, 0x07, 0x03, 0x06, 0x33, 0x33, 0x63, 
  0x33, 0x33, 0x30, 0x0C, 0x0C, 0x0C, 0x00, 0x21, 0x21, 0x21, 0x21, 0x21, 
  0x21, 0x21, 0x21, 0x21, 0x21, 0x21, 0x21, 0x21, 0x21, 0x21, 0x21, 0x21, 
  0x21, 0x21, 0x21, 0x21, 0x21, 0x21, 0x21, 0x21, 0x21, 0x21, 0x21, 0x21, 
  0x21, 0x21, 0x21, 0x21, 0x00, 0x0C, 0x03, 0x06, 0x36, 0x0C, 0x0C, 0x21, 
  0x00, 0x59, 0x21, 0x00, 0x21, 0x00, 0x21, 0x21, 0x33, 0x21, 0x21, 0x21, 
  0x00, 0x21, 0x21, 0x21, 0x00, 0x21, 0x21, 0x00, 0x21, 0x21, 0x21, 0x0C, 
  0x33, 0x33, 0x33, 0x33, 0x33, 0x33, 0x1B, 0x03, 0x03, 0x03, 0x03, 0x03, 
  0x0C, 0x0C, 0x0C, 0x0C, 0x66, 0x6F, 0x33, 0x33, 0x33, 0x33, 0x33, 0x33, 
  0x3B, 0x33, 0x33, 0x33, 0x33, 0x1E, 0x33, 0x1B, 0x30, 0x30, 0x30, 0x30, 
  0x30, 0x30, 0x6C, 0x03, 0x33, 0x33, 0x33, 0x33, 0x0C, 0x0C, 0x0C, 0x0C, 
  0x33, 0x33, 0x33, 0x33, 0x33, 0x33, 0x33, 0x00, 0x33, 0x33, 0x33, 0x33, 
  0x33, 0x33, 0x33, 0x33, 0x00, 0x0C, 0x00, 0x36, 0x1E, 0x08, 0x4E, 0x00, 
  0x06, 0x18, 0xFF, 0x7F, 0x00, 0x3F, 0x00, 0x18, 0x33, 0x0C, 0x18, 0x30, 
  0x33, 0x30, 0x33, 0x0C, 0x1E, 0x33, 0x00, 0x00, 0x03, 0x00, 0x30, 0x0C, 
  0x6B, 0x33, 0x1F, 0x03, 0x33, 0x1F, 0x1F, 0x03, 0x3F, 0x0C, 0x30, 0x07, 
  0x03, 0x63, 0x73, 0x33, 0x1F, 0x33, 0x1F, 0x1E, 0x0C, 0x33, 0x33, 0x63, 
  0x0C, 0x0C, 0x0C, 0x06, 0x0C, 0x18, 0x00, 0x00, 0x00, 0x3E, 0x33, 0x03, 
  0x33, 0x33, 0x06, 0x33, 0x33, 0x0C, 0x18, 0x0F, 0x0C, 0x6B, 0x33, 0x33, 
  0x33, 0x33, 0x03, 0x07, 0x06, 0x33, 0x33, 0x63, 0x1E, 0x33, 0x98, 0x07, 
  0x0C, 0x78, 0x00, 0x21, 0x21, 0x21, 0x21, 0x21, 0x21, 0x21, 0x21, 0x21, 
  0x21, 0x21, 0x21, 0x21, 0x21, 0x21, 0x21, 0x21, 0x21, 0x21, 0x21, 0x21, 
  0x21, 0x21, 0x21, 0x21, 0x21, 0x21, 0x21, 0x21, 0x21, 0x21, 0x21, 0x21, 
  0x00, 0x00, 0x03, 0x1F, 0x63, 0x3F, 0x00, 0x21, 0x00, 0x45, 0x21, 0x6C, 
  0x21, 0x3F, 0x21, 0x21, 0x1E, 0x21, 0x21, 0x21, 0x00, 0x21, 0x21, 0x21, 
  0x00, 0x21, 0x21, 0x1B, 0x21, 0x21, 0x21, 0x00, 0x33, 0x33, 0x33, 0x33, 
  0x33, 0x33, 0x7B, 0x03, 0x1F, 0x1F, 0x1F, 0x1F, 0x0C, 0x0C, 0x0C, 0x0C, 
  0x6F, 0x7B, 0x33, 0x33, 0x33, 0x33, 0x33, 0x1E, 0x37, 0x33, 0x33, 0x33, 
  0x33, 0x0C, 0x33, 0x33, 0x3E, 0x3E, 0x3E, 0x3E, 0x3E, 0x3E, 0x6F, 0x03, 
  0x33, 0x33, 0x33, 0x33, 0x0C, 0x0C, 0x0C, 0x0C, 0x33, 0x33, 0x33, 0x33, 
  0x33, 0x33, 0x33, 0x3F, 0x3B, 0x33, 0x33, 0x33, 0x33, 0x33, 0x33, 0x33, 
  0x00, 0x00, 0x00, 0x36, 0x30, 0x3C, 0x5B, 0x00, 0x06, 0x18, 0x1C, 0x0C, 
  0x00, 0x00, 0x00, 0x0C, 0x37, 0x0C, 0x0C, 0x30, 0x7F, 0x30, 0x33, 0x0C, 
  0x33, 0x3E, 0x00, 0x00, 0x06, 0x00, 0x18, 0x00, 0x6B, 0x3F, 0x33, 0x03, 
  0x33, 0x03, 0x03, 0x33, 0x33, 0x0C, 0x30, 0x0F, 0x03, 0x63, 0x63, 0x33, 
  0x03, 0x33, 0x1B, 0x38, 0x0C, 0x33, 0x33, 0x6B, 0x1E, 0x0C, 0x06, 0x06, 
  0x18, 0x18, 0x00, 0x00, 0x00, 0x33, 0x33, 0x03, 0x33, 0x3F, 0x06, 0x33, 
  0x33, 0x0C, 0x18, 0x0F, 0x0C, 0x6B, 0x33, 0x33, 0x33, 0x33, 0x03, 0x1E, 
  0x06, 0x33, 0x33, 0x6B, 0x0C, 0x33, 0x0C, 0x0C, 0x0C, 0x0C, 0x00, 0x21, 
  0x21, 0x21, 0x21, 0x21, 0x21, 0x21, 0x21, 0x21, 0x21, 0x21, 0x21, 0x21, 
  0x21, 0x21, 0x21, 0x21, 0x21, 0x21, 0x21, 0x21, 0x21, 0x21, 0x21, 0x21, 
  0x21, 0x21, 0x21, 0x21, 0x21, 0x21, 0x21, 0x21, 0x00, 0x00, 0x03, 0x06, 
  0x63, 0x0C, 0x00, 0x21, 0x00, 0x45, 0x21, 0x36, 0x21, 0x00, 0x21, 0x21, 
  0x00, 0x21, 0x21, 0x21, 0x00, 0x21, 0x21, 0x21, 0x00, 0x21, 0x21, 0x36, 
  0x21, 0x21, 0x21, 0x00, 0x3F, 0x3F, 0x3F, 0x3F, 0x3F, 0x3F, 0x1F, 0x03, 
  0x03, 0x03, 0x03, 0x03, 0x0C, 0x0C, 0x0C, 0x0C, 0x66, 0x73, 0x33, 0x33, 
  0x33, 0x33, 0x33, 0x0C, 0x33, 0x33, 0x33, 0x33, 0x33, 0x0C, 0x33, 0x33, 
  0x33, 0x33, 0x33, 0x33, 0x33, 0xB3, 0x7D, 0x03, 0x3F, 0x3F, 0x3F, 0x3F, 
  0x0C, 0x0C, 0x0C, 0x0C, 0x33, 0x33, 0x33, 0x33, 0x33, 0x33, 0x33, 0x00, 
  0x37, 0x33, 0x33, 0x33, 0x33, 0x33, 0x33, 0x33, 0x00, 0x00, 0x00, 0x7F, 
  0x30, 0x6E, 0x33, 0x00, 0x06, 0x18, 0x36, 0x0C, 0x00, 0x00, 0x00, 0x0C, 
  0x37, 0x0C, 0x06, 0x30, 0x30, 0x30, 0x33, 0x06, 0x33, 0x30, 0x00, 0x00, 
  0x0C, 0x3F, 0x0C, 0x00, 0x7B, 0x33, 0x33, 0x03, 0x33, 0x03, 0x03, 0x33, 
  0x33, 0x0C, 0x33, 0x1B, 0x03, 0x63, 0x63, 0x33, 0x03, 0x33, 0x33, 0x30, 
  0x0C, 0x33, 0x33, 0x7F, 0x33, 0x0C, 0x06, 0x06, 0x18, 0x18, 0x00, 0x00, 
  0x00, 0x33, 0x33, 0x03, 0x33, 0x03, 0x06, 0x33, 0x33, 0x0C, 0x18, 0x1B, 
  0x0C, 0x6B, 0x33, 0x33, 0x33, 0x33, 0x03, 0x38, 0x06, 0x33, 0x33, 0x6B, 
  0x1E, 0x33, 0x06, 0x0C, 0x0C, 0x0C, 0x00, 0x21, 0x21, 0x21, 0x21, 0x21, 
  0x21, 0x21, 0x21, 0x21, 0x21, 0x21, 0x21, 0x21, 0x21, 0x21, 0x21, 0x21, 
  0x21, 0x21, 0x21, 0x21, 0x21, 0x21, 0x21, 0x21, 0x21, 0x21, 0x21, 0x21, 
  0x21, 0x21, 0x21, 0x21, 0x00, 0x0C, 0x33, 0x06, 0x36, 0x3F, 0x00, 0x21, 
  0x00, 0x59, 0x21, 0x1B, 0x21, 0x00, 0x21, 0x21, 0x00, 0x21, 0x21, 0x21, 
  0x00, 0x21, 0x21, 0x21, 0x00, 0x21, 0x21, 0x6C, 0x21, 0x21, 0x21, 0x0C, 
  0x33, 0x33, 0x33, 0x33, 0x33, 0x33, 0x1B, 0x03, 0x03, 0x03, 0x03, 0x03, 
  0x0C, 0x0C, 0x0C, 0x0C, 0x66, 0x63, 0x33, 0x33, 0x33, 0x33, 0x33, 0x1E, 
  0x33, 0x33, 0x33, 0x33, 0x33, 0x0C, 0x1F, 0x33, 0x33, 0x33, 0x33, 0x33, 
  0x33, 0xB3, 0x0D, 0x03, 0x03, 0x03, 0x03, 0x03, 0x0C, 0x0C, 0x0C, 0x0C, 
  0x33, 0x33, 0x33, 0x33, 0x33, 0x33, 0x33, 0x0C, 0x33, 0x33, 0x33, 0x33, 
  0x33, 0x33, 0x33, 0x33, 0x00, 0x0C, 0x00, 0x36, 0x1F, 0x6D, 0x33, 0x00, 
  0x06, 0x18, 0x00, 0x0C, 0x1C, 0x00, 0x1C, 0x06, 0x33, 0x0C, 0x03, 0x33, 
  0x30, 0x33, 0x33, 0x06, 0x33, 0x18, 0x1C, 0x1C, 0x18, 0x00, 0x06, 0x0C, 
  0x7B, 0x33, 0x33, 0x06, 0x1B, 0x03, 0x03, 0x36, 0x33, 0x0C, 0x33, 0x33, 
  0x03, 0x63, 0x63, 0x33, 0x03, 0x33, 0x33, 0x30, 0x0C, 0x33, 0x1E, 0x77, 
  0x33, 0x0C, 0x03, 0x06, 0x30, 0x18, 0x00, 0x00, 0x00, 0x33, 0x33, 0x03, 
  0x33, 0x03, 0x06, 0x33, 0x33, 0x0C, 0x18, 0x33, 0x0C, 0x6B, 0x33, 0x33, 
  0x33, 0x33, 0x03, 0x30, 0x06, 0x33, 0x1E, 0x7F, 0x33, 0x33, 0x03, 0x0C, 
  0x0C, 0x0C, 0x00, 0x21, 0x21, 0x21, 0x21, 0x21, 0x21, 0x21, 0x21, 0x21, 
  0x21, 0x21, 0x21, 0x21, 0x21, 0x21, 0x21, 0x21, 0x21, 0x21, 0x21, 0x21, 
  0x21, 0x21, 0x21, 0x21, 0x21, 0x21, 0x21, 0x21, 0x21, 0x21, 0x21, 0x21, 
  0x00, 0x0C, 0x1E, 0x06, 0x3E, 0x0C, 0x0C, 0x21, 0x00, 0x41, 0x21, 0x36, 
  0x21, 0x00, 0x21, 0x21, 0x00, 0x21, 0x21, 0x21, 0x00, 0x21, 0x21, 0x21, 
  0x00, 0x21, 0x21, 0x36, 0x21, 0x21, 0x21, 0x06, 0x33, 0x33, 0x33, 0x33, 
  0x33, 0x33, 0x1B, 0x06, 0x03, 0x03, 0x03, 0x03, 0x0C, 0x0C, 0x0C, 0x0C, 
  0x36, 0x63, 0x33, 0x33, 0x33, 0x33, 0x33, 0x33, 0x33, 0x33, 0x33, 0x33, 
  0x33, 0x0C, 0x03, 0x33, 0x33, 0x33, 0x33, 0x33, 0x33, 0xB3, 0x0D, 0x03, 
  0x03, 0x03, 0x03, 0x03, 0x0C, 0x0C, 0x0C, 0x0C, 0x33, 0x33, 0x33, 0x33, 
  0x33, 0x33, 0x33, 0x0C, 0x33, 0x33, 0x33, 0x33, 0x33, 0x33, 0x33, 0x33, 
  0x00, 0x0C, 0x00, 0x36, 0x0C, 0x38, 0x6E, 0x00, 0x0C, 0x0C, 0x00, 0x00, 
  0x1C, 0x00, 0x1C, 0x06, 0x1E, 0x3F, 0x3F, 0x1E, 0x30, 0x1E, 0x1E, 0x06, 
  0x1E, 0x0C, 0x1C, 0x1C, 0x30, 0x00, 0x03, 0x0C, 0x03, 0x33, 0x1F, 0x3C, 
  0x0F, 0x3F, 0x03, 0x3C, 0x33, 0x3F, 0x1E, 0x63, 0x3F, 0x63, 0x63, 0x1E, 
  0x03, 0x1E, 0x33, 0x1F, 0x0C, 0x1E, 0x0C, 0x63, 0x33, 0x0C, 0x3F, 0x06, 
  0x30, 0x18, 0x00, 0x00, 0x00, 0x3E, 0x1F, 0x3E, 0x3E, 0x3E, 0x06, 0x3E, 
  0x33, 0x3F, 0x18, 0x63, 0x3F, 0x6B, 0x33, 0x1E, 0x1F, 0x3E, 0x03, 0x1F, 
  0x3C, 0x3E, 0x0C, 0x77, 0x33, 0x3E, 0x3F, 0x0C, 0x0C, 0x0C, 0x00, 0x3F, 
  0x3F, 0x3F, 0x3F, 0x3F, 0x3F, 0x3F, 0x3F, 0x3F, 0x3F, 0x3F, 0x3F, 0x3F, 
  0x3F, 0x3F, 0x3F, 0x3F, 0x3F, 0x3F, 0x3F, 0x3F, 0x3F, 0x3F, 0x3F, 0x3F, 
  0x3F, 0x3F, 0x3F, 0x3F, 0x3F, 0x3F, 0x3F, 0x3F, 0x00, 0x1E, 0x0C, 0x3F, 
  0x63, 0x0C, 0x0C, 0x3F, 0x00, 0x22, 0x3F, 0x6C, 0x3F, 0x00, 0x3F, 0x3F, 
  0x00, 0x3F, 0x3F, 0x3F, 0x00, 0x3F, 0x3F, 0x3F, 0x00, 0x3F, 0x3F, 0x1B, 
  0x3F, 0x3F, 0x3F, 0x03, 0x33, 0x33, 0x33, 0x33, 0x33, 0x33, 0x3B, 0x3C, 
  0x3F, 0x3F, 0x3F, 0x3F, 0x3F, 0x3F, 0x3F, 0x3F, 0x1E, 0x63, 0x1E, 0x1E, 
  0x1E, 0x1E, 0x1E, 0x00, 0x1E, 0x1E, 0x1E, 0x1E, 0x1E, 0x0C, 0x03, 0x1B, 
  0x3E, 0x3E, 0x3E, 0x3E, 0x3E, 0x3E, 0x7B, 0x3E, 0x3E, 0x3E, 0x3E, 0x3E, 
  0x3F, 0x3F, 0x3F, 0x3F, 0x1E, 0x33, 0x1E, 0x1E, 0x1E, 0x1E, 0x1E, 0x00, 
  0x1E, 0x3E, 0x3E, 0x3E, 0x3E, 0x3E, 0x1F, 0x3E, 0x00, 0x00, 0x00, 0x00, 
  0x0C, 0x00, 0x00, 0x00, 0x0C, 0x0C, 0x00, 0x00, 0x18, 0x00, 0x00, 0x03, 
  0x00, 0x00, 0x00, 0x00, 0x00, 0x00, 0x00, 0x00, 0x00, 0x00, 0x00, 0x18, 
  0x00, 0x00, 0x00, 0x00, 0x03, 0x00, 0x00, 0x00, 0x00, 0x00, 0x00, 0x00, 
  0x00, 0x00, 0x00, 0x00, 0x00, 0x00, 0x00, 0x00, 0x00, 0x18, 0x00, 0x00, 
  0x00, 0x00, 0x00, 0x00, 0x00, 0x00, 0x00, 0x06, 0x60, 0x18, 0x00, 0x00, 
  0x00, 0x00, 0x00, 0x00, 0x00, 0x00, 0x00, 0x30, 0x00, 0x00, 0x18, 0x00, 
  0x00, 0x00, 0x00, 0x00, 0x03, 0x30, 0x00, 0x00, 0x00, 0x00, 0x00, 0x00, 
  0x00, 0x30, 0x00, 0x0C, 0x0C, 0x0C, 0x00, 0x00, 0x00, 0x00, 0x00, 0x00, 
  0x00, 0x00, 0x00, 0x00, 0x00, 0x00, 0x00, 0x00, 0x00, 0x00, 0x00, 0x00, 
  0x00, 0x00, 0x00, 0x00, 0x00, 0x00, 0x00, 0x00, 0x00, 0x00, 0x00, 0x00, 
  0x00, 0x00, 0x00, 0x00, 0x00, 0x1E, 0x0C, 0x00, 0x00, 0x00, 0x0C, 0x00, 
  0x00, 0x1C, 0x00, 0x00, 0x00, 0x00, 0x00, 0x00, 0x00, 0x00, 0x00, 0x00, 
  0x00, 0x00, 0x00, 0x00, 0x18, 0x00, 0x00, 0x00, 0x00, 0x00, 0x00, 0x03, 
  0x00, 0x00, 0x00, 0x00, 0x00, 0x00, 0x00, 0x18, 0x00, 0x00, 0x00, 0x00, 
  0x00, 0x00, 0x00, 0x00, 0x00, 0x00, 0x00, 0x00, 0x00, 0x00, 0x00, 0x00, 
  0x03, 0x00, 0x00, 0x00, 0x00, 0x00, 0x00, 0x00, 0x00, 0x00, 0x00, 0x00, 
  0x00, 0x00, 0x00, 0x18, 0x00, 0x00, 0x00, 0x00, 0x00, 0x00, 0x00, 0x00, 
  0x00, 0x00, 0x00, 0x00, 0x00, 0x00, 0x00, 0x00, 0x03, 0x00, 0x00, 0x00, 
  0x00, 0x30, 0x03, 0x30, 0x00, 0x00, 0x00, 0x00, 0x00, 0x00, 0x00, 0x00, 
  0x18, 0x06, 0x00, 0x00, 0x18, 0x00, 0x00, 0x03, 0x00, 0x00, 0x00, 0x00, 
  0x00, 0x00, 0x00, 0x00, 0x00, 0x00, 0x00, 0x18, 0x00, 0x00, 0x00, 0x00, 
  0x7E, 0x00, 0x00, 0x00, 0x00, 0x00, 0x00, 0x00, 0x00, 0x00, 0x00, 0x00, 
  0x00, 0x00, 0x00, 0x00, 0x00, 0x30, 0x00, 0x00, 0x00, 0x00, 0x00, 0x00, 
  0x00, 0x00, 0x00, 0x3E, 0x60, 0x1F, 0x80, 0x7F, 0x00, 0x00, 0x00, 0x00, 
  0x00, 0x00, 0x00, 0x30, 0x00, 0x00, 0x18, 0x00, 0x00, 0x00, 0x00, 0x00, 
  0x03, 0x30, 0x00, 0x00, 0x00, 0x00, 0x00, 0x00, 0x00, 0x30, 0x00, 0x38, 
  0x0C, 0x07, 0x00, 0x00, 0x00, 0x00, 0x00, 0x00, 0x00, 0x00, 0x00, 0x00, 
  0x00, 0x00, 0x00, 0x00, 0x00, 0x00, 0x00, 0x00, 0x00, 0x00, 0x00, 0x00, 
  0x00, 0x00, 0x00, 0x00, 0x00, 0x00, 0x00, 0x00, 0x00, 0x00, 0x00, 0x00, 
  0x00, 0x1E, 0x00, 0x00, 0x00, 0x00, 0x0C, 0x00, 0x00, 0x00, 0x00, 0x00, 
  0x00, 0x00, 0x00, 0x00, 0x00, 0x00, 0x00, 0x00, 0x00, 0x00, 0x00, 0x00, 
  0x18, 0x00, 0x00, 0x00, 0x00, 0x00, 0x00, 0x23, 0x00, 0x00, 0x00, 0x00, 
  0x00, 0x00, 0x00, 0x18, 0x00, 0x00, 0x00, 0x00, 0x00, 0x00, 0x00, 0x00, 
  0x00, 0x00, 0x00, 0x00, 0x00, 0x00, 0x00, 0x00, 0x00, 0x00, 0x00, 0x00, 
  0x00, 0x00, 0x00, 0x00, 0x00, 0x00, 0x00, 0x00, 0x00, 0x00, 0x00, 0x18, 
  0x00, 0x00, 0x00, 0x00, 0x00, 0x00, 0x00, 0x00, 0x00, 0x00, 0x00, 0x00, 
  0x00, 0x00, 0x00, 0x00, 0x00, 0x00, 0x00, 0x00, 0x00, 0x30, 0x03, 0x30, 
  0x00, 0x00, 0x00, 0x00, 0x00, 0x00, 0x00, 0x00, 0x00, 0x00, 0x00, 0x00, 
  0x0C, 0x00, 0x00, 0x00, 0x00, 0x00, 0x00, 0x00, 0x00, 0x00, 0x00, 0x00, 
  0x00, 0x00, 0x00, 0x0C, 0x00, 0x00, 0x00, 0x00, 0x00, 0x00, 0x00, 0x00, 
  0x00, 0x00, 0x00, 0x00, 0x00, 0x00, 0x00, 0x00, 0x00, 0x00, 0x00, 0x00, 
  0x00, 0x00, 0x00, 0x00, 0x00, 0x00, 0x00, 0x00, 0x00, 0x00, 0x00, 0x00, 
  0x00, 0x00, 0x00, 0x00, 0x00, 0x00, 0x00, 0x00, 0x00, 0x00, 0x00, 0x1E, 
  0x00, 0x00, 0x0F, 0x00, 0x00, 0x00, 0x00, 0x00, 0x03, 0x30, 0x00, 0x00, 
  0x00, 0x00, 0x00, 0x00, 0x00, 0x1E, 0x00, 0x00, 0x00, 0x00, 0x00, 0x00, 
  0x00, 0x00, 0x00, 0x00, 0x00, 0x00, 0x00, 0x00, 0x00, 0x00, 0x00, 0x00, 
  0x00, 0x00, 0x00, 0x00, 0x00, 0x00, 0x00, 0x00, 0x00, 0x00, 0x00, 0x00, 
  0x00, 0x00, 0x00, 0x00, 0x00, 0x00, 0x00, 0x00, 0x00, 0x0C, 0x00, 0x00, 
  0x00, 0x00, 0x00, 0x00, 0x00, 0x00, 0x00, 0x00, 0x00, 0x00, 0x00, 0x00, 
  0x00, 0x00, 0x00, 0x00, 0x00, 0x00, 0x00, 0x00, 0x0E, 0x00, 0x00, 0x00, 
  0x00, 0x00, 0x00, 0x1E, 0x00, 0x00, 0x00, 0x00, 0x00, 0x00, 0x00, 0x0E, 
  0x00, 0x00, 0x00, 0x00, 0x00, 0x00, 0x00, 0x00, 0x00, 0x00, 0x00, 0x00, 
  0x00, 0x00, 0x00, 0x00, 0x00, 0x00, 0x00, 0x00, 0x00, 0x00, 0x00, 0x00, 
  0x00, 0x00, 0x00, 0x00, 0x00, 0x00, 0x00, 0x0E, 0x00, 0x00, 0x00, 0x00, 
  0x00, 0x00, 0x00, 0x00, 0x00, 0x00, 0x00, 0x00, 0x00, 0x00, 0x00, 0x00, 
  0x00, 0x00, 0x00, 0x00, 0x00, 0x1E, 0x03, 0x1E, };
