#define tamsyn8x16r_width 1792
#define tamsyn8x16r_height 16
static char tamsyn8x16r_bits[] = {
  0x00, 0x00, 0x00, 0x00, 0x00, 0x00, 0x00, 0x00, 0x00, 0x00, 0x00, 0x00, 
  0x00, 0x00, 0x00, 0x00, 0x00, 0x00, 0x00, 0x00, 0x00, 0x00, 0x00, 0x00, 
  0x00, 0x00, 0x00, 0x00, 0x00, 0x00, 0x00, 0x00, 0x00, 0x00, 0x00, 0x00, 
  0x00, 0x00, 0x00, 0x00, 0x00, 0x00, 0x00, 0x00, 0x00, 0x00, 0x00, 0x00, 
  0x00, 0x00, 0x00, 0x00, 0x00, 0x00, 0x00, 0x00, 0x00, 0x00, 0x00, 0x00, 
  0x00, 0x00, 0x00, 0x00, 0x00, 0x00, 0x00, 0x00, 0x00, 0x00, 0x00, 0x00, 
  0x00, 0x00, 0x00, 0x00, 0x00, 0x00, 0x00, 0x00, 0x00, 0x00, 0x00, 0x00, 
  0x00, 0x00, 0x00, 0x00, 0x00, 0x00, 0x00, 0x00, 0x00, 0x00, 0x00, 0x00, 
  0x00, 0x00, 0x00, 0x00, 0x00, 0x00, 0x00, 0x00, 0x00, 0x00, 0x00, 0x00, 
  0x00, 0x00, 0x00, 0x00, 0x00, 0x00, 0x00, 0x00, 0x00, 0x00, 0x00, 0x00, 
  0x00, 0x00, 0x00, 0x00, 0x00, 0x00, 0x00, 0x00, 0x00, 0x00, 0x00, 0x00, 
  0x00, 0x00, 0x00, 0x00, 0x00, 0x00, 0x00, 0x00, 0x00, 0x00, 0x00, 0x00, 
  0x00, 0x00, 0x00, 0x00, 0x00, 0x00, 0x00, 0x00, 0x00, 0x00, 0x00, 0x00, 
  0x00, 0x00, 0x00, 0x00, 0x00, 0x00, 0x00, 0x00, 0x00, 0x00, 0x00, 0x00, 
  0x00, 0x00, 0x00, 0x00, 0x00, 0x00, 0x00, 0x00, 0x00, 0x00, 0x00, 0x00, 
  0x00, 0x00, 0x00, 0x00, 0x00, 0x00, 0x00, 0x00, 0x00, 0x00, 0x00, 0x00, 
  0x00, 0x00, 0x00, 0x00, 0x00, 0x00, 0x00, 0x00, 0x00, 0x00, 0x00, 0x00, 
  0x00, 0x00, 0x00, 0x00, 0x00, 0x00, 0x00, 0x00, 0x00, 0x00, 0x00, 0x00, 
  0x00, 0x00, 0x00, 0x00, 0x00, 0x00, 0x00, 0x00, 0x00, 0x00, 0x00, 0x00, 
  0x00, 0x00, 0x00, 0x00, 0x00, 0x00, 0x00, 0x00, 0x00, 0x00, 0x00, 0x00, 
  0x00, 0x00, 0x00, 0x00, 0x00, 0x00, 0x00, 0x00, 0x00, 0x00, 0x00, 0x00, 
  0x00, 0x00, 0x00, 0x00, 0x00, 0x00, 0x00, 0x00, 0x00, 0x00, 0x00, 0x00, 
  0x00, 0x00, 0x00, 0x00, 0x00, 0x00, 0x00, 0x00, 0x00, 0x00, 0x00, 0x00, 
  0x00, 0x00, 0x00, 0x00, 0x00, 0x00, 0x00, 0x00, 0x00, 0x00, 0x00, 0x00, 
  0x00, 0x00, 0x00, 0x00, 0x00, 0x00, 0x00, 0x00, 0x00, 0x00, 0x00, 0x00, 
  0x00, 0x00, 0x00, 0x00, 0x00, 0x00, 0x00, 0x00, 0x00, 0x00, 0x00, 0x00, 
  0x00, 0x00, 0x00, 0x00, 0x00, 0x00, 0x00, 0x00, 0x00, 0x00, 0x00, 0x00, 
  0x00, 0x00, 0x00, 0x00, 0x00, 0x00, 0x00, 0x00, 0x00, 0x00, 0x00, 0x00, 
  0x00, 0x00, 0x00, 0x00, 0x00, 0x00, 0x00, 0x00, 0x00, 0x00, 0x00, 0x00, 
  0x00, 0x00, 0x00, 0x00, 0x00, 0x00, 0x00, 0x00, 0x00, 0x00, 0x00, 0x00, 
  0x22, 0x00, 0x00, 0x00, 0x00, 0x00, 0x00, 0x00, 0x00, 0x00, 0x00, 0x00, 
  0x00, 0x00, 0x00, 0x00, 0x00, 0x00, 0x00, 0x00, 0x00, 0x00, 0x00, 0x00, 
  0x02, 0x10, 0x0C, 0x26, 0x12, 0x0C, 0x00, 0x00, 0x02, 0x10, 0x0C, 0x12, 
  0x04, 0x10, 0x0C, 0x22, 0x00, 0x26, 0x04, 0x10, 0x0C, 0x26, 0x12, 0x00, 
  0x00, 0x02, 0x10, 0x0C, 0x12, 0x10, 0x00, 0x00, 0x00, 0x00, 0x00, 0x00, 
  0x00, 0x0C, 0x00, 0x00, 0x00, 0x00, 0x00, 0x00, 0x00, 0x00, 0x00, 0x00, 
  0x00, 0x00, 0x00, 0x00, 0x00, 0x00, 0x00, 0x00, 0x00, 0x00, 0x00, 0x00, 
  0x00, 0x00, 0x00, 0x00, 0x00, 0x00, 0x12, 0x00, 0x00, 0x00, 0x00, 0x04, 
  0x00, 0x00, 0x00, 0x00, 0x00, 0x00, 0x00, 0x00, 0x00, 0x00, 0x00, 0x00, 
  0x00, 0x00, 0x00, 0x00, 0x00, 0x00, 0x00, 0x00, 0x00, 0x00, 0x00, 0x00, 
  0x00, 0x00, 0x00, 0x00, 0x00, 0x00, 0x00, 0x00, 0x00, 0x00, 0x00, 0x00, 
  0x00, 0x00, 0x00, 0x00, 0x00, 0x00, 0x00, 0x00, 0x00, 0x00, 0x00, 0x00, 
  0x00, 0x00, 0x00, 0x00, 0x00, 0x00, 0x00, 0x00, 0x02, 0x00, 0x00, 0x00, 
  0x00, 0x00, 0x00, 0x00, 0x00, 0x00, 0x00, 0x00, 0x00, 0x00, 0x00, 0x00, 
  0x00, 0x00, 0x00, 0x00, 0x00, 0x00, 0x00, 0x00, 0x00, 0x00, 0x00, 0x38, 
  0x08, 0x07, 0x00, 0x00, 0x00, 0x00, 0x00, 0x00, 0x00, 0x00, 0x00, 0x00, 
  0x00, 0x00, 0x00, 0x00, 0x00, 0x00, 0x00, 0x00, 0x00, 0x00, 0x00, 0x00, 
  0x00, 0x00, 0x00, 0x00, 0x00, 0x00, 0x00, 0x00, 0x00, 0x00, 0x00, 0x00, 
  0x00, 0x00, 0x00, 0x00, 0x00, 0x00, 0x00, 0x00, 0x22, 0x00, 0x00, 0x00, 
  0x00, 0x00, 0x00, 0x00, 0x00, 0x00, 0x00, 0x00, 0x00, 0x00, 0x00, 0x00, 
  0x00, 0x00, 0x00, 0x00, 0x00, 0x00, 0x00, 0x00, 0x04, 0x08, 0x12, 0x19, 
  0x12, 0x12, 0x00, 0x00, 0x04, 0x08, 0x12, 0x12, 0x08, 0x08, 0x12, 0x22, 
  0x00, 0x19, 0x08, 0x08, 0x12, 0x19, 0x12, 0x00, 0x00, 0x04, 0x08, 0x12, 
  0x12, 0x08, 0x00, 0x00, 0x00, 0x00, 0x0C, 0x26, 0x00, 0x12, 0x00, 0x00, 
  0x00, 0x00, 0x0C, 0x00, 0x00, 0x00, 0x0C, 0x00, 0x48, 0x26, 0x00, 0x00, 
  0x0C, 0x26, 0x00, 0x00, 0x00, 0x00, 0x00, 0x0C, 0x00, 0x00, 0x00, 0x00, 
  0x00, 0x04, 0x12, 0x00, 0x08, 0x00, 0x06, 0x04, 0x10, 0x02, 0x00, 0x00, 
  0x00, 0x00, 0x00, 0x20, 0x00, 0x00, 0x00, 0x00, 0x00, 0x00, 0x00, 0x00, 
  0x00, 0x00, 0x00, 0x00, 0x00, 0x00, 0x00, 0x1E, 0x1C, 0x00, 0x00, 0x00, 
  0x00, 0x00, 0x00, 0x00, 0x00, 0x00, 0x00, 0x00, 0x00, 0x00, 0x00, 0x00, 
  0x00, 0x00, 0x00, 0x00, 0x00, 0x00, 0x00, 0x00, 0x00, 0x00, 0x00, 0x3C, 
  0x01, 0x0F, 0x04, 0x00, 0x04, 0x00, 0x01, 0x00, 0x20, 0x00, 0x38, 0x00, 
  0x01, 0x08, 0x10, 0x01, 0x0E, 0x00, 0x00, 0x00, 0x00, 0x00, 0x00, 0x00, 
  0x00, 0x00, 0x00, 0x00, 0x00, 0x00, 0x00, 0x04, 0x08, 0x08, 0x46, 0x00, 
  0x00, 0x00, 0x00, 0x00, 0x00, 0x00, 0x00, 0x00, 0x00, 0x00, 0x00, 0x00, 
  0x00, 0x00, 0x00, 0x00, 0x00, 0x00, 0x00, 0x00, 0x00, 0x00, 0x00, 0x00, 
  0x00, 0x00, 0x00, 0x00, 0x00, 0x00, 0x00, 0x00, 0x00, 0x00, 0x08, 0x00, 
  0x00, 0x00, 0x00, 0x00, 0x00, 0x00, 0x00, 0x00, 0x00, 0x00, 0x00, 0x00, 
  0x00, 0x00, 0x00, 0x00, 0x00, 0x00, 0x00, 0x00, 0x00, 0x00, 0x00, 0x00, 
  0x00, 0x00, 0x00, 0x00, 0x00, 0x00, 0x00, 0x00, 0x00, 0x12, 0x00, 0x00, 
  0x00, 0x00, 0x00, 0x00, 0x00, 0x00, 0x00, 0x00, 0x00, 0x00, 0x00, 0x00, 
  0x00, 0x00, 0x00, 0x00, 0x20, 0x00, 0x00, 0x00, 0x00, 0x00, 0x00, 0x00, 
  0x02, 0x10, 0x12, 0x19, 0x12, 0x12, 0x00, 0x00, 0x02, 0x10, 0x12, 0x12, 
  0x04, 0x10, 0x12, 0x12, 0x30, 0x19, 0x04, 0x10, 0x12, 0x19, 0x12, 0x00, 
  0x00, 0x02, 0x10, 0x12, 0x12, 0x10, 0x01, 0x12, 0x00, 0x04, 0x12, 0x12, 
  0x08, 0x06, 0x09, 0x04, 0x08, 0x04, 0x00, 0x00, 0x00, 0x00, 0x00, 0x20, 
  0x1E, 0x08, 0x1E, 0x3F, 0x10, 0x3F, 0x1C, 0x3F, 0x1E, 0x1E, 0x00, 0x00, 
  0x10, 0x00, 0x02, 0x21, 0x22, 0x0C, 0x1F, 0x3C, 0x0F, 0x3F, 0x3F, 0x3C, 
  0x21, 0x3E, 0x20, 0x21, 0x01, 0x41, 0x21, 0x1E, 0x1F, 0x1E, 0x1F, 0x3E, 
  0x7F, 0x21, 0x21, 0x41, 0x41, 0x41, 0x3F, 0x04, 0x01, 0x08, 0x0A, 0x00, 
  0x08, 0x00, 0x01, 0x00, 0x20, 0x00, 0x04, 0x00, 0x01, 0x08, 0x10, 0x01, 
  0x08, 0x00, 0x00, 0x00, 0x00, 0x00, 0x00, 0x00, 0x04, 0x00, 0x00, 0x00, 
  0x00, 0x00, 0x00, 0x04, 0x08, 0x08, 0x49, 0x00, 0x00, 0x00, 0x00, 0x00, 
  0x00, 0x00, 0x00, 0x00, 0x00, 0x00, 0x00, 0x00, 0x00, 0x00, 0x00, 0x00, 
  0x00, 0x00, 0x00, 0x00, 0x00, 0x00, 0x00, 0x00, 0x00, 0x00, 0x00, 0x00, 
  0x00, 0x00, 0x00, 0x00, 0x00, 0x00, 0x08, 0x1C, 0x00, 0x41, 0x08, 0x00, 
  0x00, 0x1C, 0x00, 0x00, 0x00, 0x00, 0x00, 0x00, 0x0E, 0x00, 0x00, 0x00, 
  0x00, 0x00, 0x00, 0x00, 0x00, 0x00, 0x00, 0x00, 0x00, 0x00, 0x00, 0x00, 
  0x0C, 0x0C, 0x0C, 0x0C, 0x0C, 0x0C, 0x78, 0x3C, 0x3F, 0x3F, 0x3F, 0x3F, 
  0x3E, 0x3E, 0x3E, 0x3E, 0x1E, 0x21, 0x1C, 0x1C, 0x1C, 0x1C, 0x1C, 0x00, 
  0x1E, 0x21, 0x21, 0x21, 0x21, 0x41, 0x01, 0x1E, 0x04, 0x08, 0x00, 0x00, 
  0x12, 0x0C, 0x00, 0x00, 0x04, 0x08, 0x00, 0x12, 0x08, 0x08, 0x00, 0x12, 
  0x2C, 0x00, 0x08, 0x08, 0x00, 0x00, 0x12, 0x0C, 0x00, 0x04, 0x08, 0x00, 
  0x12, 0x08, 0x01, 0x12, 0x00, 0x04, 0x12, 0x12, 0x3C, 0x49, 0x09, 0x04, 
  0x08, 0x04, 0x00, 0x08, 0x00, 0x00, 0x00, 0x10, 0x21, 0x0C, 0x21, 0x10, 
  0x18, 0x01, 0x02, 0x20, 0x21, 0x21, 0x00, 0x00, 0x08, 0x00, 0x04, 0x20, 
  0x41, 0x12, 0x21, 0x02, 0x11, 0x01, 0x01, 0x02, 0x21, 0x08, 0x20, 0x11, 
  0x01, 0x63, 0x23, 0x21, 0x21, 0x21, 0x21, 0x01, 0x08, 0x21, 0x21, 0x41, 
  0x41, 0x41, 0x10, 0x04, 0x02, 0x08, 0x11, 0x00, 0x10, 0x00, 0x01, 0x00, 
  0x20, 0x00, 0x04, 0x00, 0x01, 0x00, 0x00, 0x01, 0x08, 0x00, 0x00, 0x00, 
  0x00, 0x00, 0x00, 0x00, 0x04, 0x00, 0x00, 0x00, 0x00, 0x00, 0x00, 0x04, 
  0x08, 0x08, 0x31, 0x3F, 0x3F, 0x3F, 0x3F, 0x3F, 0x3F, 0x3F, 0x3F, 0x3F, 
  0x3F, 0x3F, 0x3F, 0x3F, 0x3F, 0x3F, 0x3F, 0x3F, 0x3F, 0x3F, 0x3F, 0x3F, 
  0x3F, 0x3F, 0x3F, 0x3F, 0x3F, 0x3F, 0x3F, 0x3F, 0x3F, 0x3F, 0x3F, 0x3F, 
  0x00, 0x00, 0x1C, 0x22, 0x21, 0x22, 0x08, 0x3F, 0x00, 0x22, 0x3F, 0x00, 
  0x3F, 0x00, 0x3F, 0x3F, 0x11, 0x3F, 0x3F, 0x3F, 0x3F, 0x3F, 0x3F, 0x3F, 
  0x00, 0x3F, 0x3F, 0x00, 0x3F, 0x3F, 0x3F, 0x00, 0x0C, 0x0C, 0x0C, 0x0C, 
  0x0C, 0x0C, 0x14, 0x02, 0x01, 0x01, 0x01, 0x01, 0x08, 0x08, 0x08, 0x08, 
  0x22, 0x23, 0x22, 0x22, 0x22, 0x22, 0x22, 0x00, 0x21, 0x21, 0x21, 0x21, 
  0x21, 0x41, 0x01, 0x21, 0x00, 0x00, 0x00, 0x00, 0x00, 0x00, 0x00, 0x00, 
  0x00, 0x00, 0x00, 0x00, 0x00, 0x00, 0x00, 0x00, 0x40, 0x00, 0x00, 0x00, 
  0x00, 0x00, 0x00, 0x0C, 0x20, 0x00, 0x00, 0x00, 0x00, 0x00, 0x01, 0x00, 
  0x00, 0x04, 0x00, 0x3F, 0x02, 0x29, 0x09, 0x00, 0x04, 0x08, 0x12, 0x08, 
  0x00, 0x00, 0x00, 0x10, 0x31, 0x0A, 0x20, 0x08, 0x14, 0x01, 0x01, 0x10, 
  0x21, 0x21, 0x0C, 0x0C, 0x04, 0x00, 0x08, 0x10, 0x79, 0x21, 0x21, 0x01, 
  0x21, 0x01, 0x01, 0x01, 0x21, 0x08, 0x20, 0x09, 0x01, 0x55, 0x25, 0x21, 
  0x21, 0x21, 0x21, 0x01, 0x08, 0x21, 0x21, 0x41, 0x22, 0x22, 0x08, 0x04, 
  0x02, 0x08, 0x00, 0x00, 0x00, 0x1E, 0x1F, 0x1E, 0x3E, 0x1E, 0x3F, 0x3E, 
  0x1F, 0x0E, 0x1C, 0x11, 0x08, 0x77, 0x1F, 0x1E, 0x1F, 0x3E, 0x3A, 0x3E, 
  0x3F, 0x21, 0x21, 0x41, 0x41, 0x21, 0x3F, 0x04, 0x08, 0x08, 0x00, 0x21, 
  0x21, 0x21, 0x21, 0x21, 0x21, 0x21, 0x21, 0x21, 0x21, 0x21, 0x21, 0x21, 
  0x21, 0x21, 0x21, 0x21, 0x21, 0x21, 0x21, 0x21, 0x21, 0x21, 0x21, 0x21, 
  0x21, 0x21, 0x21, 0x21, 0x21, 0x21, 0x21, 0x21, 0x00, 0x04, 0x22, 0x02, 
  0x1E, 0x14, 0x08, 0x21, 0x00, 0x41, 0x21, 0x48, 0x21, 0x00, 0x21, 0x21, 
  0x11, 0x21, 0x21, 0x21, 0x21, 0x21, 0x21, 0x21, 0x00, 0x21, 0x21, 0x09, 
  0x21, 0x21, 0x21, 0x08, 0x12, 0x12, 0x12, 0x12, 0x12, 0x12, 0x14, 0x01, 
  0x01, 0x01, 0x01, 0x01, 0x08, 0x08, 0x08, 0x08, 0x42, 0x25, 0x41, 0x41, 
  0x41, 0x41, 0x41, 0x00, 0x31, 0x21, 0x21, 0x21, 0x21, 0x22, 0x1F, 0x11, 
  0x1E, 0x1E, 0x1E, 0x1E, 0x1E, 0x1E, 0x36, 0x1E, 0x1E, 0x1E, 0x1E, 0x1E, 
  0x0E, 0x0E, 0x0E, 0x0E, 0x5C, 0x1F, 0x1E, 0x1E, 0x1E, 0x1E, 0x1E, 0x00, 
  0x1E, 0x21, 0x21, 0x21, 0x21, 0x21, 0x1D, 0x21, 0x00, 0x04, 0x00, 0x12, 
  0x02, 0x16, 0x06, 0x00, 0x04, 0x08, 0x0C, 0x08, 0x00, 0x00, 0x00, 0x08, 
  0x29, 0x08, 0x20, 0x1C, 0x12, 0x1F, 0x01, 0x10, 0x21, 0x21, 0x0C, 0x0C, 
  0x02, 0x3F, 0x10, 0x08, 0x45, 0x21, 0x21, 0x01, 0x21, 0x01, 0x01, 0x01, 
  0x21, 0x08, 0x20, 0x05, 0x01, 0x49, 0x29, 0x21, 0x21, 0x21, 0x21, 0x02, 
  0x08, 0x21, 0x21, 0x41, 0x14, 0x14, 0x08, 0x04, 0x04, 0x08, 0x00, 0x00, 
  0x00, 0x20, 0x21, 0x21, 0x21, 0x21, 0x04, 0x21, 0x21, 0x08, 0x10, 0x09, 
  0x08, 0x49, 0x21, 0x21, 0x21, 0x21, 0x06, 0x01, 0x04, 0x21, 0x21, 0x41, 
  0x22, 0x21, 0x10, 0x04, 0x08, 0x08, 0x00, 0x21, 0x21, 0x21, 0x21, 0x21, 
  0x21, 0x21, 0x21, 0x21, 0x21, 0x21, 0x21, 0x21, 0x21, 0x21, 0x21, 0x21, 
  0x21, 0x21, 0x21, 0x21, 0x21, 0x21, 0x21, 0x21, 0x21, 0x21, 0x21, 0x21, 
  0x21, 0x21, 0x21, 0x21, 0x00, 0x04, 0x01, 0x02, 0x12, 0x08, 0x08, 0x21, 
  0x00, 0x59, 0x21, 0x24, 0x21, 0x00, 0x21, 0x21, 0x11, 0x21, 0x21, 0x21, 
  0x21, 0x21, 0x21, 0x21, 0x00, 0x21, 0x21, 0x12, 0x21, 0x21, 0x21, 0x08, 
  0x12, 0x12, 0x12, 0x12, 0x12, 0x12, 0x12, 0x01, 0x01, 0x01, 0x01, 0x01, 
  0x08, 0x08, 0x08, 0x08, 0x42, 0x29, 0x41, 0x41, 0x41, 0x41, 0x41, 0x22, 
  0x29, 0x21, 0x21, 0x21, 0x21, 0x14, 0x21, 0x19, 0x20, 0x20, 0x20, 0x20, 
  0x20, 0x20, 0x48, 0x21, 0x21, 0x21, 0x21, 0x21, 0x08, 0x08, 0x08, 0x08, 
  0x62, 0x21, 0x21, 0x21, 0x21, 0x21, 0x21, 0x00, 0x31, 0x21, 0x21, 0x21, 
  0x21, 0x21, 0x23, 0x21, 0x00, 0x04, 0x00, 0x12, 0x1C, 0x08, 0x46, 0x00, 
  0x04, 0x08, 0x3F, 0x7F, 0x00, 0x3F, 0x00, 0x08, 0x25, 0x08, 0x10, 0x20, 
  0x11, 0x20, 0x1F, 0x08, 0x1E, 0x3E, 0x00, 0x00, 0x01, 0x00, 0x20, 0x04, 
  0x45, 0x21, 0x1F, 0x01, 0x21, 0x1F, 0x1F, 0x31, 0x3F, 0x08, 0x20, 0x03, 
  0x01, 0x49, 0x31, 0x21, 0x1F, 0x21, 0x1F, 0x0C, 0x08, 0x21, 0x21, 0x49, 
  0x08, 0x08, 0x04, 0x04, 0x04, 0x08, 0x00, 0x00, 0x00, 0x20, 0x21, 0x01, 
  0x21, 0x21, 0x04, 0x21, 0x21, 0x08, 0x10, 0x05, 0x08, 0x49, 0x21, 0x21, 
  0x21, 0x21, 0x02, 0x02, 0x04, 0x21, 0x21, 0x41, 0x14, 0x21, 0x88, 0x03, 
  0x08, 0x70, 0x00, 0x21, 0x21, 0x21, 0x21, 0x21, 0x21, 0x21, 0x21, 0x21, 
  0x21, 0x21, 0x21, 0x21, 0x21, 0x21, 0x21, 0x21, 0x21, 0x21, 0x21, 0x21, 
  0x21, 0x21, 0x21, 0x21, 0x21, 0x21, 0x21, 0x21, 0x21, 0x21, 0x21, 0x21, 
  0x00, 0x00, 0x81, 0x0F, 0x12, 0x3E, 0x00, 0x21, 0x00, 0x45, 0x21, 0x12, 
  0x21, 0x3F, 0x21, 0x21, 0x0E, 0x21, 0x21, 0x21, 0x21, 0x21, 0x21, 0x21, 
  0x00, 0x21, 0x21, 0x24, 0x21, 0x21, 0x21, 0x00, 0x12, 0x12, 0x12, 0x12, 
  0x12, 0x12, 0x72, 0x01, 0x1F, 0x1F, 0x1F, 0x1F, 0x08, 0x08, 0x08, 0x08, 
  0x4F, 0x31, 0x41, 0x41, 0x41, 0x41, 0x41, 0x14, 0x25, 0x21, 0x21, 0x21, 
  0x21, 0x08, 0x21, 0x21, 0x20, 0x20, 0x20, 0x20, 0x20, 0x20, 0x4E, 0x01, 
  0x21, 0x21, 0x21, 0x21, 0x08, 0x08, 0x08, 0x08, 0x41, 0x21, 0x21, 0x21, 
  0x21, 0x21, 0x21, 0x3F, 0x29, 0x21, 0x21, 0x21, 0x21, 0x21, 0x41, 0x21, 
  0x00, 0x00, 0x00, 0x12, 0x20, 0x34, 0x49, 0x00, 0x04, 0x08, 0x0C, 0x08, 
  0x00, 0x00, 0x00, 0x04, 0x23, 0x08, 0x08, 0x20, 0x3F, 0x20, 0x21, 0x08, 
  0x21, 0x20, 0x00, 0x00, 0x02, 0x00, 0x10, 0x00, 0x45, 0x3F, 0x21, 0x01, 
  0x21, 0x01, 0x01, 0x21, 0x21, 0x08, 0x20, 0x05, 0x01, 0x41, 0x21, 0x21, 
  0x01, 0x21, 0x09, 0x10, 0x08, 0x21, 0x12, 0x49, 0x14, 0x08, 0x04, 0x04, 
  0x08, 0x08, 0x00, 0x00, 0x00, 0x3E, 0x21, 0x01, 0x21, 0x3F, 0x04, 0x21, 
  0x21, 0x08, 0x10, 0x07, 0x08, 0x49, 0x21, 0x21, 0x21, 0x21, 0x02, 0x0C, 
  0x04, 0x21, 0x12, 0x49, 0x08, 0x21, 0x04, 0x04, 0x08, 0x08, 0x00, 0x21, 
  0x21, 0x21, 0x21, 0x21, 0x21, 0x21, 0x21, 0x21, 0x21, 0x21, 0x21, 0x21, 
  0x21, 0x21, 0x21, 0x21, 0x21, 0x21, 0x21, 0x21, 0x21, 0x21, 0x21, 0x21, 
  0x21, 0x21, 0x21, 0x21, 0x21, 0x21, 0x21, 0x21, 0x00, 0x00, 0x01, 0x02, 
  0x12, 0x08, 0x00, 0x21, 0x00, 0x45, 0x21, 0x09, 0x21, 0x00, 0x21, 0x21, 
  0x00, 0x21, 0x21, 0x21, 0x21, 0x21, 0x21, 0x21, 0x00, 0x21, 0x21, 0x48, 
  0x21, 0x21, 0x21, 0x00, 0x3F, 0x3F, 0x3F, 0x3F, 0x3F, 0x3F, 0x1E, 0x01, 
  0x01, 0x01, 0x01, 0x01, 0x08, 0x08, 0x08, 0x08, 0x42, 0x21, 0x41, 0x41, 
  0x41, 0x41, 0x41, 0x08, 0x23, 0x21, 0x21, 0x21, 0x21, 0x08, 0x21, 0x21, 
  0x3E, 0x3E, 0x3E, 0x3E, 0x3E, 0x3E, 0x79, 0x01, 0x3F, 0x3F, 0x3F, 0x3F, 
  0x08, 0x08, 0x08, 0x08, 0x41, 0x21, 0x21, 0x21, 0x21, 0x21, 0x21, 0x00, 
  0x25, 0x21, 0x21, 0x21, 0x21, 0x21, 0x41, 0x21, 0x00, 0x00, 0x00, 0x3F, 
  0x20, 0x4A, 0x31, 0x00, 0x04, 0x08, 0x12, 0x08, 0x00, 0x00, 0x00, 0x04, 
  0x21, 0x08, 0x04, 0x20, 0x10, 0x20, 0x21, 0x04, 0x21, 0x20, 0x00, 0x00, 
  0x04, 0x3F, 0x08, 0x00, 0x65, 0x21, 0x21, 0x01, 0x21, 0x01, 0x01, 0x21, 
  0x21, 0x08, 0x21, 0x09, 0x01, 0x41, 0x21, 0x21, 0x01, 0x21, 0x11, 0x20, 
  0x08, 0x21, 0x12, 0x49, 0x22, 0x08, 0x02, 0x04, 0x08, 0x08, 0x00, 0x00, 
  0x00, 0x21, 0x21, 0x01, 0x21, 0x01, 0x04, 0x21, 0x21, 0x08, 0x10, 0x09, 
  0x08, 0x49, 0x21, 0x21, 0x21, 0x21, 0x02, 0x10, 0x04, 0x21, 0x12, 0x49, 
  0x14, 0x21, 0x02, 0x04, 0x08, 0x08, 0x00, 0x21, 0x21, 0x21, 0x21, 0x21, 
  0x21, 0x21, 0x21, 0x21, 0x21, 0x21, 0x21, 0x21, 0x21, 0x21, 0x21, 0x21, 
  0x21, 0x21, 0x21, 0x21, 0x21, 0x21, 0x21, 0x21, 0x21, 0x21, 0x21, 0x21, 
  0x21, 0x21, 0x21, 0x21, 0x00, 0x04, 0x22, 0x02, 0x1E, 0x3E, 0x00, 0x21, 
  0x00, 0x59, 0x21, 0x12, 0x21, 0x00, 0x21, 0x21, 0x00, 0x21, 0x21, 0x21, 
  0x21, 0x21, 0x21, 0x21, 0x00, 0x21, 0x21, 0x24, 0x21, 0x21, 0x21, 0x08, 
  0x21, 0x21, 0x21, 0x21, 0x21, 0x21, 0x11, 0x01, 0x01, 0x01, 0x01, 0x01, 
  0x08, 0x08, 0x08, 0x08, 0x42, 0x21, 0x41, 0x41, 0x41, 0x41, 0x41, 0x14, 
  0x21, 0x21, 0x21, 0x21, 0x21, 0x08, 0x1F, 0x21, 0x21, 0x21, 0x21, 0x21, 
  0x21, 0x21, 0x09, 0x01, 0x01, 0x01, 0x01, 0x01, 0x08, 0x08, 0x08, 0x08, 
  0x41, 0x21, 0x21, 0x21, 0x21, 0x21, 0x21, 0x00, 0x23, 0x21, 0x21, 0x21, 
  0x21, 0x21, 0x41, 0x21, 0x00, 0x04, 0x00, 0x12, 0x1E, 0x49, 0x31, 0x00, 
  0x04, 0x08, 0x00, 0x08, 0x0C, 0x00, 0x0C, 0x02, 0x21, 0x08, 0x02, 0x21, 
  0x10, 0x21, 0x21, 0x04, 0x21, 0x10, 0x0C, 0x0C, 0x08, 0x00, 0x04, 0x04, 
  0x59, 0x21, 0x21, 0x02, 0x11, 0x01, 0x01, 0x22, 0x21, 0x08, 0x21, 0x11, 
  0x01, 0x41, 0x21, 0x21, 0x01, 0x21, 0x21, 0x20, 0x08, 0x21, 0x0C, 0x55, 
  0x41, 0x08, 0x02, 0x04, 0x10, 0x08, 0x00, 0x00, 0x00, 0x21, 0x21, 0x21, 
  0x21, 0x01, 0x04, 0x21, 0x21, 0x08, 0x10, 0x11, 0x08, 0x49, 0x21, 0x21, 
  0x21, 0x21, 0x02, 0x20, 0x04, 0x21, 0x0C, 0x55, 0x22, 0x21, 0x01, 0x04, 
  0x08, 0x08, 0x00, 0x21, 0x21, 0x21, 0x21, 0x21, 0x21, 0x21, 0x21, 0x21, 
  0x21, 0x21, 0x21, 0x21, 0x21, 0x21, 0x21, 0x21, 0x21, 0x21, 0x21, 0x21, 
  0x21, 0x21, 0x21, 0x21, 0x21, 0x21, 0x21, 0x21, 0x21, 0x21, 0x21, 0x21, 
  0x00, 0x04, 0x1C, 0x27, 0x21, 0x08, 0x08, 0x21, 0x00, 0x41, 0x21, 0x24, 
  0x21, 0x00, 0x21, 0x21, 0x00, 0x21, 0x21, 0x21, 0x21, 0x21, 0x21, 0x21, 
  0x00, 0x21, 0x21, 0x12, 0x21, 0x21, 0x21, 0x04, 0x21, 0x21, 0x21, 0x21, 
  0x21, 0x21, 0x11, 0x02, 0x01, 0x01, 0x01, 0x01, 0x08, 0x08, 0x08, 0x08, 
  0x22, 0x21, 0x22, 0x22, 0x22, 0x22, 0x22, 0x22, 0x21, 0x21, 0x21, 0x21, 
  0x21, 0x08, 0x01, 0x11, 0x21, 0x21, 0x21, 0x21, 0x21, 0x21, 0x09, 0x21, 
  0x01, 0x01, 0x01, 0x01, 0x08, 0x08, 0x08, 0x08, 0x22, 0x21, 0x21, 0x21, 
  0x21, 0x21, 0x21, 0x0C, 0x21, 0x21, 0x21, 0x21, 0x21, 0x21, 0x23, 0x21, 
  0x00, 0x04, 0x00, 0x12, 0x08, 0x30, 0x4E, 0x00, 0x08, 0x04, 0x00, 0x00, 
  0x0C, 0x00, 0x0C, 0x02, 0x1E, 0x3E, 0x3F, 0x1E, 0x10, 0x1E, 0x1E, 0x04, 
  0x1E, 0x0E, 0x0C, 0x0C, 0x10, 0x00, 0x02, 0x04, 0x01, 0x21, 0x1F, 0x3C, 
  0x0F, 0x3F, 0x01, 0x3C, 0x21, 0x3E, 0x1E, 0x21, 0x3F, 0x41, 0x21, 0x1E, 
  0x01, 0x1E, 0x21, 0x1F, 0x08, 0x1E, 0x0C, 0x63, 0x41, 0x08, 0x3F, 0x04, 
  0x10, 0x08, 0x00, 0x00, 0x00, 0x3E, 0x1F, 0x1E, 0x3E, 0x3E, 0x04, 0x3E, 
  0x21, 0x3E, 0x10, 0x21, 0x3E, 0x49, 0x21, 0x1E, 0x1F, 0x3E, 0x02, 0x1F, 
  0x38, 0x3E, 0x0C, 0x63, 0x41, 0x3E, 0x3F, 0x04, 0x08, 0x08, 0x00, 0x3F, 
  0x3F, 0x3F, 0x3F, 0x3F, 0x3F, 0x3F, 0x3F, 0x3F, 0x3F, 0x3F, 0x3F, 0x3F, 
  0x3F, 0x3F, 0x3F, 0x3F, 0x3F, 0x3F, 0x3F, 0x3F, 0x3F, 0x3F, 0x3F, 0x3F, 
  0x3F, 0x3F, 0x3F, 0x3F, 0x3F, 0x3F, 0x3F, 0x3F, 0x00, 0x04, 0x88, 0x18, 
  0x00, 0x08, 0x08, 0x3F, 0x00, 0x22, 0x3F, 0x48, 0x3F, 0x00, 0x3F, 0x3F, 
  0x00, 0x3F, 0x3F, 0x3F, 0x3F, 0x3F, 0x3F, 0x3F, 0x00, 0x3F, 0x3F, 0x09, 
  0x3F, 0x3F, 0x3F, 0x02, 0x21, 0x21, 0x21, 0x21, 0x21, 0x21, 0x71, 0x3C, 
  0x3F, 0x3F, 0x3F, 0x3F, 0x3E, 0x3E, 0x3E, 0x3E, 0x1E, 0x21, 0x1C, 0x1C, 
  0x1C, 0x1C, 0x1C, 0x00, 0x1E, 0x1E, 0x1E, 0x1E, 0x1E, 0x08, 0x01, 0x0D, 
  0x3E, 0x3E, 0x3E, 0x3E, 0x3E, 0x3E, 0x76, 0x1E, 0x3E, 0x3E, 0x3E, 0x3E, 
  0x3E, 0x3E, 0x3E, 0x3E, 0x1C, 0x21, 0x1E, 0x1E, 0x1E, 0x1E, 0x1E, 0x0C, 
  0x1E, 0x3E, 0x3E, 0x3E, 0x3E, 0x3E, 0x1D, 0x3E, 0x00, 0x00, 0x00, 0x00, 
  0x08, 0x00, 0x00, 0x00, 0x08, 0x04, 0x00, 0x00, 0x08, 0x00, 0x00, 0x01, 
  0x00, 0x00, 0x00, 0x00, 0x00, 0x00, 0x00, 0x00, 0x00, 0x00, 0x00, 0x08, 
  0x00, 0x00, 0x00, 0x00, 0x02, 0x00, 0x00, 0x00, 0x00, 0x00, 0x00, 0x00, 
  0x00, 0x00, 0x00, 0x00, 0x00, 0x00, 0x00, 0x00, 0x00, 0x10, 0x00, 0x00, 
  0x00, 0x00, 0x00, 0x00, 0x00, 0x00, 0x00, 0x04, 0x20, 0x08, 0x00, 0x00, 
  0x00, 0x00, 0x00, 0x00, 0x00, 0x00, 0x00, 0x20, 0x00, 0x00, 0x10, 0x00, 
  0x00, 0x00, 0x00, 0x00, 0x01, 0x20, 0x00, 0x00, 0x00, 0x00, 0x00, 0x00, 
  0x00, 0x20, 0x00, 0x04, 0x08, 0x08, 0x00, 0x00, 0x00, 0x00, 0x00, 0x00, 
  0x00, 0x00, 0x00, 0x00, 0x00, 0x00, 0x00, 0x00, 0x00, 0x00, 0x00, 0x00, 
  0x00, 0x00, 0x00, 0x00, 0x00, 0x00, 0x00, 0x00, 0x00, 0x00, 0x00, 0x00, 
  0x00, 0x00, 0x00, 0x00, 0x00, 0x04, 0x08, 0x00, 0x00, 0x00, 0x08, 0x00, 
  0x00, 0x1C, 0x00, 0x00, 0x00, 0x00, 0x00, 0x00, 0x00, 0x00, 0x00, 0x00, 
  0x00, 0x00, 0x00, 0x00, 0x08, 0x00, 0x00, 0x00, 0x00, 0x00, 0x00, 0x01, 
  0x00, 0x00, 0x00, 0x00, 0x00, 0x00, 0x00, 0x08, 0x00, 0x00, 0x00, 0x00, 
  0x00, 0x00, 0x00, 0x00, 0x00, 0x00, 0x00, 0x00, 0x00, 0x00, 0x00, 0x00, 
  0x01, 0x00, 0x00, 0x00, 0x00, 0x00, 0x00, 0x00, 0x00, 0x00, 0x00, 0x00, 
  0x00, 0x00, 0x00, 0x08, 0x00, 0x00, 0x00, 0x00, 0x00, 0x00, 0x00, 0x00, 
  0x00, 0x00, 0x00, 0x00, 0x00, 0x00, 0x00, 0x00, 0x01, 0x00, 0x00, 0x00, 
  0x00, 0x20, 0x01, 0x20, 0x00, 0x00, 0x00, 0x00, 0x00, 0x00, 0x00, 0x00, 
  0x10, 0x02, 0x00, 0x00, 0x08, 0x00, 0x00, 0x01, 0x00, 0x00, 0x00, 0x00, 
  0x00, 0x00, 0x00, 0x00, 0x00, 0x00, 0x00, 0x08, 0x00, 0x00, 0x00, 0x00, 
  0x7C, 0x00, 0x00, 0x00, 0x00, 0x00, 0x00, 0x00, 0x00, 0x00, 0x00, 0x00, 
  0x00, 0x00, 0x00, 0x00, 0x00, 0x20, 0x00, 0x00, 0x00, 0x00, 0x00, 0x00, 
  0x00, 0x00, 0x00, 0x3C, 0x20, 0x0F, 0x80, 0x7F, 0x00, 0x00, 0x00, 0x00, 
  0x00, 0x00, 0x00, 0x20, 0x00, 0x00, 0x10, 0x00, 0x00, 0x00, 0x00, 0x00, 
  0x01, 0x20, 0x00, 0x00, 0x00, 0x00, 0x00, 0x00, 0x00, 0x20, 0x00, 0x38, 
  0x08, 0x07, 0x00, 0x00, 0x00, 0x00, 0x00, 0x00, 0x00, 0x00, 0x00, 0x00, 
  0x00, 0x00, 0x00, 0x00, 0x00, 0x00, 0x00, 0x00, 0x00, 0x00, 0x00, 0x00, 
  0x00, 0x00, 0x00, 0x00, 0x00, 0x00, 0x00, 0x00, 0x00, 0x00, 0x00, 0x00, 
  0x00, 0x04, 0x00, 0x00, 0x00, 0x00, 0x08, 0x00, 0x00, 0x00, 0x00, 0x00, 
  0x00, 0x00, 0x00, 0x00, 0x00, 0x00, 0x00, 0x00, 0x00, 0x00, 0x00, 0x00, 
  0x08, 0x00, 0x00, 0x00, 0x00, 0x00, 0x00, 0x21, 0x00, 0x00, 0x00, 0x00, 
  0x00, 0x00, 0x00, 0x08, 0x00, 0x00, 0x00, 0x00, 0x00, 0x00, 0x00, 0x00, 
  0x00, 0x00, 0x00, 0x00, 0x00, 0x00, 0x00, 0x00, 0x00, 0x00, 0x00, 0x00, 
  0x00, 0x00, 0x00, 0x00, 0x00, 0x00, 0x00, 0x00, 0x00, 0x00, 0x00, 0x08, 
  0x00, 0x00, 0x00, 0x00, 0x00, 0x00, 0x00, 0x00, 0x00, 0x00, 0x00, 0x00, 
  0x00, 0x00, 0x00, 0x00, 0x00, 0x00, 0x00, 0x00, 0x00, 0x20, 0x01, 0x20, 
  0x00, 0x00, 0x00, 0x00, 0x00, 0x00, 0x00, 0x00, 0x00, 0x00, 0x00, 0x00, 
  0x04, 0x00, 0x00, 0x00, 0x00, 0x00, 0x00, 0x00, 0x00, 0x00, 0x00, 0x00, 
  0x00, 0x00, 0x00, 0x04, 0x00, 0x00, 0x00, 0x00, 0x00, 0x00, 0x00, 0x00, 
  0x00, 0x00, 0x00, 0x00, 0x00, 0x00, 0x00, 0x00, 0x00, 0x00, 0x00, 0x00, 
  0x00, 0x00, 0x00, 0x00, 0x00, 0x00, 0x00, 0x00, 0x00, 0x00, 0x00, 0x00, 
  0x00, 0x00, 0x00, 0x00, 0x00, 0x00, 0x00, 0x00, 0x00, 0x00, 0x00, 0x1E, 
  0x00, 0x00, 0x0E, 0x00, 0x00, 0x00, 0x00, 0x00, 0x01, 0x20, 0x00, 0x00, 
  0x00, 0x00, 0x00, 0x00, 0x00, 0x1E, 0x00, 0x00, 0x00, 0x00, 0x00, 0x00, 
  0x00, 0x00, 0x00, 0x00, 0x00, 0x00, 0x00, 0x00, 0x00, 0x00, 0x00, 0x00, 
  0x00, 0x00, 0x00, 0x00, 0x00, 0x00, 0x00, 0x00, 0x00, 0x00, 0x00, 0x00, 
  0x00, 0x00, 0x00, 0x00, 0x00, 0x00, 0x00, 0x00, 0x00, 0x04, 0x00, 0x00, 
  0x00, 0x00, 0x00, 0x00, 0x00, 0x00, 0x00, 0x00, 0x00, 0x00, 0x00, 0x00, 
  0x00, 0x00, 0x00, 0x00, 0x00, 0x00, 0x00, 0x00, 0x06, 0x00, 0x00, 0x00, 
  0x00, 0x00, 0x00, 0x1E, 0x00, 0x00, 0x00, 0x00, 0x00, 0x00, 0x00, 0x06, 
  0x00, 0x00, 0x00, 0x00, 0x00, 0x00, 0x00, 0x00, 0x00, 0x00, 0x00, 0x00, 
  0x00, 0x00, 0x00, 0x00, 0x00, 0x00, 0x00, 0x00, 0x00, 0x00, 0x00, 0x00, 
  0x00, 0x00, 0x00, 0x00, 0x00, 0x00, 0x00, 0x06, 0x00, 0x00, 0x00, 0x00, 
  0x00, 0x00, 0x00, 0x00, 0x00, 0x00, 0x00, 0x00, 0x00, 0x00, 0x00, 0x00, 
  0x00, 0x00, 0x00, 0x00, 0x00, 0x1E, 0x01, 0x1E, };
