solid OpenSCAD_Model
  facet normal -0.309037 0.95105 0
    outer loop
      vertex 14.6326 16.1771 0
      vertex 13.0674 15.6685 0.751
      vertex 14.6326 16.1771 0.751
    endloop
  endfacet
  facet normal -0.309037 0.95105 0
    outer loop
      vertex 13.0674 15.6685 0.751
      vertex 14.6326 16.1771 0
      vertex 13.0674 15.6685 0
    endloop
  endfacet
  facet normal -0.309037 -0.95105 0
    outer loop
      vertex 13.0674 18.3315 0
      vertex 14.6326 17.8229 0.751
      vertex 13.0674 18.3315 0.751
    endloop
  endfacet
  facet normal -0.309037 -0.95105 -0
    outer loop
      vertex 14.6326 17.8229 0.751
      vertex 13.0674 18.3315 0
      vertex 14.6326 17.8229 0
    endloop
  endfacet
  facet normal 0.809015 -0.587789 0
    outer loop
      vertex 12.1 17 0.751
      vertex 13.0674 18.3315 0
      vertex 13.0674 18.3315 0.751
    endloop
  endfacet
  facet normal 0.809015 -0.587789 0
    outer loop
      vertex 13.0674 18.3315 0
      vertex 12.1 17 0.751
      vertex 12.1 17 0
    endloop
  endfacet
  facet normal -1 0 0
    outer loop
      vertex 14.6326 16.1771 0
      vertex 14.6326 17.8229 0.751
      vertex 14.6326 17.8229 0
    endloop
  endfacet
  facet normal -1 -0 0
    outer loop
      vertex 14.6326 17.8229 0.751
      vertex 14.6326 16.1771 0
      vertex 14.6326 16.1771 0.751
    endloop
  endfacet
  facet normal 0.809015 0.587789 0
    outer loop
      vertex 13.0674 15.6685 0.751
      vertex 12.1 17 0
      vertex 12.1 17 0.751
    endloop
  endfacet
  facet normal 0.809015 0.587789 0
    outer loop
      vertex 12.1 17 0
      vertex 13.0674 15.6685 0.751
      vertex 13.0674 15.6685 0
    endloop
  endfacet
  facet normal 1 -0 0
    outer loop
      vertex 10.555 12.81 1.001
      vertex 10.555 21.19 0.751
      vertex 10.555 21.19 1.001
    endloop
  endfacet
  facet normal 1 0 0
    outer loop
      vertex 10.555 21.19 0.751
      vertex 10.555 12.81 1.001
      vertex 10.555 12.81 0.751
    endloop
  endfacet
  facet normal 0 0 1
    outer loop
      vertex 16.445 21.19 0.751
      vertex 14.6326 17.8229 0.751
      vertex 16.445 12.81 0.751
    endloop
  endfacet
  facet normal 0 0 1
    outer loop
      vertex 16.445 21.19 0.751
      vertex 13.0674 18.3315 0.751
      vertex 14.6326 17.8229 0.751
    endloop
  endfacet
  facet normal 0 0 1
    outer loop
      vertex 13.0674 18.3315 0.751
      vertex 10.555 21.19 0.751
      vertex 12.1 17 0.751
    endloop
  endfacet
  facet normal -0 0 1
    outer loop
      vertex 10.555 21.19 0.751
      vertex 13.0674 18.3315 0.751
      vertex 16.445 21.19 0.751
    endloop
  endfacet
  facet normal -0 0 1
    outer loop
      vertex 14.6326 16.1771 0.751
      vertex 16.445 12.81 0.751
      vertex 14.6326 17.8229 0.751
    endloop
  endfacet
  facet normal -0 0 1
    outer loop
      vertex 13.0674 15.6685 0.751
      vertex 16.445 12.81 0.751
      vertex 14.6326 16.1771 0.751
    endloop
  endfacet
  facet normal 0 0 1
    outer loop
      vertex 13.0674 15.6685 0.751
      vertex 10.555 12.81 0.751
      vertex 16.445 12.81 0.751
    endloop
  endfacet
  facet normal 0 0 1
    outer loop
      vertex 12.1 17 0.751
      vertex 10.555 12.81 0.751
      vertex 13.0674 15.6685 0.751
    endloop
  endfacet
  facet normal 0 0 1
    outer loop
      vertex 10.555 12.81 0.751
      vertex 12.1 17 0.751
      vertex 10.555 21.19 0.751
    endloop
  endfacet
  facet normal -1 0 0
    outer loop
      vertex 16.445 12.81 0.751
      vertex 16.445 21.19 1.001
      vertex 16.445 21.19 0.751
    endloop
  endfacet
  facet normal -1 -0 0
    outer loop
      vertex 16.445 21.19 1.001
      vertex 16.445 12.81 0.751
      vertex 16.445 12.81 1.001
    endloop
  endfacet
  facet normal 0 -1 0
    outer loop
      vertex 10.555 21.19 0.751
      vertex 16.445 21.19 1.001
      vertex 10.555 21.19 1.001
    endloop
  endfacet
  facet normal 0 -1 -0
    outer loop
      vertex 16.445 21.19 1.001
      vertex 10.555 21.19 0.751
      vertex 16.445 21.19 0.751
    endloop
  endfacet
  facet normal 0 1 -0
    outer loop
      vertex 16.445 12.81 0.751
      vertex 10.555 12.81 1.001
      vertex 16.445 12.81 1.001
    endloop
  endfacet
  facet normal 0 1 0
    outer loop
      vertex 10.555 12.81 1.001
      vertex 16.445 12.81 0.751
      vertex 10.555 12.81 0.751
    endloop
  endfacet
  facet normal -0.309037 0.95105 0
    outer loop
      vertex 14.6326 36.1771 0
      vertex 13.0674 35.6685 0.751
      vertex 14.6326 36.1771 0.751
    endloop
  endfacet
  facet normal -0.309037 0.95105 0
    outer loop
      vertex 13.0674 35.6685 0.751
      vertex 14.6326 36.1771 0
      vertex 13.0674 35.6685 0
    endloop
  endfacet
  facet normal -0.309037 -0.95105 0
    outer loop
      vertex 13.0674 38.3315 0
      vertex 14.6326 37.8229 0.751
      vertex 13.0674 38.3315 0.751
    endloop
  endfacet
  facet normal -0.309037 -0.95105 -0
    outer loop
      vertex 14.6326 37.8229 0.751
      vertex 13.0674 38.3315 0
      vertex 14.6326 37.8229 0
    endloop
  endfacet
  facet normal 0.809015 -0.587789 0
    outer loop
      vertex 12.1 37 0.751
      vertex 13.0674 38.3315 0
      vertex 13.0674 38.3315 0.751
    endloop
  endfacet
  facet normal 0.809015 -0.587789 0
    outer loop
      vertex 13.0674 38.3315 0
      vertex 12.1 37 0.751
      vertex 12.1 37 0
    endloop
  endfacet
  facet normal -1 0 0
    outer loop
      vertex 14.6326 36.1771 0
      vertex 14.6326 37.8229 0.751
      vertex 14.6326 37.8229 0
    endloop
  endfacet
  facet normal -1 -0 0
    outer loop
      vertex 14.6326 37.8229 0.751
      vertex 14.6326 36.1771 0
      vertex 14.6326 36.1771 0.751
    endloop
  endfacet
  facet normal 0.809015 0.587789 0
    outer loop
      vertex 13.0674 35.6685 0.751
      vertex 12.1 37 0
      vertex 12.1 37 0.751
    endloop
  endfacet
  facet normal 0.809015 0.587789 0
    outer loop
      vertex 12.1 37 0
      vertex 13.0674 35.6685 0.751
      vertex 13.0674 35.6685 0
    endloop
  endfacet
  facet normal 1 -0 0
    outer loop
      vertex 10.555 32.81 1.001
      vertex 10.555 41.19 0.751
      vertex 10.555 41.19 1.001
    endloop
  endfacet
  facet normal 1 0 0
    outer loop
      vertex 10.555 41.19 0.751
      vertex 10.555 32.81 1.001
      vertex 10.555 32.81 0.751
    endloop
  endfacet
  facet normal 0 0 1
    outer loop
      vertex 16.445 41.19 0.751
      vertex 14.6326 37.8229 0.751
      vertex 16.445 32.81 0.751
    endloop
  endfacet
  facet normal 0 0 1
    outer loop
      vertex 16.445 41.19 0.751
      vertex 13.0674 38.3315 0.751
      vertex 14.6326 37.8229 0.751
    endloop
  endfacet
  facet normal 0 0 1
    outer loop
      vertex 13.0674 38.3315 0.751
      vertex 10.555 41.19 0.751
      vertex 12.1 37 0.751
    endloop
  endfacet
  facet normal -0 0 1
    outer loop
      vertex 10.555 41.19 0.751
      vertex 13.0674 38.3315 0.751
      vertex 16.445 41.19 0.751
    endloop
  endfacet
  facet normal -0 0 1
    outer loop
      vertex 14.6326 36.1771 0.751
      vertex 16.445 32.81 0.751
      vertex 14.6326 37.8229 0.751
    endloop
  endfacet
  facet normal -0 0 1
    outer loop
      vertex 13.0674 35.6685 0.751
      vertex 16.445 32.81 0.751
      vertex 14.6326 36.1771 0.751
    endloop
  endfacet
  facet normal 0 0 1
    outer loop
      vertex 13.0674 35.6685 0.751
      vertex 10.555 32.81 0.751
      vertex 16.445 32.81 0.751
    endloop
  endfacet
  facet normal 0 0 1
    outer loop
      vertex 12.1 37 0.751
      vertex 10.555 32.81 0.751
      vertex 13.0674 35.6685 0.751
    endloop
  endfacet
  facet normal 0 0 1
    outer loop
      vertex 10.555 32.81 0.751
      vertex 12.1 37 0.751
      vertex 10.555 41.19 0.751
    endloop
  endfacet
  facet normal -1 0 0
    outer loop
      vertex 16.445 32.81 0.751
      vertex 16.445 41.19 1.001
      vertex 16.445 41.19 0.751
    endloop
  endfacet
  facet normal -1 -0 0
    outer loop
      vertex 16.445 41.19 1.001
      vertex 16.445 32.81 0.751
      vertex 16.445 32.81 1.001
    endloop
  endfacet
  facet normal 0 -1 0
    outer loop
      vertex 10.555 41.19 0.751
      vertex 16.445 41.19 1.001
      vertex 10.555 41.19 1.001
    endloop
  endfacet
  facet normal 0 -1 -0
    outer loop
      vertex 16.445 41.19 1.001
      vertex 10.555 41.19 0.751
      vertex 16.445 41.19 0.751
    endloop
  endfacet
  facet normal 0 1 -0
    outer loop
      vertex 16.445 32.81 0.751
      vertex 10.555 32.81 1.001
      vertex 16.445 32.81 1.001
    endloop
  endfacet
  facet normal 0 1 0
    outer loop
      vertex 10.555 32.81 1.001
      vertex 16.445 32.81 0.751
      vertex 10.555 32.81 0.751
    endloop
  endfacet
  facet normal -0.309027 0.951053 0
    outer loop
      vertex 23.963 5.86882 8.001
      vertex 22.286 5.32391 13
      vertex 23.963 5.86882 13
    endloop
  endfacet
  facet normal -0.309027 0.951053 0
    outer loop
      vertex 22.286 5.32391 13
      vertex 23.963 5.86882 8.001
      vertex 22.286 5.32391 8.001
    endloop
  endfacet
  facet normal -0.309022 -0.951055 0
    outer loop
      vertex 22.286 8.17708 8.001
      vertex 23.963 7.63218 13
      vertex 22.286 8.17708 13
    endloop
  endfacet
  facet normal -0.309022 -0.951055 -0
    outer loop
      vertex 23.963 7.63218 13
      vertex 22.286 8.17708 8.001
      vertex 23.963 7.63218 8.001
    endloop
  endfacet
  facet normal 0.809009 -0.587796 0
    outer loop
      vertex 21.2495 6.7505 13
      vertex 22.286 8.17708 8.001
      vertex 22.286 8.17708 13
    endloop
  endfacet
  facet normal 0.809009 -0.587796 0
    outer loop
      vertex 22.286 8.17708 8.001
      vertex 21.2495 6.7505 13
      vertex 21.2495 6.7505 8.001
    endloop
  endfacet
  facet normal -1 0 0
    outer loop
      vertex 23.963 5.86882 8.001
      vertex 23.963 7.63218 13
      vertex 23.963 7.63218 8.001
    endloop
  endfacet
  facet normal -1 -0 0
    outer loop
      vertex 23.963 7.63218 13
      vertex 23.963 5.86882 8.001
      vertex 23.963 5.86882 13
    endloop
  endfacet
  facet normal 0 0 1
    outer loop
      vertex 22.286 8.17708 8.001
      vertex 23.963 5.86882 8.001
      vertex 23.963 7.63218 8.001
    endloop
  endfacet
  facet normal 0 0 1
    outer loop
      vertex 22.286 8.17708 8.001
      vertex 22.286 5.32391 8.001
      vertex 23.963 5.86882 8.001
    endloop
  endfacet
  facet normal 0 -0 1
    outer loop
      vertex 22.286 5.32391 8.001
      vertex 22.286 8.17708 8.001
      vertex 21.2495 6.7505 8.001
    endloop
  endfacet
  facet normal 0.809011 0.587793 0
    outer loop
      vertex 22.286 5.32391 13
      vertex 21.2495 6.7505 8.001
      vertex 21.2495 6.7505 13
    endloop
  endfacet
  facet normal 0.809011 0.587793 0
    outer loop
      vertex 21.2495 6.7505 8.001
      vertex 22.286 5.32391 13
      vertex 22.286 5.32391 8.001
    endloop
  endfacet
  facet normal -0.309022 0.951055 0
    outer loop
      vertex 23.963 47.3688 8.001
      vertex 22.286 46.8239 13
      vertex 23.963 47.3688 13
    endloop
  endfacet
  facet normal -0.309022 0.951055 0
    outer loop
      vertex 22.286 46.8239 13
      vertex 23.963 47.3688 8.001
      vertex 22.286 46.8239 8.001
    endloop
  endfacet
  facet normal -0.309022 -0.951055 0
    outer loop
      vertex 22.286 49.6771 8.001
      vertex 23.963 49.1322 13
      vertex 22.286 49.6771 13
    endloop
  endfacet
  facet normal -0.309022 -0.951055 -0
    outer loop
      vertex 23.963 49.1322 13
      vertex 22.286 49.6771 8.001
      vertex 23.963 49.1322 8.001
    endloop
  endfacet
  facet normal 0.809013 -0.587791 0
    outer loop
      vertex 21.2495 48.2505 13
      vertex 22.286 49.6771 8.001
      vertex 22.286 49.6771 13
    endloop
  endfacet
  facet normal 0.809013 -0.587791 0
    outer loop
      vertex 22.286 49.6771 8.001
      vertex 21.2495 48.2505 13
      vertex 21.2495 48.2505 8.001
    endloop
  endfacet
  facet normal -1 0 0
    outer loop
      vertex 23.963 47.3688 8.001
      vertex 23.963 49.1322 13
      vertex 23.963 49.1322 8.001
    endloop
  endfacet
  facet normal -1 -0 0
    outer loop
      vertex 23.963 49.1322 13
      vertex 23.963 47.3688 8.001
      vertex 23.963 47.3688 13
    endloop
  endfacet
  facet normal 0 0 1
    outer loop
      vertex 22.286 49.6771 8.001
      vertex 23.963 47.3688 8.001
      vertex 23.963 49.1322 8.001
    endloop
  endfacet
  facet normal 0 0 1
    outer loop
      vertex 22.286 49.6771 8.001
      vertex 22.286 46.8239 8.001
      vertex 23.963 47.3688 8.001
    endloop
  endfacet
  facet normal 0 -0 1
    outer loop
      vertex 22.286 46.8239 8.001
      vertex 22.286 49.6771 8.001
      vertex 21.2495 48.2505 8.001
    endloop
  endfacet
  facet normal 0.809013 0.587791 0
    outer loop
      vertex 22.286 46.8239 13
      vertex 21.2495 48.2505 8.001
      vertex 21.2495 48.2505 13
    endloop
  endfacet
  facet normal 0.809013 0.587791 0
    outer loop
      vertex 21.2495 48.2505 8.001
      vertex 22.286 46.8239 13
      vertex 22.286 46.8239 8.001
    endloop
  endfacet
  facet normal -0.309019 0.951056 0
    outer loop
      vertex 5.46303 5.86882 8.001
      vertex 3.78598 5.32391 13
      vertex 5.46303 5.86882 13
    endloop
  endfacet
  facet normal -0.309019 0.951056 0
    outer loop
      vertex 3.78598 5.32391 13
      vertex 5.46303 5.86882 8.001
      vertex 3.78598 5.32391 8.001
    endloop
  endfacet
  facet normal -0.309014 -0.951058 0
    outer loop
      vertex 3.78598 8.17708 8.001
      vertex 5.46303 7.63218 13
      vertex 3.78598 8.17708 13
    endloop
  endfacet
  facet normal -0.309014 -0.951058 -0
    outer loop
      vertex 5.46303 7.63218 13
      vertex 3.78598 8.17708 8.001
      vertex 5.46303 7.63218 8.001
    endloop
  endfacet
  facet normal 0.809015 -0.587789 0
    outer loop
      vertex 2.7495 6.7505 13
      vertex 3.78598 8.17708 8.001
      vertex 3.78598 8.17708 13
    endloop
  endfacet
  facet normal 0.809015 -0.587789 0
    outer loop
      vertex 3.78598 8.17708 8.001
      vertex 2.7495 6.7505 13
      vertex 2.7495 6.7505 8.001
    endloop
  endfacet
  facet normal -1 0 0
    outer loop
      vertex 5.46303 5.86882 8.001
      vertex 5.46303 7.63218 13
      vertex 5.46303 7.63218 8.001
    endloop
  endfacet
  facet normal -1 -0 0
    outer loop
      vertex 5.46303 7.63218 13
      vertex 5.46303 5.86882 8.001
      vertex 5.46303 5.86882 13
    endloop
  endfacet
  facet normal 0 0 1
    outer loop
      vertex 3.78598 8.17708 8.001
      vertex 5.46303 5.86882 8.001
      vertex 5.46303 7.63218 8.001
    endloop
  endfacet
  facet normal 0 0 1
    outer loop
      vertex 3.78598 8.17708 8.001
      vertex 3.78598 5.32391 8.001
      vertex 5.46303 5.86882 8.001
    endloop
  endfacet
  facet normal 0 -0 1
    outer loop
      vertex 3.78598 5.32391 8.001
      vertex 3.78598 8.17708 8.001
      vertex 2.7495 6.7505 8.001
    endloop
  endfacet
  facet normal 0.809017 0.587786 0
    outer loop
      vertex 3.78598 5.32391 13
      vertex 2.7495 6.7505 8.001
      vertex 2.7495 6.7505 13
    endloop
  endfacet
  facet normal 0.809017 0.587786 0
    outer loop
      vertex 2.7495 6.7505 8.001
      vertex 3.78598 5.32391 13
      vertex 3.78598 5.32391 8.001
    endloop
  endfacet
  facet normal -0.309014 0.951058 0
    outer loop
      vertex 5.46303 47.3688 8.001
      vertex 3.78598 46.8239 13
      vertex 5.46303 47.3688 13
    endloop
  endfacet
  facet normal -0.309014 0.951058 0
    outer loop
      vertex 3.78598 46.8239 13
      vertex 5.46303 47.3688 8.001
      vertex 3.78598 46.8239 8.001
    endloop
  endfacet
  facet normal -0.309014 -0.951058 0
    outer loop
      vertex 3.78598 49.6771 8.001
      vertex 5.46303 49.1322 13
      vertex 3.78598 49.6771 13
    endloop
  endfacet
  facet normal -0.309014 -0.951058 -0
    outer loop
      vertex 5.46303 49.1322 13
      vertex 3.78598 49.6771 8.001
      vertex 5.46303 49.1322 8.001
    endloop
  endfacet
  facet normal 0.809018 -0.587783 0
    outer loop
      vertex 2.7495 48.2505 13
      vertex 3.78598 49.6771 8.001
      vertex 3.78598 49.6771 13
    endloop
  endfacet
  facet normal 0.809018 -0.587783 0
    outer loop
      vertex 3.78598 49.6771 8.001
      vertex 2.7495 48.2505 13
      vertex 2.7495 48.2505 8.001
    endloop
  endfacet
  facet normal -1 0 0
    outer loop
      vertex 5.46303 47.3688 8.001
      vertex 5.46303 49.1322 13
      vertex 5.46303 49.1322 8.001
    endloop
  endfacet
  facet normal -1 -0 0
    outer loop
      vertex 5.46303 49.1322 13
      vertex 5.46303 47.3688 8.001
      vertex 5.46303 47.3688 13
    endloop
  endfacet
  facet normal 0 0 1
    outer loop
      vertex 3.78598 49.6771 8.001
      vertex 5.46303 47.3688 8.001
      vertex 5.46303 49.1322 8.001
    endloop
  endfacet
  facet normal 0 0 1
    outer loop
      vertex 3.78598 49.6771 8.001
      vertex 3.78598 46.8239 8.001
      vertex 5.46303 47.3688 8.001
    endloop
  endfacet
  facet normal 0 -0 1
    outer loop
      vertex 3.78598 46.8239 8.001
      vertex 3.78598 49.6771 8.001
      vertex 2.7495 48.2505 8.001
    endloop
  endfacet
  facet normal 0.809018 0.587783 0
    outer loop
      vertex 3.78598 46.8239 13
      vertex 2.7495 48.2505 8.001
      vertex 2.7495 48.2505 13
    endloop
  endfacet
  facet normal 0.809018 0.587783 0
    outer loop
      vertex 2.7495 48.2505 8.001
      vertex 3.78598 46.8239 13
      vertex 3.78598 46.8239 8.001
    endloop
  endfacet
  facet normal -1 0 0
    outer loop
      vertex 0 0 0
      vertex 0 55 13
      vertex 0 55 0
    endloop
  endfacet
  facet normal -1 -0 0
    outer loop
      vertex 0 55 13
      vertex 0 0 0
      vertex 0 0 13
    endloop
  endfacet
  facet normal 0 0 -1
    outer loop
      vertex 14.6326 37.8229 0
      vertex 13.1137 51.3112 0
      vertex 14.5113 51.7653 0
    endloop
  endfacet
  facet normal 0 0 -1
    outer loop
      vertex 13.0674 38.3315 0
      vertex 13.1137 51.3112 0
      vertex 14.6326 37.8229 0
    endloop
  endfacet
  facet normal 0 0 -1
    outer loop
      vertex 0 55 0
      vertex 13.1137 51.3112 0
      vertex 13.0674 38.3315 0
    endloop
  endfacet
  facet normal 0 0 -1
    outer loop
      vertex 0 55 0
      vertex 13.0674 38.3315 0
      vertex 12.1 37 0
    endloop
  endfacet
  facet normal 0 0 -1
    outer loop
      vertex 13.0674 18.3315 0
      vertex 14.6326 36.1771 0
      vertex 14.6326 17.8229 0
    endloop
  endfacet
  facet normal 0 0 -1
    outer loop
      vertex 13.0674 18.3315 0
      vertex 13.0674 35.6685 0
      vertex 14.6326 36.1771 0
    endloop
  endfacet
  facet normal 0 0 -1
    outer loop
      vertex 12.1 17 0
      vertex 13.0674 35.6685 0
      vertex 13.0674 18.3315 0
    endloop
  endfacet
  facet normal -0 0 -1
    outer loop
      vertex 13.0674 35.6685 0
      vertex 12.1 17 0
      vertex 12.1 37 0
    endloop
  endfacet
  facet normal 0 0 -1
    outer loop
      vertex 14.6326 17.8229 0
      vertex 27 0 0
      vertex 14.6326 16.1771 0
    endloop
  endfacet
  facet normal 0 0 -1
    outer loop
      vertex 14.5113 3.23473 0
      vertex 27 0 0
      vertex 14.5113 1.76527 0
    endloop
  endfacet
  facet normal 0 0 -1
    outer loop
      vertex 27 0 0
      vertex 13.1137 1.31118 0
      vertex 14.5113 1.76527 0
    endloop
  endfacet
  facet normal -0 0 -1
    outer loop
      vertex 12.1 17 0
      vertex 0 0 0
      vertex 12.1 37 0
    endloop
  endfacet
  facet normal -0 0 -1
    outer loop
      vertex 13.0674 15.6685 0
      vertex 0 0 0
      vertex 12.1 17 0
    endloop
  endfacet
  facet normal -0 0 -1
    outer loop
      vertex 13.1137 1.31118 0
      vertex 0 0 0
      vertex 12.25 2.5 0
    endloop
  endfacet
  facet normal 0 0 -1
    outer loop
      vertex 0 0 0
      vertex 13.1137 1.31118 0
      vertex 27 0 0
    endloop
  endfacet
  facet normal 0 0 -1
    outer loop
      vertex 14.6326 36.1771 0
      vertex 27 0 0
      vertex 14.6326 17.8229 0
    endloop
  endfacet
  facet normal 0 0 -1
    outer loop
      vertex 27 0 0
      vertex 14.6326 36.1771 0
      vertex 27 55 0
    endloop
  endfacet
  facet normal 0 0 -1
    outer loop
      vertex 14.6326 37.8229 0
      vertex 27 55 0
      vertex 14.6326 36.1771 0
    endloop
  endfacet
  facet normal 0 0 -1
    outer loop
      vertex 14.5113 51.7653 0
      vertex 27 55 0
      vertex 14.6326 37.8229 0
    endloop
  endfacet
  facet normal 0 0 -1
    outer loop
      vertex 14.5113 53.2347 0
      vertex 27 55 0
      vertex 14.5113 51.7653 0
    endloop
  endfacet
  facet normal 0 0 -1
    outer loop
      vertex 13.1137 53.6888 0
      vertex 27 55 0
      vertex 14.5113 53.2347 0
    endloop
  endfacet
  facet normal 0 0 -1
    outer loop
      vertex 0 55 0
      vertex 12.1 37 0
      vertex 0 0 0
    endloop
  endfacet
  facet normal 0 0 -1
    outer loop
      vertex 13.1137 53.6888 0
      vertex 0 55 0
      vertex 27 55 0
    endloop
  endfacet
  facet normal 0 0 -1
    outer loop
      vertex 12.25 52.5 0
      vertex 0 55 0
      vertex 13.1137 53.6888 0
    endloop
  endfacet
  facet normal 0 0 -1
    outer loop
      vertex 13.1137 51.3112 0
      vertex 0 55 0
      vertex 12.25 52.5 0
    endloop
  endfacet
  facet normal 0 0 -1
    outer loop
      vertex 27 0 0
      vertex 14.5113 3.23473 0
      vertex 14.6326 16.1771 0
    endloop
  endfacet
  facet normal 0 0 -1
    outer loop
      vertex 13.1137 3.68882 0
      vertex 14.6326 16.1771 0
      vertex 14.5113 3.23473 0
    endloop
  endfacet
  facet normal 0 0 -1
    outer loop
      vertex 13.1137 3.68882 0
      vertex 13.0674 15.6685 0
      vertex 14.6326 16.1771 0
    endloop
  endfacet
  facet normal 0 0 -1
    outer loop
      vertex 0 0 0
      vertex 13.1137 3.68882 0
      vertex 12.25 2.5 0
    endloop
  endfacet
  facet normal -0 0 -1
    outer loop
      vertex 13.1137 3.68882 0
      vertex 0 0 0
      vertex 13.0674 15.6685 0
    endloop
  endfacet
  facet normal 0 0 1
    outer loop
      vertex 26 12.5 13
      vertex 22.286 8.17708 13
      vertex 23.963 7.63218 13
    endloop
  endfacet
  facet normal 0 0 1
    outer loop
      vertex 22.286 8.17708 13
      vertex 19.5 12.5 13
      vertex 21.2495 6.7505 13
    endloop
  endfacet
  facet normal -0 0 1
    outer loop
      vertex 19.5 12.5 13
      vertex 22.286 8.17708 13
      vertex 26 12.5 13
    endloop
  endfacet
  facet normal 0 0 1
    outer loop
      vertex 27 55 13
      vertex 26 42.5 13
      vertex 27 0 13
    endloop
  endfacet
  facet normal 0 0 1
    outer loop
      vertex 27 55 13
      vertex 23.963 49.1322 13
      vertex 26 42.5 13
    endloop
  endfacet
  facet normal 0 0 1
    outer loop
      vertex 27 55 13
      vertex 22.286 49.6771 13
      vertex 23.963 49.1322 13
    endloop
  endfacet
  facet normal 0 0 1
    outer loop
      vertex 22.286 49.6771 13
      vertex 19.5 54 13
      vertex 21.2495 48.2505 13
    endloop
  endfacet
  facet normal 0 0 1
    outer loop
      vertex 27 55 13
      vertex 19.5 54 13
      vertex 22.286 49.6771 13
    endloop
  endfacet
  facet normal 0 0 1
    outer loop
      vertex 27 55 13
      vertex 7.5 54 13
      vertex 19.5 54 13
    endloop
  endfacet
  facet normal 0 0 1
    outer loop
      vertex 7.5 54 13
      vertex 5.46303 49.1322 13
      vertex 7.5 42.5 13
    endloop
  endfacet
  facet normal 0 0 1
    outer loop
      vertex 7.5 54 13
      vertex 3.78598 49.6771 13
      vertex 5.46303 49.1322 13
    endloop
  endfacet
  facet normal 0 0 1
    outer loop
      vertex 1 42.5 13
      vertex 0 55 13
      vertex 1 12.5 13
    endloop
  endfacet
  facet normal 0 0 1
    outer loop
      vertex 2.7495 48.2505 13
      vertex 0 55 13
      vertex 1 42.5 13
    endloop
  endfacet
  facet normal 0 0 1
    outer loop
      vertex 3.78598 49.6771 13
      vertex 0 55 13
      vertex 2.7495 48.2505 13
    endloop
  endfacet
  facet normal 0 0 1
    outer loop
      vertex 7.5 54 13
      vertex 0 55 13
      vertex 3.78598 49.6771 13
    endloop
  endfacet
  facet normal -0 0 1
    outer loop
      vertex 0 55 13
      vertex 7.5 54 13
      vertex 27 55 13
    endloop
  endfacet
  facet normal -0 0 1
    outer loop
      vertex 26 12.5 13
      vertex 27 0 13
      vertex 26 42.5 13
    endloop
  endfacet
  facet normal -0 0 1
    outer loop
      vertex 23.963 7.63218 13
      vertex 27 0 13
      vertex 26 12.5 13
    endloop
  endfacet
  facet normal -0 0 1
    outer loop
      vertex 23.963 5.86882 13
      vertex 27 0 13
      vertex 23.963 7.63218 13
    endloop
  endfacet
  facet normal -0 0 1
    outer loop
      vertex 22.286 5.32391 13
      vertex 27 0 13
      vertex 23.963 5.86882 13
    endloop
  endfacet
  facet normal 0 0 1
    outer loop
      vertex 19.5 1 13
      vertex 21.2495 6.7505 13
      vertex 19.5 12.5 13
    endloop
  endfacet
  facet normal 0 0 1
    outer loop
      vertex 19.5 1 13
      vertex 22.286 5.32391 13
      vertex 21.2495 6.7505 13
    endloop
  endfacet
  facet normal -0 0 1
    outer loop
      vertex 19.5 1 13
      vertex 27 0 13
      vertex 22.286 5.32391 13
    endloop
  endfacet
  facet normal -0 0 1
    outer loop
      vertex 7.5 1 13
      vertex 27 0 13
      vertex 19.5 1 13
    endloop
  endfacet
  facet normal -0 0 1
    outer loop
      vertex 5.46303 5.86882 13
      vertex 7.5 1 13
      vertex 5.46303 7.63218 13
    endloop
  endfacet
  facet normal -0 0 1
    outer loop
      vertex 3.78598 5.32391 13
      vertex 7.5 1 13
      vertex 5.46303 5.86882 13
    endloop
  endfacet
  facet normal 0 0 1
    outer loop
      vertex 7.5 1 13
      vertex 0 0 13
      vertex 27 0 13
    endloop
  endfacet
  facet normal 0 0 1
    outer loop
      vertex 3.78598 5.32391 13
      vertex 0 0 13
      vertex 7.5 1 13
    endloop
  endfacet
  facet normal 0 0 1
    outer loop
      vertex 2.7495 6.7505 13
      vertex 0 0 13
      vertex 3.78598 5.32391 13
    endloop
  endfacet
  facet normal 0 0 1
    outer loop
      vertex 1 12.5 13
      vertex 0 0 13
      vertex 2.7495 6.7505 13
    endloop
  endfacet
  facet normal 0 0 1
    outer loop
      vertex 0 0 13
      vertex 1 12.5 13
      vertex 0 55 13
    endloop
  endfacet
  facet normal -0 0 1
    outer loop
      vertex 23.963 47.3688 13
      vertex 26 42.5 13
      vertex 23.963 49.1322 13
    endloop
  endfacet
  facet normal -0 0 1
    outer loop
      vertex 22.286 46.8239 13
      vertex 26 42.5 13
      vertex 23.963 47.3688 13
    endloop
  endfacet
  facet normal 0 0 1
    outer loop
      vertex 22.286 46.8239 13
      vertex 19.5 42.5 13
      vertex 26 42.5 13
    endloop
  endfacet
  facet normal 0 0 1
    outer loop
      vertex 21.2495 48.2505 13
      vertex 19.5 42.5 13
      vertex 22.286 46.8239 13
    endloop
  endfacet
  facet normal 0 0 1
    outer loop
      vertex 19.5 42.5 13
      vertex 21.2495 48.2505 13
      vertex 19.5 54 13
    endloop
  endfacet
  facet normal 0 0 1
    outer loop
      vertex 7.5 12.5 13
      vertex 5.46303 7.63218 13
      vertex 7.5 1 13
    endloop
  endfacet
  facet normal 0 0 1
    outer loop
      vertex 7.5 12.5 13
      vertex 3.78598 8.17708 13
      vertex 5.46303 7.63218 13
    endloop
  endfacet
  facet normal 0 0 1
    outer loop
      vertex 3.78598 8.17708 13
      vertex 1 12.5 13
      vertex 2.7495 6.7505 13
    endloop
  endfacet
  facet normal -0 0 1
    outer loop
      vertex 1 12.5 13
      vertex 3.78598 8.17708 13
      vertex 7.5 12.5 13
    endloop
  endfacet
  facet normal -0 0 1
    outer loop
      vertex 5.46303 47.3688 13
      vertex 7.5 42.5 13
      vertex 5.46303 49.1322 13
    endloop
  endfacet
  facet normal -0 0 1
    outer loop
      vertex 3.78598 46.8239 13
      vertex 7.5 42.5 13
      vertex 5.46303 47.3688 13
    endloop
  endfacet
  facet normal 0 0 1
    outer loop
      vertex 3.78598 46.8239 13
      vertex 1 42.5 13
      vertex 7.5 42.5 13
    endloop
  endfacet
  facet normal 0 0 1
    outer loop
      vertex 1 42.5 13
      vertex 3.78598 46.8239 13
      vertex 2.7495 48.2505 13
    endloop
  endfacet
  facet normal 1 -0 0
    outer loop
      vertex 27 0 13
      vertex 27 55 0
      vertex 27 55 13
    endloop
  endfacet
  facet normal 1 0 0
    outer loop
      vertex 27 55 0
      vertex 27 0 13
      vertex 27 0 0
    endloop
  endfacet
  facet normal 0 1 -0
    outer loop
      vertex 27 55 0
      vertex 0 55 13
      vertex 27 55 13
    endloop
  endfacet
  facet normal 0 1 0
    outer loop
      vertex 0 55 13
      vertex 27 55 0
      vertex 0 55 0
    endloop
  endfacet
  facet normal 0 -1 0
    outer loop
      vertex 0 0 0
      vertex 27 0 13
      vertex 0 0 13
    endloop
  endfacet
  facet normal 0 -1 -0
    outer loop
      vertex 27 0 13
      vertex 0 0 0
      vertex 27 0 0
    endloop
  endfacet
  facet normal 1 -0 0
    outer loop
      vertex 1 12.5 13
      vertex 1 42.5 1.001
      vertex 1 42.5 13
    endloop
  endfacet
  facet normal 1 0 0
    outer loop
      vertex 1 42.5 1.001
      vertex 1 12.5 13
      vertex 1 12.5 1.001
    endloop
  endfacet
  facet normal 0 0 1
    outer loop
      vertex 10.555 32.81 1.001
      vertex 1 12.5 1.001
      vertex 10.555 21.19 1.001
    endloop
  endfacet
  facet normal 0 0 1
    outer loop
      vertex 10.555 21.19 1.001
      vertex 1 12.5 1.001
      vertex 7.5 12.5 1.001
    endloop
  endfacet
  facet normal 0 0 1
    outer loop
      vertex 16.445 12.81 1.001
      vertex 13.1137 3.68882 1.001
      vertex 14.5113 3.23473 1.001
    endloop
  endfacet
  facet normal -0 0 1
    outer loop
      vertex 10.555 12.81 1.001
      vertex 13.1137 3.68882 1.001
      vertex 16.445 12.81 1.001
    endloop
  endfacet
  facet normal -0 0 1
    outer loop
      vertex 7.5 12.5 1.001
      vertex 13.1137 3.68882 1.001
      vertex 10.555 12.81 1.001
    endloop
  endfacet
  facet normal -0 0 1
    outer loop
      vertex 10.555 32.81 1.001
      vertex 16.445 21.19 1.001
      vertex 16.445 32.81 1.001
    endloop
  endfacet
  facet normal 0 0 1
    outer loop
      vertex 16.445 21.19 1.001
      vertex 10.555 32.81 1.001
      vertex 10.555 21.19 1.001
    endloop
  endfacet
  facet normal -0 0 1
    outer loop
      vertex 14.5113 51.7653 1.001
      vertex 19.5 42.5 1.001
      vertex 19.5 54 1.001
    endloop
  endfacet
  facet normal 0 0 1
    outer loop
      vertex 19.5 42.5 1.001
      vertex 16.445 32.81 1.001
      vertex 19.5 12.5 1.001
    endloop
  endfacet
  facet normal 0 0 1
    outer loop
      vertex 19.5 42.5 1.001
      vertex 16.445 41.19 1.001
      vertex 16.445 32.81 1.001
    endloop
  endfacet
  facet normal 0 0 1
    outer loop
      vertex 14.5113 51.7653 1.001
      vertex 19.5 54 1.001
      vertex 14.5113 53.2347 1.001
    endloop
  endfacet
  facet normal 0 0 1
    outer loop
      vertex 19.5 54 1.001
      vertex 13.1137 53.6888 1.001
      vertex 14.5113 53.2347 1.001
    endloop
  endfacet
  facet normal 0 0 1
    outer loop
      vertex 7.5 42.5 1.001
      vertex 10.555 32.81 1.001
      vertex 10.555 41.19 1.001
    endloop
  endfacet
  facet normal -0 0 1
    outer loop
      vertex 1 42.5 1.001
      vertex 10.555 32.81 1.001
      vertex 7.5 42.5 1.001
    endloop
  endfacet
  facet normal 0 0 1
    outer loop
      vertex 13.1137 51.3112 1.001
      vertex 7.5 42.5 1.001
      vertex 10.555 41.19 1.001
    endloop
  endfacet
  facet normal 0 0 1
    outer loop
      vertex 7.5 42.5 1.001
      vertex 13.1137 51.3112 1.001
      vertex 7.5 54 1.001
    endloop
  endfacet
  facet normal 0 0 1
    outer loop
      vertex 13.1137 53.6888 1.001
      vertex 7.5 54 1.001
      vertex 12.25 52.5 1.001
    endloop
  endfacet
  facet normal -0 0 1
    outer loop
      vertex 7.5 54 1.001
      vertex 13.1137 53.6888 1.001
      vertex 19.5 54 1.001
    endloop
  endfacet
  facet normal -0 0 1
    outer loop
      vertex 19.5 42.5 1.001
      vertex 26 12.5 1.001
      vertex 26 42.5 1.001
    endloop
  endfacet
  facet normal 0 0 1
    outer loop
      vertex 26 12.5 1.001
      vertex 19.5 42.5 1.001
      vertex 19.5 12.5 1.001
    endloop
  endfacet
  facet normal -0 0 1
    outer loop
      vertex 16.445 21.19 1.001
      vertex 19.5 12.5 1.001
      vertex 16.445 32.81 1.001
    endloop
  endfacet
  facet normal -0 0 1
    outer loop
      vertex 16.445 12.81 1.001
      vertex 19.5 12.5 1.001
      vertex 16.445 21.19 1.001
    endloop
  endfacet
  facet normal 0 0 1
    outer loop
      vertex 14.5113 3.23473 1.001
      vertex 19.5 12.5 1.001
      vertex 16.445 12.81 1.001
    endloop
  endfacet
  facet normal 0 0 1
    outer loop
      vertex 19.5 12.5 1.001
      vertex 14.5113 3.23473 1.001
      vertex 19.5 1 1.001
    endloop
  endfacet
  facet normal -0 0 1
    outer loop
      vertex 14.5113 1.76527 1.001
      vertex 19.5 1 1.001
      vertex 14.5113 3.23473 1.001
    endloop
  endfacet
  facet normal -0 0 1
    outer loop
      vertex 13.1137 1.31118 1.001
      vertex 19.5 1 1.001
      vertex 14.5113 1.76527 1.001
    endloop
  endfacet
  facet normal 0 0 1
    outer loop
      vertex 1 12.5 1.001
      vertex 10.555 32.81 1.001
      vertex 1 42.5 1.001
    endloop
  endfacet
  facet normal 0 0 1
    outer loop
      vertex 10.555 21.19 1.001
      vertex 7.5 12.5 1.001
      vertex 10.555 12.81 1.001
    endloop
  endfacet
  facet normal 0 0 1
    outer loop
      vertex 7.5 1 1.001
      vertex 13.1137 3.68882 1.001
      vertex 7.5 12.5 1.001
    endloop
  endfacet
  facet normal 0 0 1
    outer loop
      vertex 13.1137 1.31118 1.001
      vertex 7.5 1 1.001
      vertex 19.5 1 1.001
    endloop
  endfacet
  facet normal 0 0 1
    outer loop
      vertex 12.25 2.5 1.001
      vertex 7.5 1 1.001
      vertex 13.1137 1.31118 1.001
    endloop
  endfacet
  facet normal 0 0 1
    outer loop
      vertex 13.1137 3.68882 1.001
      vertex 7.5 1 1.001
      vertex 12.25 2.5 1.001
    endloop
  endfacet
  facet normal 0 0 1
    outer loop
      vertex 19.5 42.5 1.001
      vertex 14.5113 51.7653 1.001
      vertex 16.445 41.19 1.001
    endloop
  endfacet
  facet normal -0 0 1
    outer loop
      vertex 13.1137 51.3112 1.001
      vertex 16.445 41.19 1.001
      vertex 14.5113 51.7653 1.001
    endloop
  endfacet
  facet normal 0 0 1
    outer loop
      vertex 7.5 54 1.001
      vertex 13.1137 51.3112 1.001
      vertex 12.25 52.5 1.001
    endloop
  endfacet
  facet normal 0 0 1
    outer loop
      vertex 13.1137 51.3112 1.001
      vertex 10.555 41.19 1.001
      vertex 16.445 41.19 1.001
    endloop
  endfacet
  facet normal -1 0 0
    outer loop
      vertex 26 12.5 1.001
      vertex 26 42.5 13
      vertex 26 42.5 1.001
    endloop
  endfacet
  facet normal -1 -0 0
    outer loop
      vertex 26 42.5 13
      vertex 26 12.5 1.001
      vertex 26 12.5 13
    endloop
  endfacet
  facet normal 0 -1 0
    outer loop
      vertex 19.5 42.5 1.001
      vertex 26 42.5 13
      vertex 19.5 42.5 13
    endloop
  endfacet
  facet normal 0 -1 -0
    outer loop
      vertex 26 42.5 13
      vertex 19.5 42.5 1.001
      vertex 26 42.5 1.001
    endloop
  endfacet
  facet normal 0 -1 0
    outer loop
      vertex 1 42.5 1.001
      vertex 7.5 42.5 13
      vertex 1 42.5 13
    endloop
  endfacet
  facet normal 0 -1 -0
    outer loop
      vertex 7.5 42.5 13
      vertex 1 42.5 1.001
      vertex 7.5 42.5 1.001
    endloop
  endfacet
  facet normal 0 1 -0
    outer loop
      vertex 26 12.5 1.001
      vertex 19.5 12.5 13
      vertex 26 12.5 13
    endloop
  endfacet
  facet normal 0 1 0
    outer loop
      vertex 19.5 12.5 13
      vertex 26 12.5 1.001
      vertex 19.5 12.5 1.001
    endloop
  endfacet
  facet normal 0 1 -0
    outer loop
      vertex 7.5 12.5 1.001
      vertex 1 12.5 13
      vertex 7.5 12.5 13
    endloop
  endfacet
  facet normal 0 1 0
    outer loop
      vertex 1 12.5 13
      vertex 7.5 12.5 1.001
      vertex 1 12.5 1.001
    endloop
  endfacet
  facet normal 1 -0 0
    outer loop
      vertex 7.5 42.5 13
      vertex 7.5 54 1.001
      vertex 7.5 54 13
    endloop
  endfacet
  facet normal 1 0 0
    outer loop
      vertex 7.5 54 1.001
      vertex 7.5 42.5 13
      vertex 7.5 42.5 1.001
    endloop
  endfacet
  facet normal 1 -0 0
    outer loop
      vertex 7.5 1 13
      vertex 7.5 12.5 1.001
      vertex 7.5 12.5 13
    endloop
  endfacet
  facet normal 1 0 0
    outer loop
      vertex 7.5 12.5 1.001
      vertex 7.5 1 13
      vertex 7.5 1 1.001
    endloop
  endfacet
  facet normal -1 0 0
    outer loop
      vertex 19.5 42.5 1.001
      vertex 19.5 54 13
      vertex 19.5 54 1.001
    endloop
  endfacet
  facet normal -1 -0 0
    outer loop
      vertex 19.5 54 13
      vertex 19.5 42.5 1.001
      vertex 19.5 42.5 13
    endloop
  endfacet
  facet normal -1 0 0
    outer loop
      vertex 19.5 1 1.001
      vertex 19.5 12.5 13
      vertex 19.5 12.5 1.001
    endloop
  endfacet
  facet normal -1 -0 0
    outer loop
      vertex 19.5 12.5 13
      vertex 19.5 1 1.001
      vertex 19.5 1 13
    endloop
  endfacet
  facet normal 0 -1 0
    outer loop
      vertex 7.5 54 1.001
      vertex 19.5 54 13
      vertex 7.5 54 13
    endloop
  endfacet
  facet normal 0 -1 -0
    outer loop
      vertex 19.5 54 13
      vertex 7.5 54 1.001
      vertex 19.5 54 1.001
    endloop
  endfacet
  facet normal 0 1 -0
    outer loop
      vertex 19.5 1 1.001
      vertex 7.5 1 13
      vertex 19.5 1 13
    endloop
  endfacet
  facet normal 0 1 0
    outer loop
      vertex 7.5 1 13
      vertex 19.5 1 1.001
      vertex 7.5 1 1.001
    endloop
  endfacet
  facet normal -0.309006 0.95106 0
    outer loop
      vertex 14.5113 1.76527 0
      vertex 13.1137 1.31118 1.001
      vertex 14.5113 1.76527 1.001
    endloop
  endfacet
  facet normal -0.309006 0.95106 0
    outer loop
      vertex 13.1137 1.31118 1.001
      vertex 14.5113 1.76527 0
      vertex 13.1137 1.31118 0
    endloop
  endfacet
  facet normal -0.309006 -0.95106 0
    outer loop
      vertex 13.1137 3.68882 0
      vertex 14.5113 3.23473 1.001
      vertex 13.1137 3.68882 1.001
    endloop
  endfacet
  facet normal -0.309006 -0.95106 -0
    outer loop
      vertex 14.5113 3.23473 1.001
      vertex 13.1137 3.68882 0
      vertex 14.5113 3.23473 0
    endloop
  endfacet
  facet normal 0.809026 -0.587773 0
    outer loop
      vertex 12.25 2.5 1.001
      vertex 13.1137 3.68882 0
      vertex 13.1137 3.68882 1.001
    endloop
  endfacet
  facet normal 0.809026 -0.587773 0
    outer loop
      vertex 13.1137 3.68882 0
      vertex 12.25 2.5 1.001
      vertex 12.25 2.5 0
    endloop
  endfacet
  facet normal -1 0 0
    outer loop
      vertex 14.5113 1.76527 0
      vertex 14.5113 3.23473 1.001
      vertex 14.5113 3.23473 0
    endloop
  endfacet
  facet normal -1 -0 0
    outer loop
      vertex 14.5113 3.23473 1.001
      vertex 14.5113 1.76527 0
      vertex 14.5113 1.76527 1.001
    endloop
  endfacet
  facet normal 0.809026 0.587773 0
    outer loop
      vertex 13.1137 1.31118 1.001
      vertex 12.25 2.5 0
      vertex 12.25 2.5 1.001
    endloop
  endfacet
  facet normal 0.809026 0.587773 0
    outer loop
      vertex 12.25 2.5 0
      vertex 13.1137 1.31118 1.001
      vertex 13.1137 1.31118 0
    endloop
  endfacet
  facet normal -0.309012 0.951058 0
    outer loop
      vertex 14.5113 51.7653 0
      vertex 13.1137 51.3112 1.001
      vertex 14.5113 51.7653 1.001
    endloop
  endfacet
  facet normal -0.309012 0.951058 0
    outer loop
      vertex 13.1137 51.3112 1.001
      vertex 14.5113 51.7653 0
      vertex 13.1137 51.3112 0
    endloop
  endfacet
  facet normal -0.309012 -0.951058 0
    outer loop
      vertex 13.1137 53.6888 0
      vertex 14.5113 53.2347 1.001
      vertex 13.1137 53.6888 1.001
    endloop
  endfacet
  facet normal -0.309012 -0.951058 -0
    outer loop
      vertex 14.5113 53.2347 1.001
      vertex 13.1137 53.6888 0
      vertex 14.5113 53.2347 0
    endloop
  endfacet
  facet normal 0.809021 -0.587779 0
    outer loop
      vertex 12.25 52.5 1.001
      vertex 13.1137 53.6888 0
      vertex 13.1137 53.6888 1.001
    endloop
  endfacet
  facet normal 0.809021 -0.587779 0
    outer loop
      vertex 13.1137 53.6888 0
      vertex 12.25 52.5 1.001
      vertex 12.25 52.5 0
    endloop
  endfacet
  facet normal -1 0 0
    outer loop
      vertex 14.5113 51.7653 0
      vertex 14.5113 53.2347 1.001
      vertex 14.5113 53.2347 0
    endloop
  endfacet
  facet normal -1 -0 0
    outer loop
      vertex 14.5113 53.2347 1.001
      vertex 14.5113 51.7653 0
      vertex 14.5113 51.7653 1.001
    endloop
  endfacet
  facet normal 0.809021 0.587779 0
    outer loop
      vertex 13.1137 51.3112 1.001
      vertex 12.25 52.5 0
      vertex 12.25 52.5 1.001
    endloop
  endfacet
  facet normal 0.809021 0.587779 0
    outer loop
      vertex 12.25 52.5 0
      vertex 13.1137 51.3112 1.001
      vertex 13.1137 51.3112 0
    endloop
  endfacet
endsolid OpenSCAD_Model
