solid OpenSCAD_Model
  facet normal -0.308988 0.951066 0
    outer loop
      vertex 14.2281 16.471 0
      vertex 13.2219 16.1441 0.751
      vertex 14.2281 16.471 0.751
    endloop
  endfacet
  facet normal -0.308988 0.951066 0
    outer loop
      vertex 13.2219 16.1441 0.751
      vertex 14.2281 16.471 0
      vertex 13.2219 16.1441 0
    endloop
  endfacet
  facet normal -0.308988 -0.951066 0
    outer loop
      vertex 13.2219 17.8559 0
      vertex 14.2281 17.529 0.751
      vertex 13.2219 17.8559 0.751
    endloop
  endfacet
  facet normal -0.308988 -0.951066 -0
    outer loop
      vertex 14.2281 17.529 0.751
      vertex 13.2219 17.8559 0
      vertex 14.2281 17.529 0
    endloop
  endfacet
  facet normal 0.808994 -0.587818 0
    outer loop
      vertex 12.6 17 0.751
      vertex 13.2219 17.8559 0
      vertex 13.2219 17.8559 0.751
    endloop
  endfacet
  facet normal 0.808994 -0.587818 0
    outer loop
      vertex 13.2219 17.8559 0
      vertex 12.6 17 0.751
      vertex 12.6 17 0
    endloop
  endfacet
  facet normal -1 0 0
    outer loop
      vertex 14.2281 16.471 0
      vertex 14.2281 17.529 0.751
      vertex 14.2281 17.529 0
    endloop
  endfacet
  facet normal -1 -0 0
    outer loop
      vertex 14.2281 17.529 0.751
      vertex 14.2281 16.471 0
      vertex 14.2281 16.471 0.751
    endloop
  endfacet
  facet normal 0.808994 0.587818 0
    outer loop
      vertex 13.2219 16.1441 0.751
      vertex 12.6 17 0
      vertex 12.6 17 0.751
    endloop
  endfacet
  facet normal 0.808994 0.587818 0
    outer loop
      vertex 12.6 17 0
      vertex 13.2219 16.1441 0.751
      vertex 13.2219 16.1441 0
    endloop
  endfacet
  facet normal 1 -0 0
    outer loop
      vertex 10.555 12.81 1.001
      vertex 10.555 21.19 0.751
      vertex 10.555 21.19 1.001
    endloop
  endfacet
  facet normal 1 0 0
    outer loop
      vertex 10.555 21.19 0.751
      vertex 10.555 12.81 1.001
      vertex 10.555 12.81 0.751
    endloop
  endfacet
  facet normal 0 0 1
    outer loop
      vertex 16.445 21.19 0.751
      vertex 14.2281 17.529 0.751
      vertex 16.445 12.81 0.751
    endloop
  endfacet
  facet normal 0 0 1
    outer loop
      vertex 16.445 21.19 0.751
      vertex 13.2219 17.8559 0.751
      vertex 14.2281 17.529 0.751
    endloop
  endfacet
  facet normal 0 0 1
    outer loop
      vertex 13.2219 17.8559 0.751
      vertex 10.555 21.19 0.751
      vertex 12.6 17 0.751
    endloop
  endfacet
  facet normal -0 0 1
    outer loop
      vertex 10.555 21.19 0.751
      vertex 13.2219 17.8559 0.751
      vertex 16.445 21.19 0.751
    endloop
  endfacet
  facet normal -0 0 1
    outer loop
      vertex 14.2281 16.471 0.751
      vertex 16.445 12.81 0.751
      vertex 14.2281 17.529 0.751
    endloop
  endfacet
  facet normal -0 0 1
    outer loop
      vertex 13.2219 16.1441 0.751
      vertex 16.445 12.81 0.751
      vertex 14.2281 16.471 0.751
    endloop
  endfacet
  facet normal 0 0 1
    outer loop
      vertex 13.2219 16.1441 0.751
      vertex 10.555 12.81 0.751
      vertex 16.445 12.81 0.751
    endloop
  endfacet
  facet normal 0 0 1
    outer loop
      vertex 12.6 17 0.751
      vertex 10.555 12.81 0.751
      vertex 13.2219 16.1441 0.751
    endloop
  endfacet
  facet normal 0 0 1
    outer loop
      vertex 10.555 12.81 0.751
      vertex 12.6 17 0.751
      vertex 10.555 21.19 0.751
    endloop
  endfacet
  facet normal -1 0 0
    outer loop
      vertex 16.445 12.81 0.751
      vertex 16.445 21.19 1.001
      vertex 16.445 21.19 0.751
    endloop
  endfacet
  facet normal -1 -0 0
    outer loop
      vertex 16.445 21.19 1.001
      vertex 16.445 12.81 0.751
      vertex 16.445 12.81 1.001
    endloop
  endfacet
  facet normal 0 -1 0
    outer loop
      vertex 10.555 21.19 0.751
      vertex 16.445 21.19 1.001
      vertex 10.555 21.19 1.001
    endloop
  endfacet
  facet normal 0 -1 -0
    outer loop
      vertex 16.445 21.19 1.001
      vertex 10.555 21.19 0.751
      vertex 16.445 21.19 0.751
    endloop
  endfacet
  facet normal 0 1 -0
    outer loop
      vertex 16.445 12.81 0.751
      vertex 10.555 12.81 1.001
      vertex 16.445 12.81 1.001
    endloop
  endfacet
  facet normal 0 1 0
    outer loop
      vertex 10.555 12.81 1.001
      vertex 16.445 12.81 0.751
      vertex 10.555 12.81 0.751
    endloop
  endfacet
  facet normal -0.308988 0.951066 0
    outer loop
      vertex 14.2281 36.471 0
      vertex 13.2219 36.1441 0.751
      vertex 14.2281 36.471 0.751
    endloop
  endfacet
  facet normal -0.308988 0.951066 0
    outer loop
      vertex 13.2219 36.1441 0.751
      vertex 14.2281 36.471 0
      vertex 13.2219 36.1441 0
    endloop
  endfacet
  facet normal -0.308988 -0.951066 0
    outer loop
      vertex 13.2219 37.8559 0
      vertex 14.2281 37.529 0.751
      vertex 13.2219 37.8559 0.751
    endloop
  endfacet
  facet normal -0.308988 -0.951066 -0
    outer loop
      vertex 14.2281 37.529 0.751
      vertex 13.2219 37.8559 0
      vertex 14.2281 37.529 0
    endloop
  endfacet
  facet normal 0.808994 -0.587818 0
    outer loop
      vertex 12.6 37 0.751
      vertex 13.2219 37.8559 0
      vertex 13.2219 37.8559 0.751
    endloop
  endfacet
  facet normal 0.808994 -0.587818 0
    outer loop
      vertex 13.2219 37.8559 0
      vertex 12.6 37 0.751
      vertex 12.6 37 0
    endloop
  endfacet
  facet normal -1 0 0
    outer loop
      vertex 14.2281 36.471 0
      vertex 14.2281 37.529 0.751
      vertex 14.2281 37.529 0
    endloop
  endfacet
  facet normal -1 -0 0
    outer loop
      vertex 14.2281 37.529 0.751
      vertex 14.2281 36.471 0
      vertex 14.2281 36.471 0.751
    endloop
  endfacet
  facet normal 0.808994 0.587818 0
    outer loop
      vertex 13.2219 36.1441 0.751
      vertex 12.6 37 0
      vertex 12.6 37 0.751
    endloop
  endfacet
  facet normal 0.808994 0.587818 0
    outer loop
      vertex 12.6 37 0
      vertex 13.2219 36.1441 0.751
      vertex 13.2219 36.1441 0
    endloop
  endfacet
  facet normal 1 -0 0
    outer loop
      vertex 10.555 32.81 1.001
      vertex 10.555 41.19 0.751
      vertex 10.555 41.19 1.001
    endloop
  endfacet
  facet normal 1 0 0
    outer loop
      vertex 10.555 41.19 0.751
      vertex 10.555 32.81 1.001
      vertex 10.555 32.81 0.751
    endloop
  endfacet
  facet normal 0 0 1
    outer loop
      vertex 16.445 41.19 0.751
      vertex 14.2281 37.529 0.751
      vertex 16.445 32.81 0.751
    endloop
  endfacet
  facet normal 0 0 1
    outer loop
      vertex 16.445 41.19 0.751
      vertex 13.2219 37.8559 0.751
      vertex 14.2281 37.529 0.751
    endloop
  endfacet
  facet normal 0 0 1
    outer loop
      vertex 13.2219 37.8559 0.751
      vertex 10.555 41.19 0.751
      vertex 12.6 37 0.751
    endloop
  endfacet
  facet normal -0 0 1
    outer loop
      vertex 10.555 41.19 0.751
      vertex 13.2219 37.8559 0.751
      vertex 16.445 41.19 0.751
    endloop
  endfacet
  facet normal -0 0 1
    outer loop
      vertex 14.2281 36.471 0.751
      vertex 16.445 32.81 0.751
      vertex 14.2281 37.529 0.751
    endloop
  endfacet
  facet normal -0 0 1
    outer loop
      vertex 13.2219 36.1441 0.751
      vertex 16.445 32.81 0.751
      vertex 14.2281 36.471 0.751
    endloop
  endfacet
  facet normal 0 0 1
    outer loop
      vertex 13.2219 36.1441 0.751
      vertex 10.555 32.81 0.751
      vertex 16.445 32.81 0.751
    endloop
  endfacet
  facet normal 0 0 1
    outer loop
      vertex 12.6 37 0.751
      vertex 10.555 32.81 0.751
      vertex 13.2219 36.1441 0.751
    endloop
  endfacet
  facet normal 0 0 1
    outer loop
      vertex 10.555 32.81 0.751
      vertex 12.6 37 0.751
      vertex 10.555 41.19 0.751
    endloop
  endfacet
  facet normal -1 0 0
    outer loop
      vertex 16.445 32.81 0.751
      vertex 16.445 41.19 1.001
      vertex 16.445 41.19 0.751
    endloop
  endfacet
  facet normal -1 -0 0
    outer loop
      vertex 16.445 41.19 1.001
      vertex 16.445 32.81 0.751
      vertex 16.445 32.81 1.001
    endloop
  endfacet
  facet normal 0 -1 0
    outer loop
      vertex 10.555 41.19 0.751
      vertex 16.445 41.19 1.001
      vertex 10.555 41.19 1.001
    endloop
  endfacet
  facet normal 0 -1 -0
    outer loop
      vertex 16.445 41.19 1.001
      vertex 10.555 41.19 0.751
      vertex 16.445 41.19 0.751
    endloop
  endfacet
  facet normal 0 1 -0
    outer loop
      vertex 16.445 32.81 0.751
      vertex 10.555 32.81 1.001
      vertex 16.445 32.81 1.001
    endloop
  endfacet
  facet normal 0 1 0
    outer loop
      vertex 10.555 32.81 1.001
      vertex 16.445 32.81 0.751
      vertex 10.555 32.81 0.751
    endloop
  endfacet
  facet normal -0.309025 0.951054 0
    outer loop
      vertex 23.5585 6.16271 8.001
      vertex 22.4405 5.79944 13
      vertex 23.5585 6.16271 13
    endloop
  endfacet
  facet normal -0.309025 0.951054 0
    outer loop
      vertex 22.4405 5.79944 13
      vertex 23.5585 6.16271 8.001
      vertex 22.4405 5.79944 8.001
    endloop
  endfacet
  facet normal 0 0 1
    outer loop
      vertex 22.4405 7.70156 8.001
      vertex 23.5585 6.16271 8.001
      vertex 23.5585 7.33828 8.001
    endloop
  endfacet
  facet normal 0 0 1
    outer loop
      vertex 22.4405 7.70156 8.001
      vertex 22.4405 5.79944 8.001
      vertex 23.5585 6.16271 8.001
    endloop
  endfacet
  facet normal 0 -0 1
    outer loop
      vertex 22.4405 5.79944 8.001
      vertex 22.4405 7.70156 8.001
      vertex 21.7495 6.7505 8.001
    endloop
  endfacet
  facet normal -0.309032 -0.951052 0
    outer loop
      vertex 22.4405 7.70156 8.001
      vertex 23.5585 7.33828 13
      vertex 22.4405 7.70156 13
    endloop
  endfacet
  facet normal -0.309032 -0.951052 -0
    outer loop
      vertex 23.5585 7.33828 13
      vertex 22.4405 7.70156 8.001
      vertex 23.5585 7.33828 8.001
    endloop
  endfacet
  facet normal 0.809011 -0.587793 0
    outer loop
      vertex 21.7495 6.7505 13
      vertex 22.4405 7.70156 8.001
      vertex 22.4405 7.70156 13
    endloop
  endfacet
  facet normal 0.809011 -0.587793 0
    outer loop
      vertex 22.4405 7.70156 8.001
      vertex 21.7495 6.7505 13
      vertex 21.7495 6.7505 8.001
    endloop
  endfacet
  facet normal -1 0 0
    outer loop
      vertex 23.5585 6.16271 8.001
      vertex 23.5585 7.33828 13
      vertex 23.5585 7.33828 8.001
    endloop
  endfacet
  facet normal -1 -0 0
    outer loop
      vertex 23.5585 7.33828 13
      vertex 23.5585 6.16271 8.001
      vertex 23.5585 6.16271 13
    endloop
  endfacet
  facet normal 0.809011 0.587793 0
    outer loop
      vertex 22.4405 5.79944 13
      vertex 21.7495 6.7505 8.001
      vertex 21.7495 6.7505 13
    endloop
  endfacet
  facet normal 0.809011 0.587793 0
    outer loop
      vertex 21.7495 6.7505 8.001
      vertex 22.4405 5.79944 13
      vertex 22.4405 5.79944 8.001
    endloop
  endfacet
  facet normal -0.309048 0.951047 0
    outer loop
      vertex 23.5585 47.6627 8.001
      vertex 22.4405 47.2994 13
      vertex 23.5585 47.6627 13
    endloop
  endfacet
  facet normal -0.309048 0.951047 0
    outer loop
      vertex 22.4405 47.2994 13
      vertex 23.5585 47.6627 8.001
      vertex 22.4405 47.2994 8.001
    endloop
  endfacet
  facet normal 0 0 1
    outer loop
      vertex 22.4405 49.2016 8.001
      vertex 23.5585 47.6627 8.001
      vertex 23.5585 48.8383 8.001
    endloop
  endfacet
  facet normal 0 0 1
    outer loop
      vertex 22.4405 49.2016 8.001
      vertex 22.4405 47.2994 8.001
      vertex 23.5585 47.6627 8.001
    endloop
  endfacet
  facet normal 0 -0 1
    outer loop
      vertex 22.4405 47.2994 8.001
      vertex 22.4405 49.2016 8.001
      vertex 21.7495 48.2505 8.001
    endloop
  endfacet
  facet normal -0.309048 -0.951047 0
    outer loop
      vertex 22.4405 49.2016 8.001
      vertex 23.5585 48.8383 13
      vertex 22.4405 49.2016 13
    endloop
  endfacet
  facet normal -0.309048 -0.951047 -0
    outer loop
      vertex 23.5585 48.8383 13
      vertex 22.4405 49.2016 8.001
      vertex 23.5585 48.8383 8.001
    endloop
  endfacet
  facet normal 0.809023 -0.587777 0
    outer loop
      vertex 21.7495 48.2505 13
      vertex 22.4405 49.2016 8.001
      vertex 22.4405 49.2016 13
    endloop
  endfacet
  facet normal 0.809023 -0.587777 0
    outer loop
      vertex 22.4405 49.2016 8.001
      vertex 21.7495 48.2505 13
      vertex 21.7495 48.2505 8.001
    endloop
  endfacet
  facet normal -1 0 0
    outer loop
      vertex 23.5585 47.6627 8.001
      vertex 23.5585 48.8383 13
      vertex 23.5585 48.8383 8.001
    endloop
  endfacet
  facet normal -1 -0 0
    outer loop
      vertex 23.5585 48.8383 13
      vertex 23.5585 47.6627 8.001
      vertex 23.5585 47.6627 13
    endloop
  endfacet
  facet normal 0.809023 0.587777 0
    outer loop
      vertex 22.4405 47.2994 13
      vertex 21.7495 48.2505 8.001
      vertex 21.7495 48.2505 13
    endloop
  endfacet
  facet normal 0.809023 0.587777 0
    outer loop
      vertex 21.7495 48.2505 8.001
      vertex 22.4405 47.2994 13
      vertex 22.4405 47.2994 8.001
    endloop
  endfacet
  facet normal -0.309015 0.951057 0
    outer loop
      vertex 5.05852 6.16271 8.001
      vertex 3.94048 5.79944 13
      vertex 5.05852 6.16271 13
    endloop
  endfacet
  facet normal -0.309015 0.951057 0
    outer loop
      vertex 3.94048 5.79944 13
      vertex 5.05852 6.16271 8.001
      vertex 3.94048 5.79944 8.001
    endloop
  endfacet
  facet normal 0 0 1
    outer loop
      vertex 3.94048 7.70156 8.001
      vertex 5.05852 6.16271 8.001
      vertex 5.05852 7.33828 8.001
    endloop
  endfacet
  facet normal 0 0 1
    outer loop
      vertex 3.94048 7.70156 8.001
      vertex 3.94048 5.79944 8.001
      vertex 5.05852 6.16271 8.001
    endloop
  endfacet
  facet normal 0 -0 1
    outer loop
      vertex 3.94048 5.79944 8.001
      vertex 3.94048 7.70156 8.001
      vertex 3.2495 6.7505 8.001
    endloop
  endfacet
  facet normal -0.309022 -0.951055 0
    outer loop
      vertex 3.94048 7.70156 8.001
      vertex 5.05852 7.33828 13
      vertex 3.94048 7.70156 13
    endloop
  endfacet
  facet normal -0.309022 -0.951055 -0
    outer loop
      vertex 5.05852 7.33828 13
      vertex 3.94048 7.70156 8.001
      vertex 5.05852 7.33828 8.001
    endloop
  endfacet
  facet normal 0.809019 -0.587782 0
    outer loop
      vertex 3.2495 6.7505 13
      vertex 3.94048 7.70156 8.001
      vertex 3.94048 7.70156 13
    endloop
  endfacet
  facet normal 0.809019 -0.587782 0
    outer loop
      vertex 3.94048 7.70156 8.001
      vertex 3.2495 6.7505 13
      vertex 3.2495 6.7505 8.001
    endloop
  endfacet
  facet normal -1 0 0
    outer loop
      vertex 5.05852 6.16271 8.001
      vertex 5.05852 7.33828 13
      vertex 5.05852 7.33828 8.001
    endloop
  endfacet
  facet normal -1 -0 0
    outer loop
      vertex 5.05852 7.33828 13
      vertex 5.05852 6.16271 8.001
      vertex 5.05852 6.16271 13
    endloop
  endfacet
  facet normal 0.809019 0.587782 0
    outer loop
      vertex 3.94048 5.79944 13
      vertex 3.2495 6.7505 8.001
      vertex 3.2495 6.7505 13
    endloop
  endfacet
  facet normal 0.809019 0.587782 0
    outer loop
      vertex 3.2495 6.7505 8.001
      vertex 3.94048 5.79944 13
      vertex 3.94048 5.79944 8.001
    endloop
  endfacet
  facet normal -0.309038 0.95105 0
    outer loop
      vertex 5.05852 47.6627 8.001
      vertex 3.94048 47.2994 13
      vertex 5.05852 47.6627 13
    endloop
  endfacet
  facet normal -0.309038 0.95105 0
    outer loop
      vertex 3.94048 47.2994 13
      vertex 5.05852 47.6627 8.001
      vertex 3.94048 47.2994 8.001
    endloop
  endfacet
  facet normal 0 0 1
    outer loop
      vertex 3.94048 49.2016 8.001
      vertex 5.05852 47.6627 8.001
      vertex 5.05852 48.8383 8.001
    endloop
  endfacet
  facet normal 0 0 1
    outer loop
      vertex 3.94048 49.2016 8.001
      vertex 3.94048 47.2994 8.001
      vertex 5.05852 47.6627 8.001
    endloop
  endfacet
  facet normal 0 -0 1
    outer loop
      vertex 3.94048 47.2994 8.001
      vertex 3.94048 49.2016 8.001
      vertex 3.2495 48.2505 8.001
    endloop
  endfacet
  facet normal -0.309038 -0.95105 0
    outer loop
      vertex 3.94048 49.2016 8.001
      vertex 5.05852 48.8383 13
      vertex 3.94048 49.2016 13
    endloop
  endfacet
  facet normal -0.309038 -0.95105 -0
    outer loop
      vertex 5.05852 48.8383 13
      vertex 3.94048 49.2016 8.001
      vertex 5.05852 48.8383 8.001
    endloop
  endfacet
  facet normal 0.809031 -0.587766 0
    outer loop
      vertex 3.2495 48.2505 13
      vertex 3.94048 49.2016 8.001
      vertex 3.94048 49.2016 13
    endloop
  endfacet
  facet normal 0.809031 -0.587766 0
    outer loop
      vertex 3.94048 49.2016 8.001
      vertex 3.2495 48.2505 13
      vertex 3.2495 48.2505 8.001
    endloop
  endfacet
  facet normal -1 0 0
    outer loop
      vertex 5.05852 47.6627 8.001
      vertex 5.05852 48.8383 13
      vertex 5.05852 48.8383 8.001
    endloop
  endfacet
  facet normal -1 -0 0
    outer loop
      vertex 5.05852 48.8383 13
      vertex 5.05852 47.6627 8.001
      vertex 5.05852 47.6627 13
    endloop
  endfacet
  facet normal 0.809031 0.587766 0
    outer loop
      vertex 3.94048 47.2994 13
      vertex 3.2495 48.2505 8.001
      vertex 3.2495 48.2505 13
    endloop
  endfacet
  facet normal 0.809031 0.587766 0
    outer loop
      vertex 3.2495 48.2505 8.001
      vertex 3.94048 47.2994 13
      vertex 3.94048 47.2994 8.001
    endloop
  endfacet
  facet normal -1 0 0
    outer loop
      vertex 0 0 0
      vertex 0 55 13
      vertex 0 55 0
    endloop
  endfacet
  facet normal -1 -0 0
    outer loop
      vertex 0 55 13
      vertex 0 0 0
      vertex 0 0 13
    endloop
  endfacet
  facet normal 0 0 -1
    outer loop
      vertex 14.2281 37.529 0
      vertex 13.2682 52.2867 0
      vertex 14.1068 52.5592 0
    endloop
  endfacet
  facet normal 0 0 -1
    outer loop
      vertex 13.2219 37.8559 0
      vertex 13.2682 52.2867 0
      vertex 14.2281 37.529 0
    endloop
  endfacet
  facet normal 0 0 -1
    outer loop
      vertex 0 55 0
      vertex 13.2682 52.2867 0
      vertex 13.2219 37.8559 0
    endloop
  endfacet
  facet normal 0 0 -1
    outer loop
      vertex 0 55 0
      vertex 13.2219 37.8559 0
      vertex 12.6 37 0
    endloop
  endfacet
  facet normal 0 0 -1
    outer loop
      vertex 13.2219 17.8559 0
      vertex 14.2281 36.471 0
      vertex 14.2281 17.529 0
    endloop
  endfacet
  facet normal 0 0 -1
    outer loop
      vertex 13.2219 17.8559 0
      vertex 13.2219 36.1441 0
      vertex 14.2281 36.471 0
    endloop
  endfacet
  facet normal 0 0 -1
    outer loop
      vertex 12.6 17 0
      vertex 13.2219 36.1441 0
      vertex 13.2219 17.8559 0
    endloop
  endfacet
  facet normal -0 0 -1
    outer loop
      vertex 13.2219 36.1441 0
      vertex 12.6 17 0
      vertex 12.6 37 0
    endloop
  endfacet
  facet normal 0 0 -1
    outer loop
      vertex 14.2281 17.529 0
      vertex 27 0 0
      vertex 14.2281 16.471 0
    endloop
  endfacet
  facet normal 0 0 -1
    outer loop
      vertex 14.1068 2.44084 0
      vertex 27 0 0
      vertex 14.1068 1.55916 0
    endloop
  endfacet
  facet normal 0 0 -1
    outer loop
      vertex 27 0 0
      vertex 13.2682 1.28671 0
      vertex 14.1068 1.55916 0
    endloop
  endfacet
  facet normal -0 0 -1
    outer loop
      vertex 12.6 17 0
      vertex 0 0 0
      vertex 12.6 37 0
    endloop
  endfacet
  facet normal -0 0 -1
    outer loop
      vertex 13.2219 16.1441 0
      vertex 0 0 0
      vertex 12.6 17 0
    endloop
  endfacet
  facet normal -0 0 -1
    outer loop
      vertex 13.2682 1.28671 0
      vertex 0 0 0
      vertex 12.75 2 0
    endloop
  endfacet
  facet normal 0 0 -1
    outer loop
      vertex 0 0 0
      vertex 13.2682 1.28671 0
      vertex 27 0 0
    endloop
  endfacet
  facet normal 0 0 -1
    outer loop
      vertex 14.2281 36.471 0
      vertex 27 0 0
      vertex 14.2281 17.529 0
    endloop
  endfacet
  facet normal 0 0 -1
    outer loop
      vertex 27 0 0
      vertex 14.2281 36.471 0
      vertex 27 55 0
    endloop
  endfacet
  facet normal 0 0 -1
    outer loop
      vertex 14.2281 37.529 0
      vertex 27 55 0
      vertex 14.2281 36.471 0
    endloop
  endfacet
  facet normal 0 0 -1
    outer loop
      vertex 14.1068 52.5592 0
      vertex 27 55 0
      vertex 14.2281 37.529 0
    endloop
  endfacet
  facet normal 0 0 -1
    outer loop
      vertex 14.1068 53.4408 0
      vertex 27 55 0
      vertex 14.1068 52.5592 0
    endloop
  endfacet
  facet normal 0 0 -1
    outer loop
      vertex 13.2682 53.7133 0
      vertex 27 55 0
      vertex 14.1068 53.4408 0
    endloop
  endfacet
  facet normal 0 0 -1
    outer loop
      vertex 0 55 0
      vertex 12.6 37 0
      vertex 0 0 0
    endloop
  endfacet
  facet normal 0 0 -1
    outer loop
      vertex 13.2682 53.7133 0
      vertex 0 55 0
      vertex 27 55 0
    endloop
  endfacet
  facet normal 0 0 -1
    outer loop
      vertex 12.75 53 0
      vertex 0 55 0
      vertex 13.2682 53.7133 0
    endloop
  endfacet
  facet normal 0 0 -1
    outer loop
      vertex 13.2682 52.2867 0
      vertex 0 55 0
      vertex 12.75 53 0
    endloop
  endfacet
  facet normal 0 0 -1
    outer loop
      vertex 27 0 0
      vertex 14.1068 2.44084 0
      vertex 14.2281 16.471 0
    endloop
  endfacet
  facet normal 0 0 -1
    outer loop
      vertex 13.2682 2.71329 0
      vertex 14.2281 16.471 0
      vertex 14.1068 2.44084 0
    endloop
  endfacet
  facet normal 0 0 -1
    outer loop
      vertex 13.2682 2.71329 0
      vertex 13.2219 16.1441 0
      vertex 14.2281 16.471 0
    endloop
  endfacet
  facet normal 0 0 -1
    outer loop
      vertex 0 0 0
      vertex 13.2682 2.71329 0
      vertex 12.75 2 0
    endloop
  endfacet
  facet normal -0 0 -1
    outer loop
      vertex 13.2682 2.71329 0
      vertex 0 0 0
      vertex 13.2219 16.1441 0
    endloop
  endfacet
  facet normal 0 0 1
    outer loop
      vertex 26 12.5 13
      vertex 22.4405 7.70156 13
      vertex 23.5585 7.33828 13
    endloop
  endfacet
  facet normal 0 0 1
    outer loop
      vertex 22.4405 7.70156 13
      vertex 19.5 12.5 13
      vertex 21.7495 6.7505 13
    endloop
  endfacet
  facet normal -0 0 1
    outer loop
      vertex 19.5 12.5 13
      vertex 22.4405 7.70156 13
      vertex 26 12.5 13
    endloop
  endfacet
  facet normal 0 0 1
    outer loop
      vertex 27 55 13
      vertex 26 42.5 13
      vertex 27 0 13
    endloop
  endfacet
  facet normal 0 0 1
    outer loop
      vertex 27 55 13
      vertex 23.5585 48.8383 13
      vertex 26 42.5 13
    endloop
  endfacet
  facet normal 0 0 1
    outer loop
      vertex 27 55 13
      vertex 22.4405 49.2016 13
      vertex 23.5585 48.8383 13
    endloop
  endfacet
  facet normal 0 0 1
    outer loop
      vertex 22.4405 49.2016 13
      vertex 19.5 54 13
      vertex 21.7495 48.2505 13
    endloop
  endfacet
  facet normal 0 0 1
    outer loop
      vertex 27 55 13
      vertex 19.5 54 13
      vertex 22.4405 49.2016 13
    endloop
  endfacet
  facet normal 0 0 1
    outer loop
      vertex 27 55 13
      vertex 7.5 54 13
      vertex 19.5 54 13
    endloop
  endfacet
  facet normal 0 0 1
    outer loop
      vertex 7.5 54 13
      vertex 5.05852 48.8383 13
      vertex 7.5 42.5 13
    endloop
  endfacet
  facet normal 0 0 1
    outer loop
      vertex 7.5 54 13
      vertex 3.94048 49.2016 13
      vertex 5.05852 48.8383 13
    endloop
  endfacet
  facet normal 0 0 1
    outer loop
      vertex 1 42.5 13
      vertex 0 55 13
      vertex 1 12.5 13
    endloop
  endfacet
  facet normal 0 0 1
    outer loop
      vertex 3.2495 48.2505 13
      vertex 0 55 13
      vertex 1 42.5 13
    endloop
  endfacet
  facet normal 0 0 1
    outer loop
      vertex 3.94048 49.2016 13
      vertex 0 55 13
      vertex 3.2495 48.2505 13
    endloop
  endfacet
  facet normal 0 0 1
    outer loop
      vertex 7.5 54 13
      vertex 0 55 13
      vertex 3.94048 49.2016 13
    endloop
  endfacet
  facet normal -0 0 1
    outer loop
      vertex 0 55 13
      vertex 7.5 54 13
      vertex 27 55 13
    endloop
  endfacet
  facet normal -0 0 1
    outer loop
      vertex 26 12.5 13
      vertex 27 0 13
      vertex 26 42.5 13
    endloop
  endfacet
  facet normal 0 0 1
    outer loop
      vertex 23.5585 6.16271 13
      vertex 26 12.5 13
      vertex 23.5585 7.33828 13
    endloop
  endfacet
  facet normal 0 0 1
    outer loop
      vertex 26 12.5 13
      vertex 23.5585 6.16271 13
      vertex 27 0 13
    endloop
  endfacet
  facet normal -0 0 1
    outer loop
      vertex 22.4405 5.79944 13
      vertex 27 0 13
      vertex 23.5585 6.16271 13
    endloop
  endfacet
  facet normal 0 0 1
    outer loop
      vertex 19.5 1 13
      vertex 21.7495 6.7505 13
      vertex 19.5 12.5 13
    endloop
  endfacet
  facet normal 0 0 1
    outer loop
      vertex 19.5 1 13
      vertex 22.4405 5.79944 13
      vertex 21.7495 6.7505 13
    endloop
  endfacet
  facet normal -0 0 1
    outer loop
      vertex 19.5 1 13
      vertex 27 0 13
      vertex 22.4405 5.79944 13
    endloop
  endfacet
  facet normal -0 0 1
    outer loop
      vertex 7.5 1 13
      vertex 27 0 13
      vertex 19.5 1 13
    endloop
  endfacet
  facet normal -0 0 1
    outer loop
      vertex 5.05852 6.16271 13
      vertex 7.5 1 13
      vertex 5.05852 7.33828 13
    endloop
  endfacet
  facet normal -0 0 1
    outer loop
      vertex 3.94048 5.79944 13
      vertex 7.5 1 13
      vertex 5.05852 6.16271 13
    endloop
  endfacet
  facet normal 0 0 1
    outer loop
      vertex 7.5 1 13
      vertex 0 0 13
      vertex 27 0 13
    endloop
  endfacet
  facet normal 0 0 1
    outer loop
      vertex 3.94048 5.79944 13
      vertex 0 0 13
      vertex 7.5 1 13
    endloop
  endfacet
  facet normal 0 0 1
    outer loop
      vertex 3.2495 6.7505 13
      vertex 0 0 13
      vertex 3.94048 5.79944 13
    endloop
  endfacet
  facet normal 0 0 1
    outer loop
      vertex 1 12.5 13
      vertex 0 0 13
      vertex 3.2495 6.7505 13
    endloop
  endfacet
  facet normal 0 0 1
    outer loop
      vertex 0 0 13
      vertex 1 12.5 13
      vertex 0 55 13
    endloop
  endfacet
  facet normal -0 0 1
    outer loop
      vertex 23.5585 47.6627 13
      vertex 26 42.5 13
      vertex 23.5585 48.8383 13
    endloop
  endfacet
  facet normal -0 0 1
    outer loop
      vertex 22.4405 47.2994 13
      vertex 26 42.5 13
      vertex 23.5585 47.6627 13
    endloop
  endfacet
  facet normal 0 0 1
    outer loop
      vertex 22.4405 47.2994 13
      vertex 19.5 42.5 13
      vertex 26 42.5 13
    endloop
  endfacet
  facet normal 0 0 1
    outer loop
      vertex 21.7495 48.2505 13
      vertex 19.5 42.5 13
      vertex 22.4405 47.2994 13
    endloop
  endfacet
  facet normal 0 0 1
    outer loop
      vertex 19.5 42.5 13
      vertex 21.7495 48.2505 13
      vertex 19.5 54 13
    endloop
  endfacet
  facet normal 0 0 1
    outer loop
      vertex 7.5 12.5 13
      vertex 5.05852 7.33828 13
      vertex 7.5 1 13
    endloop
  endfacet
  facet normal 0 0 1
    outer loop
      vertex 7.5 12.5 13
      vertex 3.94048 7.70156 13
      vertex 5.05852 7.33828 13
    endloop
  endfacet
  facet normal 0 0 1
    outer loop
      vertex 3.94048 7.70156 13
      vertex 1 12.5 13
      vertex 3.2495 6.7505 13
    endloop
  endfacet
  facet normal -0 0 1
    outer loop
      vertex 1 12.5 13
      vertex 3.94048 7.70156 13
      vertex 7.5 12.5 13
    endloop
  endfacet
  facet normal -0 0 1
    outer loop
      vertex 5.05852 47.6627 13
      vertex 7.5 42.5 13
      vertex 5.05852 48.8383 13
    endloop
  endfacet
  facet normal -0 0 1
    outer loop
      vertex 3.94048 47.2994 13
      vertex 7.5 42.5 13
      vertex 5.05852 47.6627 13
    endloop
  endfacet
  facet normal 0 0 1
    outer loop
      vertex 3.94048 47.2994 13
      vertex 1 42.5 13
      vertex 7.5 42.5 13
    endloop
  endfacet
  facet normal 0 0 1
    outer loop
      vertex 1 42.5 13
      vertex 3.94048 47.2994 13
      vertex 3.2495 48.2505 13
    endloop
  endfacet
  facet normal 1 -0 0
    outer loop
      vertex 27 0 13
      vertex 27 55 0
      vertex 27 55 13
    endloop
  endfacet
  facet normal 1 0 0
    outer loop
      vertex 27 55 0
      vertex 27 0 13
      vertex 27 0 0
    endloop
  endfacet
  facet normal 0 1 -0
    outer loop
      vertex 27 55 0
      vertex 0 55 13
      vertex 27 55 13
    endloop
  endfacet
  facet normal 0 1 0
    outer loop
      vertex 0 55 13
      vertex 27 55 0
      vertex 0 55 0
    endloop
  endfacet
  facet normal 0 -1 0
    outer loop
      vertex 0 0 0
      vertex 27 0 13
      vertex 0 0 13
    endloop
  endfacet
  facet normal 0 -1 -0
    outer loop
      vertex 27 0 13
      vertex 0 0 0
      vertex 27 0 0
    endloop
  endfacet
  facet normal 1 -0 0
    outer loop
      vertex 1 12.5 13
      vertex 1 42.5 1.001
      vertex 1 42.5 13
    endloop
  endfacet
  facet normal 1 0 0
    outer loop
      vertex 1 42.5 1.001
      vertex 1 12.5 13
      vertex 1 12.5 1.001
    endloop
  endfacet
  facet normal 0 0 1
    outer loop
      vertex 10.555 32.81 1.001
      vertex 1 12.5 1.001
      vertex 10.555 21.19 1.001
    endloop
  endfacet
  facet normal 0 0 1
    outer loop
      vertex 10.555 21.19 1.001
      vertex 1 12.5 1.001
      vertex 7.5 12.5 1.001
    endloop
  endfacet
  facet normal 0 0 1
    outer loop
      vertex 16.445 12.81 1.001
      vertex 13.2682 2.71329 1.001
      vertex 14.1068 2.44084 1.001
    endloop
  endfacet
  facet normal -0 0 1
    outer loop
      vertex 10.555 12.81 1.001
      vertex 13.2682 2.71329 1.001
      vertex 16.445 12.81 1.001
    endloop
  endfacet
  facet normal -0 0 1
    outer loop
      vertex 7.5 12.5 1.001
      vertex 13.2682 2.71329 1.001
      vertex 10.555 12.81 1.001
    endloop
  endfacet
  facet normal -0 0 1
    outer loop
      vertex 10.555 32.81 1.001
      vertex 16.445 21.19 1.001
      vertex 16.445 32.81 1.001
    endloop
  endfacet
  facet normal 0 0 1
    outer loop
      vertex 16.445 21.19 1.001
      vertex 10.555 32.81 1.001
      vertex 10.555 21.19 1.001
    endloop
  endfacet
  facet normal -0 0 1
    outer loop
      vertex 14.1068 52.5592 1.001
      vertex 19.5 42.5 1.001
      vertex 19.5 54 1.001
    endloop
  endfacet
  facet normal 0 0 1
    outer loop
      vertex 19.5 42.5 1.001
      vertex 16.445 32.81 1.001
      vertex 19.5 12.5 1.001
    endloop
  endfacet
  facet normal 0 0 1
    outer loop
      vertex 19.5 42.5 1.001
      vertex 16.445 41.19 1.001
      vertex 16.445 32.81 1.001
    endloop
  endfacet
  facet normal 0 0 1
    outer loop
      vertex 14.1068 52.5592 1.001
      vertex 19.5 54 1.001
      vertex 14.1068 53.4408 1.001
    endloop
  endfacet
  facet normal 0 0 1
    outer loop
      vertex 19.5 54 1.001
      vertex 13.2682 53.7133 1.001
      vertex 14.1068 53.4408 1.001
    endloop
  endfacet
  facet normal 0 0 1
    outer loop
      vertex 7.5 42.5 1.001
      vertex 10.555 32.81 1.001
      vertex 10.555 41.19 1.001
    endloop
  endfacet
  facet normal -0 0 1
    outer loop
      vertex 1 42.5 1.001
      vertex 10.555 32.81 1.001
      vertex 7.5 42.5 1.001
    endloop
  endfacet
  facet normal 0 0 1
    outer loop
      vertex 13.2682 52.2867 1.001
      vertex 7.5 42.5 1.001
      vertex 10.555 41.19 1.001
    endloop
  endfacet
  facet normal 0 0 1
    outer loop
      vertex 7.5 42.5 1.001
      vertex 13.2682 52.2867 1.001
      vertex 7.5 54 1.001
    endloop
  endfacet
  facet normal 0 0 1
    outer loop
      vertex 13.2682 53.7133 1.001
      vertex 7.5 54 1.001
      vertex 12.75 53 1.001
    endloop
  endfacet
  facet normal -0 0 1
    outer loop
      vertex 7.5 54 1.001
      vertex 13.2682 53.7133 1.001
      vertex 19.5 54 1.001
    endloop
  endfacet
  facet normal -0 0 1
    outer loop
      vertex 19.5 42.5 1.001
      vertex 26 12.5 1.001
      vertex 26 42.5 1.001
    endloop
  endfacet
  facet normal 0 0 1
    outer loop
      vertex 26 12.5 1.001
      vertex 19.5 42.5 1.001
      vertex 19.5 12.5 1.001
    endloop
  endfacet
  facet normal -0 0 1
    outer loop
      vertex 16.445 21.19 1.001
      vertex 19.5 12.5 1.001
      vertex 16.445 32.81 1.001
    endloop
  endfacet
  facet normal -0 0 1
    outer loop
      vertex 16.445 12.81 1.001
      vertex 19.5 12.5 1.001
      vertex 16.445 21.19 1.001
    endloop
  endfacet
  facet normal 0 0 1
    outer loop
      vertex 14.1068 2.44084 1.001
      vertex 19.5 12.5 1.001
      vertex 16.445 12.81 1.001
    endloop
  endfacet
  facet normal 0 0 1
    outer loop
      vertex 19.5 12.5 1.001
      vertex 14.1068 2.44084 1.001
      vertex 19.5 1 1.001
    endloop
  endfacet
  facet normal -0 0 1
    outer loop
      vertex 14.1068 1.55916 1.001
      vertex 19.5 1 1.001
      vertex 14.1068 2.44084 1.001
    endloop
  endfacet
  facet normal -0 0 1
    outer loop
      vertex 13.2682 1.28671 1.001
      vertex 19.5 1 1.001
      vertex 14.1068 1.55916 1.001
    endloop
  endfacet
  facet normal 0 0 1
    outer loop
      vertex 1 12.5 1.001
      vertex 10.555 32.81 1.001
      vertex 1 42.5 1.001
    endloop
  endfacet
  facet normal 0 0 1
    outer loop
      vertex 10.555 21.19 1.001
      vertex 7.5 12.5 1.001
      vertex 10.555 12.81 1.001
    endloop
  endfacet
  facet normal 0 0 1
    outer loop
      vertex 7.5 1 1.001
      vertex 13.2682 2.71329 1.001
      vertex 7.5 12.5 1.001
    endloop
  endfacet
  facet normal 0 0 1
    outer loop
      vertex 13.2682 1.28671 1.001
      vertex 7.5 1 1.001
      vertex 19.5 1 1.001
    endloop
  endfacet
  facet normal 0 0 1
    outer loop
      vertex 12.75 2 1.001
      vertex 7.5 1 1.001
      vertex 13.2682 1.28671 1.001
    endloop
  endfacet
  facet normal 0 0 1
    outer loop
      vertex 13.2682 2.71329 1.001
      vertex 7.5 1 1.001
      vertex 12.75 2 1.001
    endloop
  endfacet
  facet normal 0 0 1
    outer loop
      vertex 19.5 42.5 1.001
      vertex 14.1068 52.5592 1.001
      vertex 16.445 41.19 1.001
    endloop
  endfacet
  facet normal -0 0 1
    outer loop
      vertex 13.2682 52.2867 1.001
      vertex 16.445 41.19 1.001
      vertex 14.1068 52.5592 1.001
    endloop
  endfacet
  facet normal 0 0 1
    outer loop
      vertex 7.5 54 1.001
      vertex 13.2682 52.2867 1.001
      vertex 12.75 53 1.001
    endloop
  endfacet
  facet normal 0 0 1
    outer loop
      vertex 13.2682 52.2867 1.001
      vertex 10.555 41.19 1.001
      vertex 16.445 41.19 1.001
    endloop
  endfacet
  facet normal -1 0 0
    outer loop
      vertex 26 12.5 1.001
      vertex 26 42.5 13
      vertex 26 42.5 1.001
    endloop
  endfacet
  facet normal -1 -0 0
    outer loop
      vertex 26 42.5 13
      vertex 26 12.5 1.001
      vertex 26 12.5 13
    endloop
  endfacet
  facet normal 0 -1 0
    outer loop
      vertex 19.5 42.5 1.001
      vertex 26 42.5 13
      vertex 19.5 42.5 13
    endloop
  endfacet
  facet normal 0 -1 -0
    outer loop
      vertex 26 42.5 13
      vertex 19.5 42.5 1.001
      vertex 26 42.5 1.001
    endloop
  endfacet
  facet normal 0 -1 0
    outer loop
      vertex 1 42.5 1.001
      vertex 7.5 42.5 13
      vertex 1 42.5 13
    endloop
  endfacet
  facet normal 0 -1 -0
    outer loop
      vertex 7.5 42.5 13
      vertex 1 42.5 1.001
      vertex 7.5 42.5 1.001
    endloop
  endfacet
  facet normal 0 1 -0
    outer loop
      vertex 26 12.5 1.001
      vertex 19.5 12.5 13
      vertex 26 12.5 13
    endloop
  endfacet
  facet normal 0 1 0
    outer loop
      vertex 19.5 12.5 13
      vertex 26 12.5 1.001
      vertex 19.5 12.5 1.001
    endloop
  endfacet
  facet normal 0 1 -0
    outer loop
      vertex 7.5 12.5 1.001
      vertex 1 12.5 13
      vertex 7.5 12.5 13
    endloop
  endfacet
  facet normal 0 1 0
    outer loop
      vertex 1 12.5 13
      vertex 7.5 12.5 1.001
      vertex 1 12.5 1.001
    endloop
  endfacet
  facet normal 1 -0 0
    outer loop
      vertex 7.5 42.5 13
      vertex 7.5 54 1.001
      vertex 7.5 54 13
    endloop
  endfacet
  facet normal 1 0 0
    outer loop
      vertex 7.5 54 1.001
      vertex 7.5 42.5 13
      vertex 7.5 42.5 1.001
    endloop
  endfacet
  facet normal 1 -0 0
    outer loop
      vertex 7.5 1 13
      vertex 7.5 12.5 1.001
      vertex 7.5 12.5 13
    endloop
  endfacet
  facet normal 1 0 0
    outer loop
      vertex 7.5 12.5 1.001
      vertex 7.5 1 13
      vertex 7.5 1 1.001
    endloop
  endfacet
  facet normal -1 0 0
    outer loop
      vertex 19.5 42.5 1.001
      vertex 19.5 54 13
      vertex 19.5 54 1.001
    endloop
  endfacet
  facet normal -1 -0 0
    outer loop
      vertex 19.5 54 13
      vertex 19.5 42.5 1.001
      vertex 19.5 42.5 13
    endloop
  endfacet
  facet normal -1 0 0
    outer loop
      vertex 19.5 1 1.001
      vertex 19.5 12.5 13
      vertex 19.5 12.5 1.001
    endloop
  endfacet
  facet normal -1 -0 0
    outer loop
      vertex 19.5 12.5 13
      vertex 19.5 1 1.001
      vertex 19.5 1 13
    endloop
  endfacet
  facet normal 0 -1 0
    outer loop
      vertex 7.5 54 1.001
      vertex 19.5 54 13
      vertex 7.5 54 13
    endloop
  endfacet
  facet normal 0 -1 -0
    outer loop
      vertex 19.5 54 13
      vertex 7.5 54 1.001
      vertex 19.5 54 1.001
    endloop
  endfacet
  facet normal 0 1 -0
    outer loop
      vertex 19.5 1 1.001
      vertex 7.5 1 13
      vertex 19.5 1 13
    endloop
  endfacet
  facet normal 0 1 0
    outer loop
      vertex 7.5 1 13
      vertex 19.5 1 1.001
      vertex 7.5 1 1.001
    endloop
  endfacet
  facet normal -0.308989 0.951066 0
    outer loop
      vertex 14.1068 1.55916 0
      vertex 13.2682 1.28671 1.001
      vertex 14.1068 1.55916 1.001
    endloop
  endfacet
  facet normal -0.308989 0.951066 0
    outer loop
      vertex 13.2682 1.28671 1.001
      vertex 14.1068 1.55916 0
      vertex 13.2682 1.28671 0
    endloop
  endfacet
  facet normal -0.308989 -0.951066 0
    outer loop
      vertex 13.2682 2.71329 0
      vertex 14.1068 2.44084 1.001
      vertex 13.2682 2.71329 1.001
    endloop
  endfacet
  facet normal -0.308989 -0.951066 -0
    outer loop
      vertex 14.1068 2.44084 1.001
      vertex 13.2682 2.71329 0
      vertex 14.1068 2.44084 0
    endloop
  endfacet
  facet normal 0.809036 -0.587759 0
    outer loop
      vertex 12.75 2 1.001
      vertex 13.2682 2.71329 0
      vertex 13.2682 2.71329 1.001
    endloop
  endfacet
  facet normal 0.809036 -0.587759 0
    outer loop
      vertex 13.2682 2.71329 0
      vertex 12.75 2 1.001
      vertex 12.75 2 0
    endloop
  endfacet
  facet normal -1 0 0
    outer loop
      vertex 14.1068 1.55916 0
      vertex 14.1068 2.44084 1.001
      vertex 14.1068 2.44084 0
    endloop
  endfacet
  facet normal -1 -0 0
    outer loop
      vertex 14.1068 2.44084 1.001
      vertex 14.1068 1.55916 0
      vertex 14.1068 1.55916 1.001
    endloop
  endfacet
  facet normal 0.809036 0.587759 0
    outer loop
      vertex 13.2682 1.28671 1.001
      vertex 12.75 2 0
      vertex 12.75 2 1.001
    endloop
  endfacet
  facet normal 0.809036 0.587759 0
    outer loop
      vertex 12.75 2 0
      vertex 13.2682 1.28671 1.001
      vertex 13.2682 1.28671 0
    endloop
  endfacet
  facet normal -0.30904 0.951049 0
    outer loop
      vertex 14.1068 52.5592 0
      vertex 13.2682 52.2867 1.001
      vertex 14.1068 52.5592 1.001
    endloop
  endfacet
  facet normal -0.30904 0.951049 0
    outer loop
      vertex 13.2682 52.2867 1.001
      vertex 14.1068 52.5592 0
      vertex 13.2682 52.2867 0
    endloop
  endfacet
  facet normal -0.30904 -0.951049 0
    outer loop
      vertex 13.2682 53.7133 0
      vertex 14.1068 53.4408 1.001
      vertex 13.2682 53.7133 1.001
    endloop
  endfacet
  facet normal -0.30904 -0.951049 -0
    outer loop
      vertex 14.1068 53.4408 1.001
      vertex 13.2682 53.7133 0
      vertex 14.1068 53.4408 0
    endloop
  endfacet
  facet normal 0.80904 -0.587753 0
    outer loop
      vertex 12.75 53 1.001
      vertex 13.2682 53.7133 0
      vertex 13.2682 53.7133 1.001
    endloop
  endfacet
  facet normal 0.80904 -0.587753 0
    outer loop
      vertex 13.2682 53.7133 0
      vertex 12.75 53 1.001
      vertex 12.75 53 0
    endloop
  endfacet
  facet normal -1 0 0
    outer loop
      vertex 14.1068 52.5592 0
      vertex 14.1068 53.4408 1.001
      vertex 14.1068 53.4408 0
    endloop
  endfacet
  facet normal -1 -0 0
    outer loop
      vertex 14.1068 53.4408 1.001
      vertex 14.1068 52.5592 0
      vertex 14.1068 52.5592 1.001
    endloop
  endfacet
  facet normal 0.80904 0.587753 0
    outer loop
      vertex 13.2682 52.2867 1.001
      vertex 12.75 53 0
      vertex 12.75 53 1.001
    endloop
  endfacet
  facet normal 0.80904 0.587753 0
    outer loop
      vertex 12.75 53 0
      vertex 13.2682 52.2867 1.001
      vertex 13.2682 52.2867 0
    endloop
  endfacet
endsolid OpenSCAD_Model
